<?xml version="1.0" encoding="utf-8" standalone="no"?>
<!DOCTYPE svg PUBLIC "-//W3C//DTD SVG 1.1//EN"
  "http://www.w3.org/Graphics/SVG/1.1/DTD/svg11.dtd">
<!-- Created with matplotlib (https://matplotlib.org/) -->
<svg height="181.236pt" version="1.1" viewBox="0 0 219.47 181.236" width="219.47pt" xmlns="http://www.w3.org/2000/svg" xmlns:xlink="http://www.w3.org/1999/xlink">
 <defs>
  <style type="text/css">
*{stroke-linecap:butt;stroke-linejoin:round;}
  </style>
 </defs>
 <g id="figure_1">
  <g id="patch_1">
   <path d="M 0 181.236 
L 219.47 181.236 
L 219.47 -0 
L 0 -0 
z
" style="fill:none;"/>
  </g>
  <g id="axes_1">
   <g id="patch_2">
    <path d="M 22.55 148.536 
L 212.27 148.536 
L 212.27 7.2 
L 22.55 7.2 
z
" style="fill:#ffffff;"/>
   </g>
   <g id="matplotlib.axis_1">
    <g id="xtick_1">
     <g id="line2d_1">
      <defs>
       <path d="M 0 0 
L 0 -4 
" id="m9cefa3293e" style="stroke:#000000;stroke-width:0.3;"/>
      </defs>
      <g>
       <use style="stroke:#000000;stroke-width:0.3;" x="30.089428" xlink:href="#m9cefa3293e" y="148.536"/>
      </g>
     </g>
     <g id="line2d_2">
      <defs>
       <path d="M 0 0 
L 0 4 
" id="mfd9967ecfa" style="stroke:#000000;stroke-width:0.3;"/>
      </defs>
      <g>
       <use style="stroke:#000000;stroke-width:0.3;" x="30.089428" xlink:href="#mfd9967ecfa" y="7.2"/>
      </g>
     </g>
     <g id="text_1">
      <!-- −4 -->
      <defs>
       <path d="M 62.09375 22 
L 6.40625 22 
L 6.40625 28.59375 
L 62.09375 28.59375 
z
" id="STIXGeneral-Regular-8722"/>
       <path d="M 47.296875 16.703125 
L 37 16.703125 
L 37 0 
L 29.203125 0 
L 29.203125 16.703125 
L 1.203125 16.703125 
L 1.203125 23.09375 
L 32.59375 67.59375 
L 37 67.59375 
L 37 23.09375 
L 47.296875 23.09375 
z
M 29.203125 23.09375 
L 29.203125 57.40625 
L 5.203125 23.09375 
z
" id="STIXGeneral-Regular-52"/>
      </defs>
      <g transform="translate(24.164428 158.865688)scale(0.1 -0.1)">
       <use xlink:href="#STIXGeneral-Regular-8722"/>
       <use x="68.499985" xlink:href="#STIXGeneral-Regular-52"/>
      </g>
     </g>
    </g>
    <g id="xtick_2">
     <g id="line2d_3">
      <g>
       <use style="stroke:#000000;stroke-width:0.3;" x="70.84915" xlink:href="#m9cefa3293e" y="148.536"/>
      </g>
     </g>
     <g id="line2d_4">
      <g>
       <use style="stroke:#000000;stroke-width:0.3;" x="70.84915" xlink:href="#mfd9967ecfa" y="7.2"/>
      </g>
     </g>
     <g id="text_2">
      <!-- −2 -->
      <defs>
       <path d="M 47.40625 13.703125 
L 42 0 
L 2.90625 0 
L 2.90625 1.203125 
L 20.703125 20.09375 
Q 27.703125 27.40625 30.703125 33.5 
Q 33.703125 39.59375 33.703125 46.09375 
Q 33.703125 52.796875 30 56.5 
Q 26.296875 60.203125 19.796875 60.203125 
Q 14.40625 60.203125 11.25 57.390625 
Q 8.09375 54.59375 5.09375 47.203125 
L 3 47.703125 
Q 4.703125 57 9.84375 62.296875 
Q 15 67.59375 23.796875 67.59375 
Q 32.09375 67.59375 37.1875 62.59375 
Q 42.296875 57.59375 42.296875 50 
Q 42.296875 38.703125 29.5 25.203125 
L 13 7.59375 
L 36.40625 7.59375 
Q 39.703125 7.59375 41.640625 8.890625 
Q 43.59375 10.203125 46 14.296875 
z
" id="STIXGeneral-Regular-50"/>
      </defs>
      <g transform="translate(64.92415 158.865688)scale(0.1 -0.1)">
       <use xlink:href="#STIXGeneral-Regular-8722"/>
       <use x="68.499985" xlink:href="#STIXGeneral-Regular-50"/>
      </g>
     </g>
    </g>
    <g id="xtick_3">
     <g id="line2d_5">
      <g>
       <use style="stroke:#000000;stroke-width:0.3;" x="111.608873" xlink:href="#m9cefa3293e" y="148.536"/>
      </g>
     </g>
     <g id="line2d_6">
      <g>
       <use style="stroke:#000000;stroke-width:0.3;" x="111.608873" xlink:href="#mfd9967ecfa" y="7.2"/>
      </g>
     </g>
     <g id="text_3">
      <!-- 0 -->
      <defs>
       <path d="M 47.59375 33 
Q 47.59375 26.296875 46.296875 20.34375 
Q 45 14.40625 42.453125 9.40625 
Q 39.90625 4.40625 35.40625 1.5 
Q 30.90625 -1.40625 25 -1.40625 
Q 18.90625 -1.40625 14.296875 1.6875 
Q 9.703125 4.796875 7.203125 10 
Q 4.703125 15.203125 3.546875 21.09375 
Q 2.40625 27 2.40625 33.59375 
Q 2.40625 42.90625 4.703125 50.34375 
Q 7 57.796875 12.34375 62.6875 
Q 17.703125 67.59375 25.40625 67.59375 
Q 35.203125 67.59375 41.390625 58 
Q 47.59375 48.40625 47.59375 33 
z
M 38 32.5 
Q 38 48.296875 34.640625 56.640625 
Q 31.296875 65 24.796875 65 
Q 18.59375 65 15.296875 56.59375 
Q 12 48.203125 12 32.90625 
Q 12 17.5 15.296875 9.34375 
Q 18.59375 1.203125 25 1.203125 
Q 31.296875 1.203125 34.640625 9.34375 
Q 38 17.5 38 32.5 
z
" id="STIXGeneral-Regular-48"/>
      </defs>
      <g transform="translate(109.108873 158.865688)scale(0.1 -0.1)">
       <use xlink:href="#STIXGeneral-Regular-48"/>
      </g>
     </g>
    </g>
    <g id="xtick_4">
     <g id="line2d_7">
      <g>
       <use style="stroke:#000000;stroke-width:0.3;" x="152.368595" xlink:href="#m9cefa3293e" y="148.536"/>
      </g>
     </g>
     <g id="line2d_8">
      <g>
       <use style="stroke:#000000;stroke-width:0.3;" x="152.368595" xlink:href="#mfd9967ecfa" y="7.2"/>
      </g>
     </g>
     <g id="text_4">
      <!-- 2 -->
      <g transform="translate(149.868595 158.865688)scale(0.1 -0.1)">
       <use xlink:href="#STIXGeneral-Regular-50"/>
      </g>
     </g>
    </g>
    <g id="xtick_5">
     <g id="line2d_9">
      <g>
       <use style="stroke:#000000;stroke-width:0.3;" x="193.128317" xlink:href="#m9cefa3293e" y="148.536"/>
      </g>
     </g>
     <g id="line2d_10">
      <g>
       <use style="stroke:#000000;stroke-width:0.3;" x="193.128317" xlink:href="#mfd9967ecfa" y="7.2"/>
      </g>
     </g>
     <g id="text_5">
      <!-- 4 -->
      <g transform="translate(190.628317 158.865688)scale(0.1 -0.1)">
       <use xlink:href="#STIXGeneral-Regular-52"/>
      </g>
     </g>
    </g>
    <g id="text_6">
     <!-- VBM -->
     <defs>
      <path d="M 69.703125 66.203125 
L 69.703125 64.296875 
Q 66.59375 64.203125 64.59375 62.34375 
Q 62.59375 60.5 60.5 55.203125 
L 38.296875 -1.09375 
L 36.796875 -1.09375 
L 12.40625 53.296875 
Q 9.203125 60.40625 7.296875 62.296875 
Q 5.40625 64.203125 1.59375 64.296875 
L 1.59375 66.203125 
L 28.09375 66.203125 
L 28.09375 64.296875 
L 25.296875 64.09375 
Q 20.796875 63.796875 20.796875 61 
Q 20.796875 59 24.703125 50.296875 
L 39.90625 16.09375 
L 54.59375 53 
Q 56.5 57.796875 56.5 60.203125 
Q 56.5 60.90625 56.34375 61.453125 
Q 56.203125 62 56 62.390625 
Q 55.796875 62.796875 55.25 63.09375 
Q 54.703125 63.40625 54.390625 63.546875 
Q 54.09375 63.703125 53.296875 63.84375 
Q 52.5 64 52.140625 64.046875 
Q 51.796875 64.09375 50.75 64.1875 
Q 49.703125 64.296875 49.296875 64.296875 
L 49.296875 66.203125 
z
" id="STIXGeneral-Regular-86"/>
      <path d="M 42.203125 34.90625 
L 42.203125 34.796875 
Q 49.703125 33.59375 54.40625 29.296875 
Q 59.296875 24.90625 59.296875 17.796875 
Q 59.296875 9.5 52.796875 4.75 
Q 46.296875 0 35.40625 0 
L 1.703125 0 
L 1.703125 1.90625 
Q 7.59375 2.09375 9.4375 3.84375 
Q 11.296875 5.59375 11.296875 11.296875 
L 11.296875 55 
Q 11.296875 60.796875 9.59375 62.34375 
Q 7.90625 63.90625 1.703125 64.296875 
L 1.703125 66.203125 
L 29.703125 66.203125 
Q 42.59375 66.203125 49.25 61.84375 
Q 55.90625 57.5 55.90625 49.5 
Q 55.90625 42.703125 51.796875 39.09375 
Q 48.90625 36.59375 42.203125 34.90625 
z
M 21.5 36.59375 
L 30.703125 36.59375 
Q 45.703125 36.59375 45.703125 49 
Q 45.703125 55.40625 41.25 58.953125 
Q 36.796875 62.5 28 62.5 
L 23.90625 62.5 
Q 21.5 62.5 21.5 59.296875 
z
M 21.5 32.59375 
L 21.5 8.203125 
Q 21.5 5.703125 22.84375 4.703125 
Q 24.203125 3.703125 27.703125 3.703125 
Q 34.5 3.703125 37.703125 4.453125 
Q 40.90625 5.203125 44 8 
Q 47.796875 11.296875 47.796875 17.90625 
Q 47.796875 25.5 43.09375 28.59375 
Q 42 29.40625 40.890625 29.953125 
Q 39.796875 30.5 38.9375 30.84375 
Q 38.09375 31.203125 36.6875 31.5 
Q 35.296875 31.796875 34.546875 31.9375 
Q 33.796875 32.09375 31.890625 32.1875 
Q 30 32.296875 29.09375 32.34375 
Q 28.203125 32.40625 25.546875 32.5 
Q 22.90625 32.59375 21.5 32.59375 
z
" id="STIXGeneral-Regular-66"/>
      <path d="M 86.40625 0 
L 58.40625 0 
L 58.40625 1.90625 
Q 64.296875 2.296875 65.84375 4.140625 
Q 67.40625 6 67.40625 12.296875 
L 67.40625 57.203125 
L 41.90625 0 
L 40.5 0 
L 15.296875 54.90625 
L 15.296875 15.09375 
Q 15.296875 7 17 4.59375 
Q 18.703125 2.203125 24.59375 1.90625 
L 24.59375 0 
L 1.203125 0 
L 1.203125 1.90625 
Q 5.59375 2.203125 7.5 3.203125 
Q 9.40625 4.203125 10.15625 6.75 
Q 10.90625 9.296875 10.90625 15.09375 
L 10.90625 54.90625 
Q 10.90625 60.59375 9.203125 62.25 
Q 7.5 63.90625 1.40625 64.296875 
L 1.40625 66.203125 
L 21.203125 66.203125 
L 44.296875 16 
L 66.40625 66.203125 
L 86.296875 66.203125 
L 86.296875 64.296875 
Q 80.90625 64.203125 79.25 62.390625 
Q 77.59375 60.59375 77.59375 55 
L 77.59375 11.203125 
Q 77.59375 5.90625 79.25 4.09375 
Q 80.90625 2.296875 86.40625 1.90625 
z
" id="STIXGeneral-Regular-77"/>
     </defs>
     <g transform="translate(106.019375 171.865688)scale(0.1 -0.1)">
      <use xlink:href="#STIXGeneral-Regular-86"/>
      <use x="72.199982" xlink:href="#STIXGeneral-Regular-66"/>
      <use x="138.899979" xlink:href="#STIXGeneral-Regular-77"/>
     </g>
    </g>
   </g>
   <g id="matplotlib.axis_2">
    <g id="ytick_1">
     <g id="line2d_11">
      <defs>
       <path d="M 0 0 
L 4 0 
" id="m94d7a02267" style="stroke:#000000;stroke-width:0.3;"/>
      </defs>
      <g>
       <use style="stroke:#000000;stroke-width:0.3;" x="22.55" xlink:href="#m94d7a02267" y="138.338207"/>
      </g>
     </g>
     <g id="line2d_12">
      <defs>
       <path d="M 0 0 
L -4 0 
" id="m06513b5cbc" style="stroke:#000000;stroke-width:0.3;"/>
      </defs>
      <g>
       <use style="stroke:#000000;stroke-width:0.3;" x="212.27" xlink:href="#m06513b5cbc" y="138.338207"/>
      </g>
     </g>
     <g id="text_7">
      <!-- −1 -->
      <defs>
       <path d="M 39.40625 0 
L 11.796875 0 
L 11.796875 1.5 
Q 17.296875 1.796875 19.296875 3.546875 
Q 21.296875 5.296875 21.296875 9.5 
L 21.296875 54.40625 
Q 21.296875 59.296875 18.296875 59.296875 
Q 16.90625 59.296875 13.796875 58.09375 
L 11.09375 57.09375 
L 11.09375 58.5 
L 29 67.59375 
L 29.90625 67.296875 
L 29.90625 7.59375 
Q 29.90625 4.296875 31.90625 2.890625 
Q 33.90625 1.5 39.40625 1.5 
z
" id="STIXGeneral-Regular-49"/>
      </defs>
      <g transform="translate(7.2 141.753051)scale(0.1 -0.1)">
       <use xlink:href="#STIXGeneral-Regular-8722"/>
       <use x="68.499985" xlink:href="#STIXGeneral-Regular-49"/>
      </g>
     </g>
    </g>
    <g id="ytick_2">
     <g id="line2d_13">
      <g>
       <use style="stroke:#000000;stroke-width:0.3;" x="22.55" xlink:href="#m94d7a02267" y="115.904029"/>
      </g>
     </g>
     <g id="line2d_14">
      <g>
       <use style="stroke:#000000;stroke-width:0.3;" x="212.27" xlink:href="#m06513b5cbc" y="115.904029"/>
      </g>
     </g>
     <g id="text_8">
      <!-- 0 -->
      <g transform="translate(14.05 119.318872)scale(0.1 -0.1)">
       <use xlink:href="#STIXGeneral-Regular-48"/>
      </g>
     </g>
    </g>
    <g id="ytick_3">
     <g id="line2d_15">
      <g>
       <use style="stroke:#000000;stroke-width:0.3;" x="22.55" xlink:href="#m94d7a02267" y="93.46985"/>
      </g>
     </g>
     <g id="line2d_16">
      <g>
       <use style="stroke:#000000;stroke-width:0.3;" x="212.27" xlink:href="#m06513b5cbc" y="93.46985"/>
      </g>
     </g>
     <g id="text_9">
      <!-- 1 -->
      <g transform="translate(14.05 96.884693)scale(0.1 -0.1)">
       <use xlink:href="#STIXGeneral-Regular-49"/>
      </g>
     </g>
    </g>
    <g id="ytick_4">
     <g id="line2d_17">
      <g>
       <use style="stroke:#000000;stroke-width:0.3;" x="22.55" xlink:href="#m94d7a02267" y="71.035671"/>
      </g>
     </g>
     <g id="line2d_18">
      <g>
       <use style="stroke:#000000;stroke-width:0.3;" x="212.27" xlink:href="#m06513b5cbc" y="71.035671"/>
      </g>
     </g>
     <g id="text_10">
      <!-- 2 -->
      <g transform="translate(14.05 74.450515)scale(0.1 -0.1)">
       <use xlink:href="#STIXGeneral-Regular-50"/>
      </g>
     </g>
    </g>
    <g id="ytick_5">
     <g id="line2d_19">
      <g>
       <use style="stroke:#000000;stroke-width:0.3;" x="22.55" xlink:href="#m94d7a02267" y="48.601492"/>
      </g>
     </g>
     <g id="line2d_20">
      <g>
       <use style="stroke:#000000;stroke-width:0.3;" x="212.27" xlink:href="#m06513b5cbc" y="48.601492"/>
      </g>
     </g>
     <g id="text_11">
      <!-- 3 -->
      <defs>
       <path d="M 6.09375 51 
L 4.5 51.40625 
Q 6.796875 58.90625 11.6875 63.25 
Q 16.59375 67.59375 24.09375 67.59375 
Q 31.09375 67.59375 35.390625 63.796875 
Q 39.703125 60 39.703125 53.90625 
Q 39.703125 45.703125 30.40625 40.09375 
Q 35.90625 37.703125 38.703125 34.796875 
Q 43.09375 29.90625 43.09375 21.90625 
Q 43.09375 13.90625 38.5 7.90625 
Q 35.09375 3.296875 28.75 0.9375 
Q 22.40625 -1.40625 15.296875 -1.40625 
Q 4.09375 -1.40625 4.09375 4.296875 
Q 4.09375 5.90625 5.296875 6.90625 
Q 6.5 7.90625 8.203125 7.90625 
Q 10.703125 7.90625 14.296875 5.296875 
Q 18.703125 2.203125 22.90625 2.203125 
Q 28.40625 2.203125 32.15625 6.640625 
Q 35.90625 11.09375 35.90625 17.5 
Q 35.90625 29 25.5 32 
Q 22.40625 33 15.296875 33 
L 15.296875 34.40625 
Q 20.90625 36.296875 23.703125 38 
Q 31.796875 42.59375 31.796875 51.40625 
Q 31.796875 56.40625 28.9375 59 
Q 26.09375 61.59375 21 61.59375 
Q 12 61.59375 6.09375 51 
z
" id="STIXGeneral-Regular-51"/>
      </defs>
      <g transform="translate(14.05 52.016336)scale(0.1 -0.1)">
       <use xlink:href="#STIXGeneral-Regular-51"/>
      </g>
     </g>
    </g>
    <g id="ytick_6">
     <g id="line2d_21">
      <g>
       <use style="stroke:#000000;stroke-width:0.3;" x="22.55" xlink:href="#m94d7a02267" y="26.167313"/>
      </g>
     </g>
     <g id="line2d_22">
      <g>
       <use style="stroke:#000000;stroke-width:0.3;" x="212.27" xlink:href="#m06513b5cbc" y="26.167313"/>
      </g>
     </g>
     <g id="text_12">
      <!-- 4 -->
      <g transform="translate(14.05 29.582157)scale(0.1 -0.1)">
       <use xlink:href="#STIXGeneral-Regular-52"/>
      </g>
     </g>
    </g>
   </g>
   <g id="line2d_23">
    <path clip-path="url(#p56bbd85a5f)" d="M 31.173636 134.131799 
L 55.089403 142.111636 
L 203.646364 13.624364 
" style="fill:none;stroke:#1f77b4;stroke-linecap:square;stroke-width:1.5;"/>
   </g>
   <g id="line2d_24">
    <path clip-path="url(#p56bbd85a5f)" d="M 31.173636 45.588582 
L 55.089403 79.894928 
L 203.646364 114.939359 
" style="fill:none;stroke:#ff7f0e;stroke-linecap:square;stroke-width:1.5;"/>
   </g>
   <g id="patch_3">
    <path d="M 22.55 148.536 
L 22.55 7.2 
" style="fill:none;stroke:#000000;stroke-linecap:square;stroke-linejoin:miter;stroke-width:0.4;"/>
   </g>
   <g id="patch_4">
    <path d="M 212.27 148.536 
L 212.27 7.2 
" style="fill:none;stroke:#000000;stroke-linecap:square;stroke-linejoin:miter;stroke-width:0.4;"/>
   </g>
   <g id="patch_5">
    <path d="M 22.55 148.536 
L 212.27 148.536 
" style="fill:none;stroke:#000000;stroke-linecap:square;stroke-linejoin:miter;stroke-width:0.4;"/>
   </g>
   <g id="patch_6">
    <path d="M 22.55 7.2 
L 212.27 7.2 
" style="fill:none;stroke:#000000;stroke-linecap:square;stroke-linejoin:miter;stroke-width:0.4;"/>
   </g>
   <g id="legend_1">
    <g id="patch_7">
     <path d="M 29.55 43.55 
L 87.1 43.55 
Q 89.1 43.55 89.1 41.55 
L 89.1 14.2 
Q 89.1 12.2 87.1 12.2 
L 29.55 12.2 
Q 27.55 12.2 27.55 14.2 
L 27.55 41.55 
Q 27.55 43.55 29.55 43.55 
z
" style="fill:#ffffff;opacity:0.8;stroke:#cccccc;stroke-linejoin:miter;"/>
    </g>
    <g id="line2d_25">
     <path d="M 31.55 19.7 
L 51.55 19.7 
" style="fill:none;stroke:#1f77b4;stroke-linecap:square;stroke-width:1.5;"/>
    </g>
    <g id="line2d_26"/>
    <g id="text_13">
     <!-- CBM -->
     <defs>
      <path d="M 61.40625 13.09375 
L 63.296875 11.296875 
Q 54.40625 -1.40625 36 -1.40625 
Q 21.5 -1.40625 12.40625 7.5 
Q 2.796875 16.90625 2.796875 32.5 
Q 2.796875 47.09375 11.796875 57.203125 
Q 21.203125 67.59375 36.09375 67.59375 
Q 42.5 67.59375 48 66.09375 
Q 54.296875 64.296875 54.90625 64.296875 
Q 58.203125 64.296875 59.09375 67.59375 
L 61.09375 67.59375 
L 62 44.90625 
L 59.703125 44.90625 
Q 58.09375 52.09375 54.5 56 
Q 47.40625 63.59375 38.40625 63.59375 
Q 27.296875 63.59375 20.84375 55.4375 
Q 14.40625 47.296875 14.40625 34.09375 
Q 14.40625 18 21.59375 10.203125 
Q 28.296875 3 39.40625 3 
Q 46 3 50.796875 5.296875 
Q 55.59375 7.59375 61.40625 13.09375 
z
" id="STIXGeneral-Regular-67"/>
     </defs>
     <g transform="translate(59.55 23.2)scale(0.1 -0.1)">
      <use xlink:href="#STIXGeneral-Regular-67"/>
      <use x="66.699997" xlink:href="#STIXGeneral-Regular-66"/>
      <use x="133.399994" xlink:href="#STIXGeneral-Regular-77"/>
     </g>
    </g>
    <g id="line2d_27">
     <path d="M 31.55 33.870313 
L 51.55 33.870313 
" style="fill:none;stroke:#ff7f0e;stroke-linecap:square;stroke-width:1.5;"/>
    </g>
    <g id="line2d_28"/>
    <g id="text_14">
     <!-- E_gap -->
     <defs>
      <path d="M 59.703125 16.90625 
L 55.09375 0 
L 1.203125 0 
L 1.203125 1.90625 
Q 6.90625 2.296875 8.40625 3.9375 
Q 9.90625 5.59375 9.90625 11.40625 
L 9.90625 55 
Q 9.90625 60.59375 8.34375 62.296875 
Q 6.796875 64 1.203125 64.296875 
L 1.203125 66.203125 
L 54.203125 66.203125 
L 54.59375 51.90625 
L 52.09375 51.90625 
Q 51 58.59375 48.203125 60.5 
Q 45.40625 62.40625 36.703125 62.40625 
L 23.59375 62.40625 
Q 21.40625 62.40625 20.75 61.75 
Q 20.09375 61.09375 20.09375 58.796875 
L 20.09375 36.796875 
L 35.203125 36.796875 
Q 41.5 36.796875 43.546875 38.59375 
Q 45.59375 40.40625 46.5 46.40625 
L 48.796875 46.40625 
L 48.796875 23 
L 46.5 23 
Q 45.59375 29.296875 43.59375 31 
Q 41.59375 32.703125 35.203125 32.703125 
L 20.09375 32.703125 
L 20.09375 8.40625 
Q 20.09375 5.40625 22.1875 4.546875 
Q 24.296875 3.703125 30.203125 3.703125 
L 33.796875 3.703125 
Q 44.5 3.703125 49 6.296875 
Q 53.5 8.90625 56.90625 16.90625 
z
" id="STIXGeneral-Regular-69"/>
      <path d="M 50 -12.5 
L 0 -12.5 
L 0 -7.5 
L 50 -7.5 
z
" id="STIXGeneral-Regular-95"/>
      <path d="M 47 38.796875 
L 38.703125 38.796875 
Q 40.59375 34.5 40.59375 30.40625 
Q 40.59375 22.703125 35.390625 18.796875 
Q 30.203125 14.90625 25 14.90625 
Q 23.90625 14.90625 21.203125 15.203125 
L 19.296875 15.40625 
Q 17.296875 14.796875 15.296875 12.6875 
Q 13.296875 10.59375 13.296875 9.09375 
Q 13.296875 6.796875 21.09375 6.40625 
L 34 5.796875 
Q 39.5 5.59375 42.796875 2.6875 
Q 46.09375 -0.203125 46.09375 -4.90625 
Q 46.09375 -10.703125 40.09375 -15.40625 
Q 31.796875 -21.796875 20.09375 -21.796875 
Q 12.90625 -21.796875 7.84375 -18.9375 
Q 2.796875 -16.09375 2.796875 -12.09375 
Q 2.796875 -9.296875 5 -6.546875 
Q 7.203125 -3.796875 12.59375 0.09375 
Q 9.40625 1.59375 8.34375 2.6875 
Q 7.296875 3.796875 7.296875 5.40625 
Q 7.296875 8.296875 11.90625 12.296875 
Q 14.203125 14.296875 16.203125 16.296875 
Q 11.203125 18.796875 9.046875 21.890625 
Q 6.90625 25 6.90625 29.703125 
Q 6.90625 36.5 11.75 41.25 
Q 16.59375 46 23.59375 46 
Q 27.59375 46 31.59375 44.5 
L 33.796875 43.703125 
Q 36.703125 42.703125 39.296875 42.703125 
L 47 42.703125 
z
M 15.203125 33.796875 
L 15.203125 33.5 
Q 15.203125 26.296875 18.046875 21.84375 
Q 20.90625 17.40625 25.5 17.40625 
Q 28.90625 17.40625 30.90625 19.84375 
Q 32.90625 22.296875 32.90625 26.40625 
Q 32.90625 33 29.90625 38.5 
Q 27.40625 43.203125 22.59375 43.203125 
Q 19.09375 43.203125 17.140625 40.703125 
Q 15.203125 38.203125 15.203125 33.796875 
z
M 43.296875 -6.40625 
Q 43.296875 -3.59375 40.546875 -2.546875 
Q 37.796875 -1.5 30.90625 -1.5 
Q 21 -1.5 14.703125 -0.203125 
Q 11.703125 -3.796875 10.75 -5.4375 
Q 9.796875 -7.09375 9.796875 -8.796875 
Q 9.796875 -12.09375 13.75 -14.09375 
Q 17.703125 -16.09375 24.296875 -16.09375 
Q 32.796875 -16.09375 38.046875 -13.4375 
Q 43.296875 -10.796875 43.296875 -6.40625 
z
" id="STIXGeneral-Regular-103"/>
      <path d="M 44.203125 6.59375 
L 44.203125 3.796875 
Q 40.40625 -1 35.203125 -1 
Q 29.5 -1 28.796875 6.296875 
L 28.703125 6.296875 
Q 22.296875 -1 14.203125 -1 
Q 9.5 -1 6.59375 1.75 
Q 3.703125 4.5 3.703125 9.40625 
Q 3.703125 16.40625 10.703125 21.09375 
Q 15.5 24.296875 28.703125 29.203125 
L 28.703125 34.59375 
Q 28.703125 39.09375 26.546875 41.34375 
Q 24.40625 43.59375 20.90625 43.59375 
Q 17.90625 43.59375 15.90625 42.140625 
Q 13.90625 40.703125 13.90625 38.703125 
Q 13.90625 37.796875 14.203125 36.6875 
Q 14.5 35.59375 14.5 34.5 
Q 14.5 33 13.140625 31.703125 
Q 11.796875 30.40625 9.90625 30.40625 
Q 8.203125 30.40625 6.890625 31.703125 
Q 5.59375 33 5.59375 35 
Q 5.59375 39.796875 10.703125 43 
Q 15.40625 46 22.203125 46 
Q 30.296875 46 34 41.5 
Q 35.796875 39.40625 36.296875 37.25 
Q 36.796875 35.09375 36.796875 30.40625 
L 36.796875 11.296875 
Q 36.796875 4.703125 39.90625 4.703125 
Q 41.90625 4.703125 44.203125 6.59375 
z
M 28.703125 12.703125 
L 28.703125 26.796875 
Q 19.5 23.59375 15.90625 20.203125 
Q 12.5 17.09375 12.5 12.5 
Q 12.5 8.703125 14.390625 6.75 
Q 16.296875 4.796875 19.40625 4.796875 
Q 22.703125 4.796875 25.203125 6.40625 
Q 27.296875 7.90625 28 9.203125 
Q 28.703125 10.5 28.703125 12.703125 
z
" id="STIXGeneral-Regular-97"/>
      <path d="M 15.90625 45.796875 
L 15.90625 38.09375 
Q 22.203125 46 30.296875 46 
Q 37.59375 46 42.296875 40 
Q 47 34 47 24.703125 
Q 47 13.796875 40.953125 6.390625 
Q 34.90625 -1 26 -1 
Q 22.90625 -1 20.75 -0.09375 
Q 18.59375 0.796875 15.90625 3.296875 
L 15.90625 -12.40625 
Q 15.90625 -17.09375 17.5 -18.4375 
Q 19.09375 -19.796875 24.703125 -19.90625 
L 24.703125 -21.703125 
L 0.5 -21.703125 
L 0.5 -20 
Q 4.90625 -19.59375 6.203125 -18.296875 
Q 7.5 -17 7.5 -13.09375 
L 7.5 33.703125 
Q 7.5 37.203125 6.703125 38.296875 
Q 5.90625 39.40625 3.40625 39.40625 
Q 1.796875 39.40625 0.90625 39.296875 
L 0.90625 40.90625 
Q 7.90625 43 15.296875 46 
z
M 15.90625 33.40625 
L 15.90625 8.796875 
Q 15.90625 6.59375 19.34375 4.390625 
Q 22.796875 2.203125 26.296875 2.203125 
Q 31.703125 2.203125 35.046875 7.296875 
Q 38.40625 12.40625 38.40625 20.703125 
Q 38.40625 29.5 35.046875 34.75 
Q 31.703125 40 26.09375 40 
Q 22.59375 40 19.25 37.796875 
Q 15.90625 35.59375 15.90625 33.40625 
z
" id="STIXGeneral-Regular-112"/>
     </defs>
     <g transform="translate(59.55 37.370313)scale(0.1 -0.1)">
      <use xlink:href="#STIXGeneral-Regular-69"/>
      <use x="61.099991" xlink:href="#STIXGeneral-Regular-95"/>
      <use x="111.099976" xlink:href="#STIXGeneral-Regular-103"/>
      <use x="161.09996" xlink:href="#STIXGeneral-Regular-97"/>
      <use x="205.499954" xlink:href="#STIXGeneral-Regular-112"/>
     </g>
    </g>
   </g>
  </g>
 </g>
 <defs>
  <clipPath id="p56bbd85a5f">
   <rect height="141.336" width="189.72" x="22.55" y="7.2"/>
  </clipPath>
 </defs>
</svg>
