<?xml version="1.0" encoding="utf-8" standalone="no"?>
<!DOCTYPE svg PUBLIC "-//W3C//DTD SVG 1.1//EN"
  "http://www.w3.org/Graphics/SVG/1.1/DTD/svg11.dtd">
<!-- Created with matplotlib (https://matplotlib.org/) -->
<svg height="247.84pt" version="1.1" viewBox="0 0 373.05 247.84" width="373.05pt" xmlns="http://www.w3.org/2000/svg" xmlns:xlink="http://www.w3.org/1999/xlink">
 <metadata>
  <rdf:RDF xmlns:cc="http://creativecommons.org/ns#" xmlns:dc="http://purl.org/dc/elements/1.1/" xmlns:rdf="http://www.w3.org/1999/02/22-rdf-syntax-ns#">
   <cc:Work>
    <dc:type rdf:resource="http://purl.org/dc/dcmitype/StillImage"/>
    <dc:date>2022-09-02T11:40:44.516374</dc:date>
    <dc:format>image/svg+xml</dc:format>
    <dc:creator>
     <cc:Agent>
      <dc:title>Matplotlib v3.3.3, https://matplotlib.org/</dc:title>
     </cc:Agent>
    </dc:creator>
   </cc:Work>
  </rdf:RDF>
 </metadata>
 <defs>
  <style type="text/css">*{stroke-linecap:butt;stroke-linejoin:round;}</style>
 </defs>
 <g id="figure_1">
  <g id="patch_1">
   <path d="M 0 247.84 
L 373.05 247.84 
L 373.05 0 
L 0 0 
z
" style="fill:#ffffff;"/>
  </g>
  <g id="axes_1">
   <g id="patch_2">
    <path d="M 31.05 224.64 
L 365.85 224.64 
L 365.85 7.2 
L 31.05 7.2 
z
" style="fill:#e5e5e5;"/>
   </g>
   <g id="matplotlib.axis_1">
    <g id="xtick_1">
     <g id="line2d_1">
      <path clip-path="url(#p3986a68a75)" d="M 46.268182 224.64 
L 46.268182 7.2 
" style="fill:none;stroke:#ffffff;stroke-linecap:square;stroke-width:0.8;"/>
     </g>
     <g id="line2d_2">
      <defs>
       <path d="M 0 0 
L 0 3.5 
" id="m94aefcf244" style="stroke:#555555;stroke-width:0.8;"/>
      </defs>
      <g>
       <use style="fill:#555555;stroke:#555555;stroke-width:0.8;" x="46.268182" xlink:href="#m94aefcf244" y="224.64"/>
      </g>
     </g>
     <g id="text_1">
      <!-- 0.0 -->
      <g style="fill:#555555;" transform="translate(40.018182 238.469687)scale(0.1 -0.1)">
       <defs>
        <path d="M 47.59375 33 
Q 47.59375 26.296875 46.296875 20.34375 
Q 45 14.40625 42.453125 9.40625 
Q 39.90625 4.40625 35.40625 1.5 
Q 30.90625 -1.40625 25 -1.40625 
Q 18.90625 -1.40625 14.296875 1.6875 
Q 9.703125 4.796875 7.203125 10 
Q 4.703125 15.203125 3.546875 21.09375 
Q 2.40625 27 2.40625 33.59375 
Q 2.40625 42.90625 4.703125 50.34375 
Q 7 57.796875 12.34375 62.6875 
Q 17.703125 67.59375 25.40625 67.59375 
Q 35.203125 67.59375 41.390625 58 
Q 47.59375 48.40625 47.59375 33 
z
M 38 32.5 
Q 38 48.296875 34.640625 56.640625 
Q 31.296875 65 24.796875 65 
Q 18.59375 65 15.296875 56.59375 
Q 12 48.203125 12 32.90625 
Q 12 17.5 15.296875 9.34375 
Q 18.59375 1.203125 25 1.203125 
Q 31.296875 1.203125 34.640625 9.34375 
Q 38 17.5 38 32.5 
z
" id="STIXGeneral-Regular-48"/>
        <path d="M 18.09375 4.296875 
Q 18.09375 2.09375 16.4375 0.5 
Q 14.796875 -1.09375 12.5 -1.09375 
Q 10.203125 -1.09375 8.59375 0.5 
Q 7 2.09375 7 4.390625 
Q 7 6.703125 8.640625 8.34375 
Q 10.296875 10 12.59375 10 
Q 14.796875 10 16.4375 8.296875 
Q 18.09375 6.59375 18.09375 4.296875 
z
" id="STIXGeneral-Regular-46"/>
       </defs>
       <use xlink:href="#STIXGeneral-Regular-48"/>
       <use x="49.999985" xlink:href="#STIXGeneral-Regular-46"/>
       <use x="74.999969" xlink:href="#STIXGeneral-Regular-48"/>
      </g>
     </g>
    </g>
    <g id="xtick_2">
     <g id="line2d_3">
      <path clip-path="url(#p3986a68a75)" d="M 107.052869 224.64 
L 107.052869 7.2 
" style="fill:none;stroke:#ffffff;stroke-linecap:square;stroke-width:0.8;"/>
     </g>
     <g id="line2d_4">
      <g>
       <use style="fill:#555555;stroke:#555555;stroke-width:0.8;" x="107.052869" xlink:href="#m94aefcf244" y="224.64"/>
      </g>
     </g>
     <g id="text_2">
      <!-- 0.2 -->
      <g style="fill:#555555;" transform="translate(100.802869 238.469687)scale(0.1 -0.1)">
       <defs>
        <path d="M 47.40625 13.703125 
L 42 0 
L 2.90625 0 
L 2.90625 1.203125 
L 20.703125 20.09375 
Q 27.703125 27.40625 30.703125 33.5 
Q 33.703125 39.59375 33.703125 46.09375 
Q 33.703125 52.796875 30 56.5 
Q 26.296875 60.203125 19.796875 60.203125 
Q 14.40625 60.203125 11.25 57.390625 
Q 8.09375 54.59375 5.09375 47.203125 
L 3 47.703125 
Q 4.703125 57 9.84375 62.296875 
Q 15 67.59375 23.796875 67.59375 
Q 32.09375 67.59375 37.1875 62.59375 
Q 42.296875 57.59375 42.296875 50 
Q 42.296875 38.703125 29.5 25.203125 
L 13 7.59375 
L 36.40625 7.59375 
Q 39.703125 7.59375 41.640625 8.890625 
Q 43.59375 10.203125 46 14.296875 
z
" id="STIXGeneral-Regular-50"/>
       </defs>
       <use xlink:href="#STIXGeneral-Regular-48"/>
       <use x="49.999985" xlink:href="#STIXGeneral-Regular-46"/>
       <use x="74.999969" xlink:href="#STIXGeneral-Regular-50"/>
      </g>
     </g>
    </g>
    <g id="xtick_3">
     <g id="line2d_5">
      <path clip-path="url(#p3986a68a75)" d="M 167.837555 224.64 
L 167.837555 7.2 
" style="fill:none;stroke:#ffffff;stroke-linecap:square;stroke-width:0.8;"/>
     </g>
     <g id="line2d_6">
      <g>
       <use style="fill:#555555;stroke:#555555;stroke-width:0.8;" x="167.837555" xlink:href="#m94aefcf244" y="224.64"/>
      </g>
     </g>
     <g id="text_3">
      <!-- 0.4 -->
      <g style="fill:#555555;" transform="translate(161.587555 238.469687)scale(0.1 -0.1)">
       <defs>
        <path d="M 47.296875 16.703125 
L 37 16.703125 
L 37 0 
L 29.203125 0 
L 29.203125 16.703125 
L 1.203125 16.703125 
L 1.203125 23.09375 
L 32.59375 67.59375 
L 37 67.59375 
L 37 23.09375 
L 47.296875 23.09375 
z
M 29.203125 23.09375 
L 29.203125 57.40625 
L 5.203125 23.09375 
z
" id="STIXGeneral-Regular-52"/>
       </defs>
       <use xlink:href="#STIXGeneral-Regular-48"/>
       <use x="49.999985" xlink:href="#STIXGeneral-Regular-46"/>
       <use x="74.999969" xlink:href="#STIXGeneral-Regular-52"/>
      </g>
     </g>
    </g>
    <g id="xtick_4">
     <g id="line2d_7">
      <path clip-path="url(#p3986a68a75)" d="M 228.622242 224.64 
L 228.622242 7.2 
" style="fill:none;stroke:#ffffff;stroke-linecap:square;stroke-width:0.8;"/>
     </g>
     <g id="line2d_8">
      <g>
       <use style="fill:#555555;stroke:#555555;stroke-width:0.8;" x="228.622242" xlink:href="#m94aefcf244" y="224.64"/>
      </g>
     </g>
     <g id="text_4">
      <!-- 0.6 -->
      <g style="fill:#555555;" transform="translate(222.372242 238.469687)scale(0.1 -0.1)">
       <defs>
        <path d="M 44.59375 68.40625 
L 44.796875 66.796875 
Q 33 64.90625 25.09375 57.25 
Q 17.203125 49.59375 15.203125 38.296875 
Q 21 42.796875 27.90625 42.796875 
Q 36.703125 42.796875 41.75 37.1875 
Q 46.796875 31.59375 46.796875 21.90625 
Q 46.796875 12.09375 41.703125 5.90625 
Q 35.796875 -1.40625 25.796875 -1.40625 
Q 13.59375 -1.40625 8.09375 8.703125 
Q 3.40625 17.296875 3.40625 27.90625 
Q 3.40625 44.296875 14.296875 55.5 
Q 20.5 61.90625 27.046875 64.546875 
Q 33.59375 67.203125 44.59375 68.40625 
z
M 37.796875 18.796875 
Q 37.796875 38.203125 24.296875 38.203125 
Q 19.296875 38.203125 16 35.546875 
Q 12.703125 32.90625 12.703125 26.59375 
Q 12.703125 14.90625 16.34375 8.15625 
Q 20 1.40625 26.90625 1.40625 
Q 32.203125 1.40625 35 6.15625 
Q 37.796875 10.90625 37.796875 18.796875 
z
" id="STIXGeneral-Regular-54"/>
       </defs>
       <use xlink:href="#STIXGeneral-Regular-48"/>
       <use x="49.999985" xlink:href="#STIXGeneral-Regular-46"/>
       <use x="74.999969" xlink:href="#STIXGeneral-Regular-54"/>
      </g>
     </g>
    </g>
    <g id="xtick_5">
     <g id="line2d_9">
      <path clip-path="url(#p3986a68a75)" d="M 289.406929 224.64 
L 289.406929 7.2 
" style="fill:none;stroke:#ffffff;stroke-linecap:square;stroke-width:0.8;"/>
     </g>
     <g id="line2d_10">
      <g>
       <use style="fill:#555555;stroke:#555555;stroke-width:0.8;" x="289.406929" xlink:href="#m94aefcf244" y="224.64"/>
      </g>
     </g>
     <g id="text_5">
      <!-- 0.8 -->
      <g style="fill:#555555;" transform="translate(283.156929 238.469687)scale(0.1 -0.1)">
       <defs>
        <path d="M 44.5 15.5 
Q 44.5 7.796875 39.140625 3.1875 
Q 33.796875 -1.40625 24.796875 -1.40625 
Q 16.40625 -1.40625 11 3.1875 
Q 5.59375 7.796875 5.59375 14.90625 
Q 5.59375 20.203125 8.1875 23.953125 
Q 10.796875 27.703125 18.59375 33.203125 
Q 11.09375 39.40625 8.640625 43.203125 
Q 6.203125 47 6.203125 52 
Q 6.203125 59.09375 11.640625 63.34375 
Q 17.09375 67.59375 25.59375 67.59375 
Q 32.90625 67.59375 37.65625 63.4375 
Q 42.40625 59.296875 42.40625 53.296875 
Q 42.40625 47.796875 39.546875 44.5 
Q 36.703125 41.203125 29 37.09375 
Q 38 31.09375 41.25 26.390625 
Q 44.5 21.703125 44.5 15.5 
z
M 35.5 53.296875 
Q 35.5 58.5 32.59375 61.640625 
Q 29.703125 64.796875 24.59375 64.796875 
Q 19.5 64.796875 16.546875 62.140625 
Q 13.59375 59.5 13.59375 54.890625 
Q 13.59375 50.296875 16.546875 46.546875 
Q 19.5 42.796875 26.09375 38.90625 
Q 31.203125 41.90625 33.34375 45.25 
Q 35.5 48.59375 35.5 53.296875 
z
M 27.09375 27.203125 
L 21.203125 31.203125 
Q 16.796875 27.59375 15 24.140625 
Q 13.203125 20.703125 13.203125 15.796875 
Q 13.203125 9 16.640625 5.203125 
Q 20.09375 1.40625 25.90625 1.40625 
Q 30.796875 1.40625 33.84375 4.453125 
Q 36.90625 7.5 36.90625 12.40625 
Q 36.90625 16.90625 34.59375 20.296875 
Q 32.296875 23.703125 27.09375 27.203125 
z
" id="STIXGeneral-Regular-56"/>
       </defs>
       <use xlink:href="#STIXGeneral-Regular-48"/>
       <use x="49.999985" xlink:href="#STIXGeneral-Regular-46"/>
       <use x="74.999969" xlink:href="#STIXGeneral-Regular-56"/>
      </g>
     </g>
    </g>
    <g id="xtick_6">
     <g id="line2d_11">
      <path clip-path="url(#p3986a68a75)" d="M 350.191615 224.64 
L 350.191615 7.2 
" style="fill:none;stroke:#ffffff;stroke-linecap:square;stroke-width:0.8;"/>
     </g>
     <g id="line2d_12">
      <g>
       <use style="fill:#555555;stroke:#555555;stroke-width:0.8;" x="350.191615" xlink:href="#m94aefcf244" y="224.64"/>
      </g>
     </g>
     <g id="text_6">
      <!-- 1.0 -->
      <g style="fill:#555555;" transform="translate(343.941615 238.469687)scale(0.1 -0.1)">
       <defs>
        <path d="M 39.40625 0 
L 11.796875 0 
L 11.796875 1.5 
Q 17.296875 1.796875 19.296875 3.546875 
Q 21.296875 5.296875 21.296875 9.5 
L 21.296875 54.40625 
Q 21.296875 59.296875 18.296875 59.296875 
Q 16.90625 59.296875 13.796875 58.09375 
L 11.09375 57.09375 
L 11.09375 58.5 
L 29 67.59375 
L 29.90625 67.296875 
L 29.90625 7.59375 
Q 29.90625 4.296875 31.90625 2.890625 
Q 33.90625 1.5 39.40625 1.5 
z
" id="STIXGeneral-Regular-49"/>
       </defs>
       <use xlink:href="#STIXGeneral-Regular-49"/>
       <use x="49.999985" xlink:href="#STIXGeneral-Regular-46"/>
       <use x="74.999969" xlink:href="#STIXGeneral-Regular-48"/>
      </g>
     </g>
    </g>
   </g>
   <g id="matplotlib.axis_2">
    <g id="ytick_1">
     <g id="line2d_13">
      <path clip-path="url(#p3986a68a75)" d="M 31.05 220.941847 
L 365.85 220.941847 
" style="fill:none;stroke:#ffffff;stroke-linecap:square;stroke-width:0.8;"/>
     </g>
     <g id="line2d_14">
      <defs>
       <path d="M 0 0 
L -3.5 0 
" id="m04847f03e8" style="stroke:#555555;stroke-width:0.8;"/>
      </defs>
      <g>
       <use style="fill:#555555;stroke:#555555;stroke-width:0.8;" x="31.05" xlink:href="#m04847f03e8" y="220.941847"/>
      </g>
     </g>
     <g id="text_7">
      <!-- −20 -->
      <g style="fill:#555555;" transform="translate(7.2 224.356691)scale(0.1 -0.1)">
       <defs>
        <path d="M 62.09375 22 
L 6.40625 22 
L 6.40625 28.59375 
L 62.09375 28.59375 
z
" id="STIXGeneral-Regular-8722"/>
       </defs>
       <use xlink:href="#STIXGeneral-Regular-8722"/>
       <use x="68.499985" xlink:href="#STIXGeneral-Regular-50"/>
       <use x="118.499969" xlink:href="#STIXGeneral-Regular-48"/>
      </g>
     </g>
    </g>
    <g id="ytick_2">
     <g id="line2d_15">
      <path clip-path="url(#p3986a68a75)" d="M 31.05 193.195191 
L 365.85 193.195191 
" style="fill:none;stroke:#ffffff;stroke-linecap:square;stroke-width:0.8;"/>
     </g>
     <g id="line2d_16">
      <g>
       <use style="fill:#555555;stroke:#555555;stroke-width:0.8;" x="31.05" xlink:href="#m04847f03e8" y="193.195191"/>
      </g>
     </g>
     <g id="text_8">
      <!-- −15 -->
      <g style="fill:#555555;" transform="translate(7.2 196.610035)scale(0.1 -0.1)">
       <defs>
        <path d="M 43.796875 68.09375 
L 40.203125 59.59375 
Q 39.59375 58.296875 37.5 58.296875 
L 18.09375 58.296875 
L 14.09375 49.796875 
Q 25.09375 47.703125 30 45.25 
Q 34.90625 42.796875 39.09375 37 
Q 42.59375 32.203125 42.59375 24.296875 
Q 42.59375 17.09375 40.25 12.1875 
Q 37.90625 7.296875 32.796875 3.5 
Q 26 -1.40625 15.796875 -1.40625 
Q 10.09375 -1.40625 6.59375 0.296875 
Q 3.09375 2 3.09375 4.796875 
Q 3.09375 8.59375 7.59375 8.59375 
Q 11.203125 8.59375 15 5.5 
Q 18.90625 2.296875 22.09375 2.296875 
Q 27.296875 2.296875 31.4375 7.5 
Q 35.59375 12.703125 35.59375 19.203125 
Q 35.59375 28.796875 28.90625 34.203125 
Q 20.203125 41.203125 7.59375 41.203125 
Q 6.40625 41.203125 6.40625 42 
L 6.5 42.5 
L 17.40625 66.203125 
L 38.09375 66.203125 
Q 39.796875 66.203125 40.75 66.703125 
Q 41.703125 67.203125 42.90625 68.796875 
z
" id="STIXGeneral-Regular-53"/>
       </defs>
       <use xlink:href="#STIXGeneral-Regular-8722"/>
       <use x="68.499985" xlink:href="#STIXGeneral-Regular-49"/>
       <use x="118.499969" xlink:href="#STIXGeneral-Regular-53"/>
      </g>
     </g>
    </g>
    <g id="ytick_3">
     <g id="line2d_17">
      <path clip-path="url(#p3986a68a75)" d="M 31.05 165.448535 
L 365.85 165.448535 
" style="fill:none;stroke:#ffffff;stroke-linecap:square;stroke-width:0.8;"/>
     </g>
     <g id="line2d_18">
      <g>
       <use style="fill:#555555;stroke:#555555;stroke-width:0.8;" x="31.05" xlink:href="#m04847f03e8" y="165.448535"/>
      </g>
     </g>
     <g id="text_9">
      <!-- −10 -->
      <g style="fill:#555555;" transform="translate(7.2 168.863379)scale(0.1 -0.1)">
       <use xlink:href="#STIXGeneral-Regular-8722"/>
       <use x="68.499985" xlink:href="#STIXGeneral-Regular-49"/>
       <use x="118.499969" xlink:href="#STIXGeneral-Regular-48"/>
      </g>
     </g>
    </g>
    <g id="ytick_4">
     <g id="line2d_19">
      <path clip-path="url(#p3986a68a75)" d="M 31.05 137.701879 
L 365.85 137.701879 
" style="fill:none;stroke:#ffffff;stroke-linecap:square;stroke-width:0.8;"/>
     </g>
     <g id="line2d_20">
      <g>
       <use style="fill:#555555;stroke:#555555;stroke-width:0.8;" x="31.05" xlink:href="#m04847f03e8" y="137.701879"/>
      </g>
     </g>
     <g id="text_10">
      <!-- −5 -->
      <g style="fill:#555555;" transform="translate(12.2 141.116723)scale(0.1 -0.1)">
       <use xlink:href="#STIXGeneral-Regular-8722"/>
       <use x="68.499985" xlink:href="#STIXGeneral-Regular-53"/>
      </g>
     </g>
    </g>
    <g id="ytick_5">
     <g id="line2d_21">
      <path clip-path="url(#p3986a68a75)" d="M 31.05 109.955223 
L 365.85 109.955223 
" style="fill:none;stroke:#ffffff;stroke-linecap:square;stroke-width:0.8;"/>
     </g>
     <g id="line2d_22">
      <g>
       <use style="fill:#555555;stroke:#555555;stroke-width:0.8;" x="31.05" xlink:href="#m04847f03e8" y="109.955223"/>
      </g>
     </g>
     <g id="text_11">
      <!-- 0 -->
      <g style="fill:#555555;" transform="translate(19.05 113.370067)scale(0.1 -0.1)">
       <use xlink:href="#STIXGeneral-Regular-48"/>
      </g>
     </g>
    </g>
    <g id="ytick_6">
     <g id="line2d_23">
      <path clip-path="url(#p3986a68a75)" d="M 31.05 82.208567 
L 365.85 82.208567 
" style="fill:none;stroke:#ffffff;stroke-linecap:square;stroke-width:0.8;"/>
     </g>
     <g id="line2d_24">
      <g>
       <use style="fill:#555555;stroke:#555555;stroke-width:0.8;" x="31.05" xlink:href="#m04847f03e8" y="82.208567"/>
      </g>
     </g>
     <g id="text_12">
      <!-- 5 -->
      <g style="fill:#555555;" transform="translate(19.05 85.623411)scale(0.1 -0.1)">
       <use xlink:href="#STIXGeneral-Regular-53"/>
      </g>
     </g>
    </g>
    <g id="ytick_7">
     <g id="line2d_25">
      <path clip-path="url(#p3986a68a75)" d="M 31.05 54.461911 
L 365.85 54.461911 
" style="fill:none;stroke:#ffffff;stroke-linecap:square;stroke-width:0.8;"/>
     </g>
     <g id="line2d_26">
      <g>
       <use style="fill:#555555;stroke:#555555;stroke-width:0.8;" x="31.05" xlink:href="#m04847f03e8" y="54.461911"/>
      </g>
     </g>
     <g id="text_13">
      <!-- 10 -->
      <g style="fill:#555555;" transform="translate(14.05 57.876755)scale(0.1 -0.1)">
       <use xlink:href="#STIXGeneral-Regular-49"/>
       <use x="49.999985" xlink:href="#STIXGeneral-Regular-48"/>
      </g>
     </g>
    </g>
    <g id="ytick_8">
     <g id="line2d_27">
      <path clip-path="url(#p3986a68a75)" d="M 31.05 26.715255 
L 365.85 26.715255 
" style="fill:none;stroke:#ffffff;stroke-linecap:square;stroke-width:0.8;"/>
     </g>
     <g id="line2d_28">
      <g>
       <use style="fill:#555555;stroke:#555555;stroke-width:0.8;" x="31.05" xlink:href="#m04847f03e8" y="26.715255"/>
      </g>
     </g>
     <g id="text_14">
      <!-- 15 -->
      <g style="fill:#555555;" transform="translate(14.05 30.130099)scale(0.1 -0.1)">
       <use xlink:href="#STIXGeneral-Regular-49"/>
       <use x="49.999985" xlink:href="#STIXGeneral-Regular-53"/>
      </g>
     </g>
    </g>
   </g>
   <g id="line2d_29">
    <path clip-path="url(#p3986a68a75)" d="M 46.268182 214.756364 
L 50.0949 214.717518 
L 53.921614 214.601537 
L 57.748333 214.407311 
L 61.575052 214.135948 
L 65.401766 213.78745 
L 69.228484 213.361817 
L 73.055203 212.859047 
L 76.881917 212.279142 
L 80.708635 211.623211 
L 84.535354 210.891254 
L 88.362068 210.083827 
L 92.188787 209.200373 
L 96.015505 208.242559 
L 99.842219 207.210383 
L 103.668938 206.104401 
L 107.495656 204.925723 
L 111.32237 203.674904 
L 115.149089 202.353053 
L 118.975808 200.962391 
L 122.802521 199.502917 
L 126.62924 197.977406 
L 130.455959 196.389187 
L 134.282673 194.742146 
L 138.109391 193.042386 
L 141.93611 191.302115 
L 145.762824 189.544087 
L 149.589542 187.825459 
L 153.416261 186.314376 
L 157.509957 185.53747 
L 157.730059 185.53747 
L 159.945862 185.526371 
L 162.161671 185.493075 
L 164.377474 185.437582 
L 166.593283 185.359891 
L 168.809087 185.260003 
L 171.024895 185.137918 
L 173.240699 184.993636 
L 175.456507 184.827156 
L 177.672311 184.638478 
L 179.888119 184.427604 
L 182.103923 184.194532 
L 184.319732 183.939818 
L 186.535535 183.662351 
L 188.751344 183.363242 
L 190.967147 183.041936 
L 193.182956 182.698987 
L 195.39876 182.333286 
L 197.614568 181.945943 
L 199.830372 181.536957 
L 202.04618 181.105774 
L 204.261984 180.652394 
L 206.477792 180.177371 
L 208.693596 179.680706 
L 210.909405 179.162398 
L 213.125208 178.622448 
L 215.341017 178.060856 
L 217.55682 177.478731 
L 219.772629 176.876629 
L 221.973642 176.252884 
L 222.193744 176.252884 
L 226.625302 177.797263 
L 231.056858 179.716776 
L 235.488416 181.820528 
L 239.919972 183.997531 
L 244.351531 186.185632 
L 248.783087 188.350426 
L 253.214645 190.469161 
L 257.646197 192.527963 
L 262.077755 194.517398 
L 266.509311 196.430252 
L 270.940869 198.260977 
L 275.372425 200.005686 
L 279.803984 201.661052 
L 284.23554 203.224298 
L 288.667098 204.693206 
L 293.09865 206.066666 
L 297.530208 207.343012 
L 301.961764 208.52058 
L 306.393323 209.59826 
L 310.824879 210.575497 
L 315.256437 211.451737 
L 319.687993 212.225869 
L 324.119551 212.897338 
L 328.551107 213.466144 
L 332.982661 213.931733 
L 337.414217 214.294104 
L 341.845776 214.552148 
L 346.277332 214.70642 
L 350.631818 214.756364 
" style="fill:none;stroke:#bf00bf;stroke-linecap:square;stroke-width:5;"/>
   </g>
   <g id="line2d_30">
    <path clip-path="url(#p3986a68a75)" d="M 46.268182 149.141626 
L 50.0949 149.095567 
L 53.921614 148.956279 
L 57.748333 148.724317 
L 61.575052 148.400236 
L 65.401766 147.984036 
L 69.228484 147.476272 
L 73.055203 146.877499 
L 76.881917 146.188272 
L 80.708635 145.409701 
L 84.535354 144.542895 
L 88.362068 143.58952 
L 92.188787 142.550131 
L 96.015505 143.909162 
L 99.842219 146.393043 
L 103.668938 148.90578 
L 107.495656 151.43461 
L 111.32237 153.968435 
L 115.149089 156.498375 
L 118.975808 159.014441 
L 122.802521 161.509421 
L 126.62924 163.974989 
L 130.455959 166.404486 
L 134.282673 168.789033 
L 138.109391 171.119198 
L 141.93611 173.38055 
L 145.762824 175.548119 
L 149.589542 177.562526 
L 153.416261 179.254517 
L 157.509957 180.097461 
L 157.730059 180.097461 
L 159.945862 180.086362 
L 162.161671 180.052511 
L 164.377474 179.996463 
L 166.593283 179.918217 
L 168.809087 179.818329 
L 171.024895 179.696244 
L 173.240699 179.552516 
L 175.456507 179.387701 
L 177.672311 179.201799 
L 179.888119 178.995918 
L 182.103923 178.770615 
L 184.319732 178.526445 
L 186.535535 178.265071 
L 188.751344 177.98705 
L 190.967147 177.694045 
L 193.182956 177.388832 
L 195.39876 177.07363 
L 197.614568 176.752324 
L 199.830372 176.429908 
L 202.04618 176.111931 
L 204.261984 175.808382 
L 206.477792 175.531471 
L 208.693596 175.296734 
L 210.909405 175.12748 
L 213.125208 175.052009 
L 215.341017 175.103062 
L 217.55682 175.310607 
L 219.772629 175.691292 
L 221.973642 176.24567 
L 222.193744 176.24567 
L 226.625302 174.928259 
L 231.056858 173.526497 
L 235.488416 172.040387 
L 239.919972 170.471591 
L 244.351531 168.821774 
L 248.783087 167.091493 
L 253.214645 165.282966 
L 257.646197 163.398413 
L 262.077755 161.440054 
L 266.509311 159.411219 
L 270.940869 157.315791 
L 275.372425 155.157656 
L 279.803984 152.942918 
L 284.23554 150.677126 
L 288.667098 148.368604 
L 293.09865 146.026787 
L 297.530208 143.663326 
L 301.961764 141.746587 
L 306.393323 143.01461 
L 310.824879 144.168316 
L 315.256437 145.205486 
L 319.687993 146.124455 
L 324.119551 146.923004 
L 328.551107 147.601132 
L 332.982661 148.156065 
L 337.414217 148.588913 
L 341.845776 148.897456 
L 346.277332 149.081693 
L 350.631818 149.141626 
" style="fill:none;stroke:#bf00bf;stroke-linecap:square;stroke-width:5;"/>
   </g>
   <g id="line2d_31">
    <path clip-path="url(#p3986a68a75)" d="M 46.268182 123.384405 
L 50.0949 123.545891 
L 53.921614 124.026463 
L 57.748333 124.813358 
L 61.575052 125.885489 
L 65.401766 127.217883 
L 69.228484 128.78224 
L 73.055203 130.549147 
L 76.881917 132.489193 
L 80.708635 134.575187 
L 84.535354 136.782156 
L 88.362068 139.086793 
L 92.188787 141.468566 
L 96.015505 141.427501 
L 99.842219 140.223296 
L 103.668938 138.940846 
L 107.495656 137.583479 
L 111.32237 136.813232 
L 115.149089 137.630094 
L 118.975808 138.389797 
L 122.802521 139.087903 
L 126.62924 139.720527 
L 130.455959 140.286004 
L 134.282673 140.781004 
L 138.109391 141.203863 
L 141.93611 141.552916 
L 145.762824 141.826498 
L 149.589542 142.024609 
L 153.416261 142.145584 
L 157.509957 142.189979 
L 157.730059 142.189979 
L 159.945862 142.249357 
L 162.161671 142.425826 
L 164.377474 142.71772 
L 166.593283 143.121157 
L 168.809087 143.63003 
L 171.024895 144.238237 
L 173.240699 144.938563 
L 175.456507 145.723793 
L 177.672311 146.585049 
L 179.888119 147.514562 
L 182.103923 148.504563 
L 184.319732 149.545618 
L 186.535535 150.631067 
L 188.751344 151.752032 
L 190.967147 152.901853 
L 193.182956 154.072207 
L 195.39876 155.255879 
L 197.614568 156.444546 
L 199.830372 157.628218 
L 202.04618 158.798018 
L 204.261984 159.940625 
L 206.477792 161.041612 
L 208.693596 162.081002 
L 210.909405 163.033822 
L 213.125208 163.870106 
L 215.341017 164.554894 
L 217.55682 165.055443 
L 219.772629 165.352333 
L 221.973642 165.447781 
L 222.193744 165.447781 
L 226.625302 165.114821 
L 231.056858 164.276872 
L 235.488416 163.119837 
L 239.919972 161.750817 
L 244.351531 160.229745 
L 248.783087 158.592137 
L 253.214645 156.859636 
L 257.646197 155.049999 
L 262.077755 153.17488 
L 266.509311 151.247043 
L 270.940869 149.277585 
L 275.372425 147.277606 
L 279.803984 145.258759 
L 284.23554 143.234363 
L 288.667098 141.217181 
L 293.09865 139.222197 
L 297.530208 140.367024 
L 301.961764 141.293207 
L 306.393323 138.933077 
L 310.824879 136.605687 
L 315.256437 134.33712 
L 319.687993 132.160118 
L 324.119551 130.11297 
L 328.551107 128.24229 
L 332.982661 126.600243 
L 337.414217 125.241767 
L 341.845776 124.223464 
L 346.277332 123.59306 
L 350.631818 123.384405 
" style="fill:none;stroke:#bf00bf;stroke-linecap:square;stroke-width:5;"/>
   </g>
   <g id="line2d_32">
    <path clip-path="url(#p3986a68a75)" d="M 46.268182 123.383296 
L 50.0949 123.469865 
L 53.921614 123.725689 
L 57.748333 124.140779 
L 61.575052 124.700707 
L 65.401766 125.387714 
L 69.228484 126.180713 
L 73.055203 127.059173 
L 76.881917 128.002559 
L 80.708635 128.99145 
L 84.535354 130.008087 
L 88.362068 131.037488 
L 92.188787 132.065224 
L 96.015505 133.079642 
L 99.842219 134.069643 
L 103.668938 135.026902 
L 107.495656 135.943652 
L 111.32237 136.155081 
L 115.149089 134.661756 
L 118.975808 133.110163 
L 122.802521 131.509736 
L 126.62924 129.873238 
L 130.455959 128.216763 
L 134.282673 126.565282 
L 138.109391 124.952091 
L 141.93611 123.426025 
L 145.762824 122.057005 
L 149.589542 120.93826 
L 153.416261 120.181331 
L 157.509957 119.888882 
L 157.730059 119.888882 
L 159.945862 119.873344 
L 162.161671 119.825619 
L 164.377474 119.746819 
L 166.593283 119.635832 
L 168.809087 119.493769 
L 171.024895 119.31952 
L 173.240699 119.114195 
L 175.456507 118.877239 
L 177.672311 118.609206 
L 179.888119 118.309542 
L 182.103923 117.978247 
L 184.319732 117.616431 
L 186.535535 117.222983 
L 188.751344 116.798459 
L 190.967147 116.342859 
L 193.182956 115.856738 
L 195.39876 115.33954 
L 197.614568 114.792376 
L 199.830372 114.214136 
L 202.04618 113.605929 
L 204.261984 112.967201 
L 206.477792 112.298506 
L 208.693596 111.600401 
L 210.909405 110.872328 
L 213.125208 110.1154 
L 215.341017 109.329614 
L 217.55682 108.514972 
L 219.772629 107.675359 
L 221.973642 106.810218 
L 222.193744 106.810218 
L 226.625302 108.6587 
L 231.056858 110.637037 
L 235.488416 112.716371 
L 239.919972 114.867292 
L 244.351531 117.062052 
L 248.783087 119.276236 
L 253.214645 121.487644 
L 257.646197 123.67741 
L 262.077755 125.828886 
L 266.509311 127.927643 
L 270.940869 129.963138 
L 275.372425 131.924271 
L 279.803984 133.80272 
L 284.23554 135.591824 
L 288.667098 137.28548 
L 293.09865 138.878693 
L 297.530208 137.265503 
L 301.961764 135.363192 
L 306.393323 133.534687 
L 310.824879 131.798301 
L 315.256437 130.173457 
L 319.687993 128.680687 
L 324.119551 127.339414 
L 328.551107 126.16795 
L 332.982661 125.184608 
L 337.414217 124.403263 
L 341.845776 123.837231 
L 346.277332 123.495392 
L 350.631818 123.383296 
" style="fill:none;stroke:#bf00bf;stroke-linecap:square;stroke-width:5;"/>
   </g>
   <g id="line2d_33">
    <path clip-path="url(#p3986a68a75)" d="M 46.268182 87.673349 
L 50.0949 87.620631 
L 53.921614 87.463584 
L 57.748333 87.201656 
L 61.575052 86.83429 
L 65.401766 86.362597 
L 69.228484 85.786022 
L 73.055203 85.104009 
L 76.881917 84.317669 
L 80.708635 83.426446 
L 84.535354 82.430896 
L 88.362068 81.331019 
L 92.188787 80.127369 
L 96.015505 78.819946 
L 99.842219 77.409306 
L 103.668938 75.896004 
L 107.495656 74.281703 
L 111.32237 73.389371 
L 115.149089 75.999221 
L 118.975808 78.639593 
L 122.802521 81.264427 
L 126.62924 83.845975 
L 130.455959 86.357048 
L 134.282673 88.765458 
L 138.109391 91.030695 
L 141.93611 93.098375 
L 145.762824 94.895804 
L 149.589542 96.325311 
L 153.416261 97.272027 
L 157.509957 97.634399 
L 157.730059 97.634399 
L 159.945862 97.637728 
L 162.161671 97.647717 
L 164.377474 97.66492 
L 166.593283 97.689892 
L 168.809087 97.724298 
L 171.024895 97.768693 
L 173.240699 97.824186 
L 175.456507 97.893552 
L 177.672311 97.977902 
L 179.888119 98.08001 
L 182.103923 98.20265 
L 184.319732 98.348043 
L 186.535535 98.519517 
L 188.751344 98.719293 
L 190.967147 98.951255 
L 193.182956 99.218733 
L 195.39876 99.523946 
L 197.614568 99.870224 
L 199.830372 100.260342 
L 202.04618 100.695965 
L 204.261984 101.179866 
L 206.477792 101.712602 
L 208.693596 102.295837 
L 210.909405 102.929016 
L 213.125208 103.612138 
L 215.341017 104.34354 
L 217.55682 105.121556 
L 219.772629 105.941193 
L 221.973642 106.800229 
L 222.193744 106.800229 
L 226.625302 104.970615 
L 231.056858 103.031123 
L 235.488416 100.98453 
L 239.919972 98.834164 
L 244.351531 96.584465 
L 248.783087 94.239318 
L 253.214645 91.804826 
L 257.646197 89.28543 
L 262.077755 86.688898 
L 266.509311 84.022444 
L 270.940869 81.295503 
L 275.372425 78.518063 
L 279.803984 75.702332 
L 284.23554 72.862184 
L 288.667098 73.93487 
L 293.09865 75.825527 
L 297.530208 77.577451 
L 301.961764 79.190641 
L 306.393323 80.664544 
L 310.824879 81.998048 
L 315.256437 83.191154 
L 319.687993 84.243862 
L 324.119551 85.156173 
L 328.551107 85.92753 
L 332.982661 86.557934 
L 337.414217 87.04794 
L 341.845776 87.396992 
L 346.277332 87.605647 
L 350.631818 87.673349 
" style="fill:none;stroke:#bf00bf;stroke-linecap:square;stroke-width:5;"/>
   </g>
   <g id="line2d_34">
    <path clip-path="url(#p3986a68a75)" d="M 46.268182 83.579053 
L 50.0949 83.525224 
L 53.921614 83.363184 
L 57.748333 83.094041 
L 61.575052 82.716687 
L 65.401766 82.231675 
L 69.228484 81.638451 
L 73.055203 80.937571 
L 76.881917 80.129033 
L 80.708635 79.212839 
L 84.535354 78.188432 
L 88.362068 77.056369 
L 92.188787 75.816648 
L 96.015505 74.46927 
L 99.842219 73.013681 
L 103.668938 71.450989 
L 107.495656 71.068085 
L 111.32237 72.567515 
L 115.149089 70.757878 
L 118.975808 68.863336 
L 122.802521 66.931614 
L 126.62924 65.42719 
L 130.455959 65.289567 
L 134.282673 65.463261 
L 138.109391 65.650828 
L 141.93611 65.817308 
L 145.762824 65.952157 
L 149.589542 66.050935 
L 153.416261 66.111978 
L 157.509957 66.134175 
L 157.730059 66.134175 
L 159.945862 66.054265 
L 162.161671 65.816198 
L 164.377474 65.421641 
L 166.593283 64.876142 
L 168.809087 64.184695 
L 171.024895 63.35396 
L 173.240699 62.392816 
L 175.456507 61.309586 
L 177.672311 60.112596 
L 179.888119 58.812387 
L 182.103923 57.41895 
L 184.319732 55.941718 
L 186.535535 54.39068 
L 188.751344 52.77749 
L 190.967147 51.113245 
L 193.182956 49.409046 
L 195.39876 47.678764 
L 197.614568 45.937939 
L 199.830372 45.171576 
L 202.04618 45.76702 
L 204.261984 46.321953 
L 206.477792 46.825832 
L 208.693596 47.271443 
L 210.909405 47.652127 
L 213.125208 47.964555 
L 215.341017 48.205396 
L 217.55682 48.375205 
L 219.772629 48.474538 
L 221.973642 48.506724 
L 222.193744 48.506724 
L 226.625302 48.387414 
L 231.056858 48.076096 
L 235.488416 47.680429 
L 239.919972 47.395748 
L 244.351531 47.900737 
L 248.783087 51.003923 
L 253.214645 54.027199 
L 257.646197 56.950032 
L 262.077755 59.760213 
L 266.509311 62.448864 
L 270.940869 65.01099 
L 275.372425 67.443262 
L 279.803984 69.74235 
L 284.23554 71.906589 
L 288.667098 70.013158 
L 293.09865 71.392721 
L 297.530208 73.197919 
L 301.961764 74.858279 
L 306.393323 76.374356 
L 310.824879 77.745596 
L 315.256437 78.971998 
L 319.687993 80.054117 
L 324.119551 80.991399 
L 328.551107 81.784399 
L 332.982661 82.432561 
L 337.414217 82.935885 
L 341.845776 83.294927 
L 346.277332 83.509131 
L 350.631818 83.579053 
" style="fill:none;stroke:#bf00bf;stroke-linecap:square;stroke-width:5;"/>
   </g>
   <g id="line2d_35">
    <path clip-path="url(#p3986a68a75)" d="M 46.268182 83.107914 
L 50.0949 83.054641 
L 53.921614 82.89482 
L 57.748333 82.627897 
L 61.575052 82.254982 
L 65.401766 81.77552 
L 69.228484 81.189511 
L 73.055203 80.497509 
L 76.881917 79.699515 
L 80.708635 78.796084 
L 84.535354 77.787216 
L 88.362068 76.67402 
L 92.188787 75.458716 
L 96.015505 74.14408 
L 99.842219 72.742319 
L 103.668938 71.321135 
L 107.495656 69.781195 
L 111.32237 68.004855 
L 115.149089 66.126406 
L 118.975808 64.303451 
L 122.802521 64.342296 
L 126.62924 64.018215 
L 130.455959 62.206913 
L 134.282673 59.956105 
L 138.109391 57.561568 
L 141.93611 55.05993 
L 145.762824 52.460623 
L 149.589542 49.772527 
L 153.416261 47.00674 
L 157.509957 44.318089 
L 157.730059 44.318089 
L 159.945862 44.303661 
L 162.161671 44.258711 
L 164.377474 44.184905 
L 166.593283 44.081133 
L 168.809087 43.947949 
L 171.024895 43.785908 
L 173.240699 43.595011 
L 175.456507 43.375813 
L 177.672311 43.128867 
L 179.888119 42.854176 
L 182.103923 42.553402 
L 184.319732 42.226546 
L 186.535535 41.875274 
L 188.751344 42.057847 
L 190.967147 42.645521 
L 193.182956 43.267601 
L 195.39876 43.906884 
L 197.614568 44.546722 
L 199.830372 44.204883 
L 202.04618 42.504013 
L 204.261984 40.868625 
L 206.477792 39.347553 
L 208.693596 38.013494 
L 210.909405 37.004071 
L 213.125208 36.501856 
L 215.341017 36.071783 
L 217.55682 35.68 
L 219.772629 35.332057 
L 221.973642 35.029064 
L 222.193744 35.029064 
L 226.625302 36.30097 
L 231.056858 38.70827 
L 235.488416 41.641092 
L 239.919972 44.755931 
L 244.351531 47.556124 
L 248.783087 48.549454 
L 253.214645 50.404596 
L 257.646197 52.756402 
L 262.077755 55.286897 
L 266.509311 57.834595 
L 270.940869 60.32569 
L 275.372425 62.726886 
L 279.803984 65.109768 
L 284.23554 67.348369 
L 288.667098 69.442686 
L 293.09865 71.114145 
L 297.530208 72.881052 
L 301.961764 74.510336 
L 306.393323 75.999776 
L 310.824879 77.349373 
L 315.256437 78.558573 
L 319.687993 79.625709 
L 324.119551 80.550783 
L 328.551107 81.333793 
L 332.982661 81.974186 
L 337.414217 82.471961 
L 341.845776 82.827118 
L 346.277332 83.039103 
L 350.631818 83.107914 
" style="fill:none;stroke:#bf00bf;stroke-linecap:square;stroke-width:5;"/>
   </g>
   <g id="line2d_36">
    <path clip-path="url(#p3986a68a75)" d="M 46.268182 77.475898 
L 50.0949 77.422625 
L 53.921614 77.262804 
L 57.748333 76.995881 
L 61.575052 76.622411 
L 65.401766 76.142394 
L 69.228484 75.555275 
L 73.055203 74.862718 
L 76.881917 74.063059 
L 80.708635 73.158518 
L 84.535354 72.147985 
L 88.362068 71.03368 
L 92.188787 69.818376 
L 96.015505 68.512063 
L 99.842219 67.202976 
L 103.668938 67.861127 
L 107.495656 69.006509 
L 111.32237 67.577001 
L 115.149089 65.778463 
L 118.975808 63.901124 
L 122.802521 61.994374 
L 126.62924 59.792954 
L 130.455959 57.477773 
L 134.282673 55.053825 
L 138.109391 52.579379 
L 141.93611 50.03501 
L 145.762824 47.404072 
L 149.589542 44.695999 
L 153.416261 41.939646 
L 157.509957 43.530639 
L 157.730059 43.530639 
L 159.945862 43.514546 
L 162.161671 43.466267 
L 164.377474 43.385802 
L 166.593283 43.273705 
L 168.809087 43.129422 
L 171.024895 42.953509 
L 173.240699 42.746519 
L 175.456507 42.507897 
L 177.672311 42.238755 
L 179.888119 41.939091 
L 182.103923 41.610016 
L 184.319732 41.250974 
L 186.535535 41.520116 
L 188.751344 41.499584 
L 190.967147 41.102252 
L 193.182956 40.683832 
L 195.39876 40.2471 
L 197.614568 39.794274 
L 199.830372 39.328131 
L 202.04618 38.851443 
L 204.261984 38.368651 
L 206.477792 37.883085 
L 208.693596 37.398073 
L 210.909405 36.850909 
L 213.125208 36.082327 
L 215.341017 35.492433 
L 217.55682 35.096765 
L 219.772629 34.918632 
L 221.973642 35.026289 
L 222.193744 35.026289 
L 226.625302 34.609534 
L 231.056858 34.448604 
L 235.488416 34.842606 
L 239.919972 38.489627 
L 244.351531 42.015117 
L 248.783087 45.402428 
L 253.214645 48.648787 
L 257.646197 51.751973 
L 262.077755 54.711432 
L 266.509311 57.527162 
L 270.940869 60.199165 
L 275.372425 62.724111 
L 279.803984 65.011545 
L 284.23554 67.175784 
L 288.667098 69.211834 
L 293.09865 67.17412 
L 297.530208 67.229613 
L 301.961764 68.863336 
L 306.393323 70.356661 
L 310.824879 71.709033 
L 315.256437 72.919897 
L 319.687993 73.988698 
L 324.119551 74.915437 
L 328.551107 75.699557 
L 332.982661 76.34106 
L 337.414217 76.83939 
L 341.845776 77.194547 
L 346.277332 77.407086 
L 350.631818 77.475898 
" style="fill:none;stroke:#bf00bf;stroke-linecap:square;stroke-width:5;"/>
   </g>
   <g id="line2d_37">
    <path clip-path="url(#p3986a68a75)" d="M 46.268182 74.402124 
L 50.0949 74.34885 
L 53.921614 74.189029 
L 57.748333 73.922661 
L 61.575052 73.549746 
L 65.401766 73.070839 
L 69.228484 72.48483 
L 73.055203 71.792828 
L 76.881917 70.994279 
L 80.708635 70.089738 
L 84.535354 69.07976 
L 88.362068 67.965454 
L 92.188787 66.749596 
L 96.015505 65.439399 
L 99.842219 65.032633 
L 103.668938 65.301775 
L 107.495656 63.751847 
L 111.32237 63.427766 
L 115.149089 63.757396 
L 118.975808 63.843411 
L 122.802521 61.795708 
L 126.62924 59.642012 
L 130.455959 57.386209 
L 134.282673 55.031073 
L 138.109391 52.521111 
L 141.93611 49.881294 
L 145.762824 47.133265 
L 149.589542 44.278689 
L 153.416261 41.324225 
L 157.509957 39.50238 
L 157.730059 39.50238 
L 159.945862 39.503489 
L 162.161671 39.507929 
L 164.377474 39.517918 
L 166.593283 39.53845 
L 168.809087 39.574521 
L 171.024895 39.634454 
L 173.240699 39.727127 
L 175.456507 39.864196 
L 177.672311 40.056203 
L 179.888119 40.312582 
L 182.103923 40.642212 
L 184.319732 41.045094 
L 186.535535 40.86363 
L 188.751344 40.447986 
L 190.967147 40.005149 
L 193.182956 39.535676 
L 195.39876 39.04012 
L 197.614568 38.518483 
L 199.830372 37.970209 
L 202.04618 37.392524 
L 204.261984 36.777658 
L 206.477792 36.109518 
L 208.693596 35.361469 
L 210.909405 34.517415 
L 213.125208 33.631742 
L 215.341017 32.830974 
L 217.55682 32.23886 
L 219.772629 31.915334 
L 221.973642 31.829319 
L 222.193744 31.829319 
L 226.625302 31.999129 
L 231.056858 32.434196 
L 235.488416 34.533508 
L 239.919972 36.368117 
L 244.351531 39.199386 
L 248.783087 41.718228 
L 253.214645 44.202663 
L 257.646197 46.80308 
L 262.077755 49.450666 
L 266.509311 52.062736 
L 270.940869 54.593786 
L 275.372425 57.018844 
L 279.803984 59.324036 
L 284.23554 61.501593 
L 288.667098 63.547077 
L 293.09865 65.457157 
L 297.530208 64.365048 
L 301.961764 65.780128 
L 306.393323 67.279557 
L 310.824879 68.635259 
L 315.256437 69.848342 
L 319.687993 70.918253 
L 324.119551 71.844992 
L 328.551107 72.628557 
L 332.982661 73.26895 
L 337.414217 73.766725 
L 341.845776 74.121327 
L 346.277332 74.333312 
L 350.631818 74.402124 
" style="fill:none;stroke:#bf00bf;stroke-linecap:square;stroke-width:5;"/>
   </g>
   <g id="line2d_38">
    <path clip-path="url(#p3986a68a75)" d="M 46.268182 65.419976 
L 50.0949 65.367257 
L 53.921614 65.208547 
L 57.748333 64.944398 
L 61.575052 64.574813 
L 65.401766 64.09979 
L 69.228484 63.51933 
L 73.055203 62.834543 
L 76.881917 62.045983 
L 80.708635 61.155315 
L 84.535354 60.972742 
L 88.362068 61.213583 
L 92.188787 61.497709 
L 96.015505 62.673612 
L 99.842219 64.070934 
L 103.668938 63.032654 
L 107.495656 63.110344 
L 111.32237 62.020456 
L 115.149089 60.171419 
L 118.975808 58.213615 
L 122.802521 56.149818 
L 126.62924 53.981695 
L 130.455959 51.710908 
L 134.282673 49.339124 
L 138.109391 46.868007 
L 141.93611 44.300331 
L 145.762824 41.642202 
L 149.589542 38.911931 
L 153.416261 40.754864 
L 157.509957 38.164991 
L 157.730059 38.164991 
L 159.945862 38.146678 
L 162.161671 38.092849 
L 164.377474 38.003505 
L 166.593283 37.87809 
L 168.809087 37.716605 
L 171.024895 37.519604 
L 173.240699 37.287087 
L 175.456507 37.018499 
L 177.672311 36.71495 
L 179.888119 36.375331 
L 182.103923 36.000197 
L 184.319732 35.588991 
L 186.535535 35.142825 
L 188.751344 34.660588 
L 190.967147 34.14339 
L 193.182956 33.590122 
L 195.39876 33.002448 
L 197.614568 32.383697 
L 199.830372 31.729431 
L 202.04618 31.040204 
L 204.261984 30.315462 
L 206.477792 29.555758 
L 208.693596 28.761094 
L 210.909405 27.932579 
L 213.125208 27.070213 
L 215.341017 26.175661 
L 217.55682 25.249477 
L 219.772629 24.294992 
L 221.973642 23.179577 
L 222.193744 23.180687 
L 226.625302 27.064663 
L 231.056858 30.956409 
L 235.488416 33.19168 
L 239.919972 34.832062 
L 244.351531 35.795426 
L 248.783087 37.674985 
L 253.214645 40.211584 
L 257.646197 43.095572 
L 262.077755 45.950147 
L 266.509311 48.697066 
L 270.940869 51.316906 
L 275.372425 53.803006 
L 279.803984 56.151483 
L 284.23554 58.360117 
L 288.667098 60.427798 
L 293.09865 62.354525 
L 297.530208 64.138635 
L 301.961764 61.60925 
L 306.393323 58.933363 
L 310.824879 59.720813 
L 315.256437 60.915029 
L 319.687993 61.970512 
L 324.119551 62.886706 
L 328.551107 63.661948 
L 332.982661 64.296236 
L 337.414217 64.789572 
L 341.845776 65.1414 
L 346.277332 65.351719 
L 350.631818 65.419976 
" style="fill:none;stroke:#bf00bf;stroke-linecap:square;stroke-width:5;"/>
   </g>
   <g id="line2d_39">
    <path clip-path="url(#p3986a68a75)" d="M 46.268182 61.8229 
L 50.0949 61.777395 
L 53.921614 61.642546 
L 57.748333 61.426677 
L 61.575052 61.15476 
L 65.401766 60.888947 
L 69.228484 60.711369 
L 73.055203 60.646996 
L 76.881917 60.677518 
L 80.708635 60.789614 
L 84.535354 60.170864 
L 88.362068 59.176424 
L 92.188787 60.306822 
L 96.015505 61.807916 
L 99.842219 62.094817 
L 103.668938 61.959413 
L 107.495656 60.606486 
L 111.32237 58.899512 
L 115.149089 57.053804 
L 118.975808 55.092671 
L 122.802521 53.022215 
L 126.62924 50.844658 
L 130.455959 48.560553 
L 134.282673 46.172121 
L 138.109391 43.679916 
L 141.93611 41.085049 
L 145.762824 38.392513 
L 149.589542 37.796515 
L 153.416261 36.444143 
L 157.509957 38.087855 
L 157.730059 38.087855 
L 159.945862 38.070652 
L 162.161671 38.018488 
L 164.377474 37.931919 
L 166.593283 37.809834 
L 168.809087 37.653342 
L 171.024895 37.461336 
L 173.240699 37.233813 
L 175.456507 36.97133 
L 177.672311 36.672776 
L 179.888119 36.338706 
L 182.103923 35.96912 
L 184.319732 35.564019 
L 186.535535 35.122847 
L 188.751344 34.64616 
L 190.967147 34.133957 
L 193.182956 33.586238 
L 195.39876 33.001893 
L 197.614568 32.378148 
L 199.830372 31.718333 
L 202.04618 31.023556 
L 204.261984 30.293819 
L 206.477792 29.528012 
L 208.693596 28.727243 
L 210.909405 27.891514 
L 213.125208 27.020824 
L 215.341017 26.115173 
L 217.55682 25.175671 
L 219.772629 24.203983 
L 221.973642 23.169588 
L 222.193744 23.169588 
L 226.625302 26.253351 
L 231.056858 29.773292 
L 235.488416 33.113989 
L 239.919972 34.291003 
L 244.351531 35.295986 
L 248.783087 36.289872 
L 253.214645 38.675529 
L 257.646197 40.647762 
L 262.077755 42.528985 
L 266.509311 44.361929 
L 270.940869 46.136605 
L 275.372425 47.84025 
L 279.803984 49.462874 
L 284.23554 50.99338 
L 288.667098 52.425107 
L 293.09865 53.750842 
L 297.530208 55.317974 
L 301.961764 56.920065 
L 306.393323 58.388418 
L 310.824879 57.940587 
L 315.256437 58.710835 
L 319.687993 59.380639 
L 324.119551 59.962764 
L 328.551107 60.472192 
L 332.982661 60.920023 
L 337.414217 61.298488 
L 341.845776 61.585943 
L 346.277332 61.763522 
L 350.631818 61.8229 
" style="fill:none;stroke:#bf00bf;stroke-linecap:square;stroke-width:5;"/>
   </g>
   <g id="line2d_40">
    <path clip-path="url(#p3986a68a75)" d="M 46.268182 60.830679 
L 50.0949 60.799603 
L 53.921614 60.711923 
L 57.748333 60.57097 
L 61.575052 60.375634 
L 65.401766 60.084849 
L 69.228484 59.637573 
L 73.055203 59.026592 
L 76.881917 58.276877 
L 80.708635 57.405632 
L 84.535354 56.419516 
L 88.362068 57.727493 
L 92.188787 57.726383 
L 96.015505 56.460026 
L 99.842219 55.053825 
L 103.668938 53.538858 
L 107.495656 51.919008 
L 111.32237 50.197606 
L 115.149089 48.376315 
L 118.975808 46.456246 
L 122.802521 44.440729 
L 126.62924 42.333093 
L 130.455959 40.137778 
L 134.282673 37.864772 
L 138.109391 35.530168 
L 141.93611 33.19168 
L 145.762824 34.761586 
L 149.589542 35.575118 
L 153.416261 35.169462 
L 157.509957 37.96355 
L 157.730059 37.96355 
L 159.945862 37.944682 
L 162.161671 37.889189 
L 164.377474 37.79596 
L 166.593283 37.665551 
L 168.809087 37.498516 
L 171.024895 37.294856 
L 173.240699 37.055124 
L 175.456507 36.778213 
L 177.672311 36.465786 
L 179.888119 36.116733 
L 182.103923 35.731609 
L 184.319732 35.310415 
L 186.535535 34.85315 
L 188.751344 34.359814 
L 190.967147 33.830963 
L 193.182956 33.266041 
L 195.39876 32.665603 
L 197.614568 32.02965 
L 199.830372 31.358181 
L 202.04618 30.650641 
L 204.261984 29.908141 
L 206.477792 29.13068 
L 208.693596 28.318257 
L 210.909405 27.471429 
L 213.125208 26.591306 
L 215.341017 25.678995 
L 217.55682 24.736164 
L 219.772629 23.768361 
L 221.973642 23.166813 
L 222.193744 23.167923 
L 226.625302 21.256733 
L 231.056858 24.558031 
L 235.488416 27.952556 
L 239.919972 31.119005 
L 244.351531 33.833183 
L 248.783087 35.881996 
L 253.214645 36.903073 
L 257.646197 37.825372 
L 262.077755 39.235457 
L 266.509311 41.152196 
L 270.940869 43.303671 
L 275.372425 45.505646 
L 279.803984 47.66933 
L 284.23554 49.750884 
L 288.667098 51.727001 
L 293.09865 53.585472 
L 297.530208 54.967256 
L 301.961764 56.071018 
L 306.393323 57.062128 
L 310.824879 56.366242 
L 315.256437 56.997201 
L 319.687993 58.014394 
L 324.119551 58.871765 
L 328.551107 59.558772 
L 332.982661 60.073195 
L 337.414217 60.430572 
L 341.845776 60.661425 
L 346.277332 60.790169 
L 350.631818 60.830679 
" style="fill:none;stroke:#bf00bf;stroke-linecap:square;stroke-width:5;"/>
   </g>
   <g id="line2d_41">
    <path clip-path="url(#p3986a68a75)" d="M 46.268182 60.830124 
L 50.0949 60.65976 
L 53.921614 60.151441 
L 57.748333 59.313492 
L 61.575052 58.163671 
L 65.401766 56.721399 
L 69.228484 55.008876 
L 73.055203 53.048297 
L 76.881917 51.566071 
L 80.708635 53.516106 
L 84.535354 55.604874 
L 88.362068 55.322413 
L 92.188787 54.117098 
L 96.015505 52.803572 
L 99.842219 51.383498 
L 103.668938 49.857432 
L 107.495656 48.225928 
L 111.32237 46.489542 
L 115.149089 44.648829 
L 118.975808 42.704344 
L 122.802521 40.657195 
L 126.62924 38.507384 
L 130.455959 36.257686 
L 134.282673 33.909209 
L 138.109391 31.469723 
L 141.93611 31.753848 
L 145.762824 31.308792 
L 149.589542 32.752728 
L 153.416261 34.615638 
L 157.509957 33.249393 
L 157.730059 33.249393 
L 159.945862 33.241069 
L 162.161671 33.214987 
L 164.377474 33.172257 
L 166.593283 33.112325 
L 168.809087 33.035744 
L 171.024895 32.94196 
L 173.240699 32.830419 
L 175.456507 32.699454 
L 177.672311 32.545738 
L 179.888119 32.365385 
L 182.103923 32.15562 
L 184.319732 31.90812 
L 186.535535 31.619555 
L 188.751344 31.286595 
L 190.967147 30.90702 
L 193.182956 30.479722 
L 195.39876 30.004699 
L 197.614568 29.483062 
L 199.830372 28.916475 
L 202.04618 28.306049 
L 204.261984 27.653448 
L 206.477792 26.962556 
L 208.693596 26.235593 
L 210.909405 25.478665 
L 213.125208 24.699539 
L 215.341017 23.919303 
L 217.55682 23.19012 
L 219.772629 22.718982 
L 221.973642 23.132407 
L 222.193744 23.132962 
L 226.625302 21.107456 
L 231.056858 23.316645 
L 235.488416 26.574658 
L 239.919972 29.953645 
L 244.351531 33.253833 
L 248.783087 35.782108 
L 253.214645 36.55513 
L 257.646197 37.288751 
L 262.077755 38.064548 
L 266.509311 38.871976 
L 270.940869 39.701046 
L 275.372425 41.272616 
L 279.803984 43.584468 
L 284.23554 45.758141 
L 288.667098 47.792525 
L 293.09865 49.685402 
L 297.530208 51.436216 
L 301.961764 53.044413 
L 306.393323 54.508326 
L 310.824879 55.826847 
L 315.256437 53.938965 
L 319.687993 52.48726 
L 324.119551 54.22864 
L 328.551107 55.943383 
L 332.982661 57.534376 
L 337.414217 58.901177 
L 341.845776 59.951665 
L 346.277332 60.610926 
L 350.631818 60.830124 
" style="fill:none;stroke:#bf00bf;stroke-linecap:square;stroke-width:5;"/>
   </g>
   <g id="line2d_42">
    <path clip-path="url(#p3986a68a75)" d="M 46.268182 48.807498 
L 50.0949 48.755334 
L 53.921614 48.599953 
L 57.748333 48.341354 
L 61.575052 47.978983 
L 65.401766 47.518388 
L 69.228484 48.188748 
L 73.055203 49.782516 
L 76.881917 50.864635 
L 80.708635 48.479533 
L 84.535354 45.915187 
L 88.362068 42.56783 
L 92.188787 41.392482 
L 96.015505 40.12002 
L 99.842219 38.751555 
L 103.668938 37.290971 
L 107.495656 35.740488 
L 111.32237 34.1051 
L 115.149089 32.392021 
L 118.975808 30.612351 
L 122.802521 28.785511 
L 126.62924 26.948682 
L 130.455959 25.201198 
L 134.282673 25.924831 
L 138.109391 28.75721 
L 141.93611 28.902047 
L 145.762824 28.733902 
L 149.589542 31.318226 
L 153.416261 32.690021 
L 157.509957 32.323765 
L 157.730059 32.323765 
L 159.945862 32.306007 
L 162.161671 32.251623 
L 164.377474 32.161724 
L 166.593283 32.035199 
L 168.809087 31.873159 
L 171.024895 31.675048 
L 173.240699 31.440866 
L 175.456507 31.171169 
L 177.672311 30.8654 
L 179.888119 30.524117 
L 182.103923 30.147317 
L 184.319732 29.733892 
L 186.535535 29.284951 
L 188.751344 28.800494 
L 190.967147 28.280522 
L 193.182956 27.724479 
L 195.39876 27.132365 
L 197.614568 26.505291 
L 199.830372 25.842146 
L 202.04618 25.143485 
L 204.261984 24.409309 
L 206.477792 23.639616 
L 208.693596 22.834408 
L 210.909405 21.99424 
L 213.125208 21.12022 
L 215.341017 20.216234 
L 217.55682 19.509249 
L 219.772629 19.919345 
L 221.973642 22.86493 
L 222.193744 20.715674 
L 226.625302 21.035315 
L 231.056858 19.065857 
L 235.488416 17.083636 
L 239.919972 19.904361 
L 244.351531 22.886017 
L 248.783087 25.631271 
L 253.214645 27.887074 
L 257.646197 30.694481 
L 262.077755 33.529634 
L 266.509311 36.241593 
L 270.940869 38.823696 
L 275.372425 40.551203 
L 279.803984 41.424668 
L 284.23554 42.326989 
L 288.667098 43.268711 
L 293.09865 44.265371 
L 297.530208 45.338056 
L 301.961764 46.50841 
L 306.393323 47.800295 
L 310.824879 49.232022 
L 315.256437 50.803593 
L 319.687993 51.683717 
L 324.119551 49.638788 
L 328.551107 47.085541 
L 332.982661 47.706511 
L 337.414217 48.189303 
L 341.845776 48.533916 
L 346.277332 48.740351 
L 350.631818 48.807498 
" style="fill:none;stroke:#bf00bf;stroke-linecap:square;stroke-width:5;"/>
   </g>
   <g id="line2d_43">
    <path clip-path="url(#p3986a68a75)" d="M 46.268182 214.756364 
L 50.0949 214.717518 
L 53.921614 214.601537 
L 57.748333 214.407311 
L 61.575052 214.135948 
L 65.401766 213.78745 
L 69.228484 213.361817 
L 73.055203 212.859047 
L 76.881917 212.279142 
L 80.708635 211.623211 
L 84.535354 210.891254 
L 88.362068 210.083827 
L 92.188787 209.200373 
L 96.015505 208.242559 
L 99.842219 207.210383 
L 103.668938 206.104401 
L 107.495656 204.925723 
L 111.32237 203.674904 
L 115.149089 202.353053 
L 118.975808 200.962391 
L 122.802521 199.502917 
L 126.62924 197.977406 
L 130.455959 196.389187 
L 134.282673 194.742146 
L 138.109391 193.042386 
L 141.93611 191.302115 
L 145.762824 189.544087 
L 149.589542 187.825459 
L 153.416261 186.314376 
L 157.509957 185.53747 
L 157.730059 185.53747 
L 159.945862 185.526371 
L 162.161671 185.493075 
L 164.377474 185.437582 
L 166.593283 185.359891 
L 168.809087 185.260003 
L 171.024895 185.137918 
L 173.240699 184.993636 
L 175.456507 184.827156 
L 177.672311 184.638478 
L 179.888119 184.427604 
L 182.103923 184.194532 
L 184.319732 183.939818 
L 186.535535 183.662351 
L 188.751344 183.363242 
L 190.967147 183.041936 
L 193.182956 182.698987 
L 195.39876 182.333286 
L 197.614568 181.945943 
L 199.830372 181.536957 
L 202.04618 181.105774 
L 204.261984 180.652394 
L 206.477792 180.177371 
L 208.693596 179.680706 
L 210.909405 179.162398 
L 213.125208 178.622448 
L 215.341017 178.060856 
L 217.55682 177.478731 
L 219.772629 176.876629 
L 221.973642 176.252884 
L 222.193744 176.252884 
L 226.625302 177.797263 
L 231.056858 179.716776 
L 235.488416 181.820528 
L 239.919972 183.997531 
L 244.351531 186.185632 
L 248.783087 188.350426 
L 253.214645 190.469161 
L 257.646197 192.527963 
L 262.077755 194.517398 
L 266.509311 196.430252 
L 270.940869 198.260977 
L 275.372425 200.005686 
L 279.803984 201.661052 
L 284.23554 203.224298 
L 288.667098 204.693206 
L 293.09865 206.066666 
L 297.530208 207.343012 
L 301.961764 208.52058 
L 306.393323 209.59826 
L 310.824879 210.575497 
L 315.256437 211.451737 
L 319.687993 212.225869 
L 324.119551 212.897338 
L 328.551107 213.466144 
L 332.982661 213.931733 
L 337.414217 214.294104 
L 341.845776 214.552148 
L 346.277332 214.70642 
L 350.631818 214.756364 
" style="fill:none;stroke:#ffffff;stroke-dasharray:3.7,1.6;stroke-dashoffset:0;"/>
   </g>
   <g id="line2d_44">
    <path clip-path="url(#p3986a68a75)" d="M 46.268182 149.141626 
L 50.0949 149.095567 
L 53.921614 148.956279 
L 57.748333 148.724317 
L 61.575052 148.400236 
L 65.401766 147.984036 
L 69.228484 147.476272 
L 73.055203 146.877499 
L 76.881917 146.188272 
L 80.708635 145.409701 
L 84.535354 144.542895 
L 88.362068 143.58952 
L 92.188787 142.550131 
L 96.015505 143.909162 
L 99.842219 146.393043 
L 103.668938 148.90578 
L 107.495656 151.43461 
L 111.32237 153.968435 
L 115.149089 156.498375 
L 118.975808 159.014441 
L 122.802521 161.509421 
L 126.62924 163.974989 
L 130.455959 166.404486 
L 134.282673 168.789033 
L 138.109391 171.119198 
L 141.93611 173.38055 
L 145.762824 175.548119 
L 149.589542 177.562526 
L 153.416261 179.254517 
L 157.509957 180.097461 
L 157.730059 180.097461 
L 159.945862 180.086362 
L 162.161671 180.052511 
L 164.377474 179.996463 
L 166.593283 179.918217 
L 168.809087 179.818329 
L 171.024895 179.696244 
L 173.240699 179.552516 
L 175.456507 179.387701 
L 177.672311 179.201799 
L 179.888119 178.995918 
L 182.103923 178.770615 
L 184.319732 178.526445 
L 186.535535 178.265071 
L 188.751344 177.98705 
L 190.967147 177.694045 
L 193.182956 177.388832 
L 195.39876 177.07363 
L 197.614568 176.752324 
L 199.830372 176.429908 
L 202.04618 176.111931 
L 204.261984 175.808382 
L 206.477792 175.531471 
L 208.693596 175.296734 
L 210.909405 175.12748 
L 213.125208 175.052009 
L 215.341017 175.103062 
L 217.55682 175.310607 
L 219.772629 175.691292 
L 221.973642 176.24567 
L 222.193744 176.24567 
L 226.625302 174.928259 
L 231.056858 173.526497 
L 235.488416 172.040387 
L 239.919972 170.471591 
L 244.351531 168.821774 
L 248.783087 167.091493 
L 253.214645 165.282966 
L 257.646197 163.398413 
L 262.077755 161.440054 
L 266.509311 159.411219 
L 270.940869 157.315791 
L 275.372425 155.157656 
L 279.803984 152.942918 
L 284.23554 150.677126 
L 288.667098 148.368604 
L 293.09865 146.026787 
L 297.530208 143.663326 
L 301.961764 141.746587 
L 306.393323 143.01461 
L 310.824879 144.168316 
L 315.256437 145.205486 
L 319.687993 146.124455 
L 324.119551 146.923004 
L 328.551107 147.601132 
L 332.982661 148.156065 
L 337.414217 148.588913 
L 341.845776 148.897456 
L 346.277332 149.081693 
L 350.631818 149.141626 
" style="fill:none;stroke:#ffffff;stroke-dasharray:3.7,1.6;stroke-dashoffset:0;"/>
   </g>
   <g id="line2d_45">
    <path clip-path="url(#p3986a68a75)" d="M 46.268182 123.384405 
L 50.0949 123.545891 
L 53.921614 124.026463 
L 57.748333 124.813358 
L 61.575052 125.885489 
L 65.401766 127.217883 
L 69.228484 128.78224 
L 73.055203 130.549147 
L 76.881917 132.489193 
L 80.708635 134.575187 
L 84.535354 136.782156 
L 88.362068 139.086793 
L 92.188787 141.468566 
L 96.015505 141.427501 
L 99.842219 140.223296 
L 103.668938 138.940846 
L 107.495656 137.583479 
L 111.32237 136.813232 
L 115.149089 137.630094 
L 118.975808 138.389797 
L 122.802521 139.087903 
L 126.62924 139.720527 
L 130.455959 140.286004 
L 134.282673 140.781004 
L 138.109391 141.203863 
L 141.93611 141.552916 
L 145.762824 141.826498 
L 149.589542 142.024609 
L 153.416261 142.145584 
L 157.509957 142.189979 
L 157.730059 142.189979 
L 159.945862 142.249357 
L 162.161671 142.425826 
L 164.377474 142.71772 
L 166.593283 143.121157 
L 168.809087 143.63003 
L 171.024895 144.238237 
L 173.240699 144.938563 
L 175.456507 145.723793 
L 177.672311 146.585049 
L 179.888119 147.514562 
L 182.103923 148.504563 
L 184.319732 149.545618 
L 186.535535 150.631067 
L 188.751344 151.752032 
L 190.967147 152.901853 
L 193.182956 154.072207 
L 195.39876 155.255879 
L 197.614568 156.444546 
L 199.830372 157.628218 
L 202.04618 158.798018 
L 204.261984 159.940625 
L 206.477792 161.041612 
L 208.693596 162.081002 
L 210.909405 163.033822 
L 213.125208 163.870106 
L 215.341017 164.554894 
L 217.55682 165.055443 
L 219.772629 165.352333 
L 221.973642 165.447781 
L 222.193744 165.447781 
L 226.625302 165.114821 
L 231.056858 164.276872 
L 235.488416 163.119837 
L 239.919972 161.750817 
L 244.351531 160.229745 
L 248.783087 158.592137 
L 253.214645 156.859636 
L 257.646197 155.049999 
L 262.077755 153.17488 
L 266.509311 151.247043 
L 270.940869 149.277585 
L 275.372425 147.277606 
L 279.803984 145.258759 
L 284.23554 143.234363 
L 288.667098 141.217181 
L 293.09865 139.222197 
L 297.530208 140.367024 
L 301.961764 141.293207 
L 306.393323 138.933077 
L 310.824879 136.605687 
L 315.256437 134.33712 
L 319.687993 132.160118 
L 324.119551 130.11297 
L 328.551107 128.24229 
L 332.982661 126.600243 
L 337.414217 125.241767 
L 341.845776 124.223464 
L 346.277332 123.59306 
L 350.631818 123.384405 
" style="fill:none;stroke:#ffffff;stroke-dasharray:3.7,1.6;stroke-dashoffset:0;"/>
   </g>
   <g id="line2d_46">
    <path clip-path="url(#p3986a68a75)" d="M 46.268182 123.383296 
L 50.0949 123.469865 
L 53.921614 123.725689 
L 57.748333 124.140779 
L 61.575052 124.700707 
L 65.401766 125.387714 
L 69.228484 126.180713 
L 73.055203 127.059173 
L 76.881917 128.002559 
L 80.708635 128.99145 
L 84.535354 130.008087 
L 88.362068 131.037488 
L 92.188787 132.065224 
L 96.015505 133.079642 
L 99.842219 134.069643 
L 103.668938 135.026902 
L 107.495656 135.943652 
L 111.32237 136.155081 
L 115.149089 134.661756 
L 118.975808 133.110163 
L 122.802521 131.509736 
L 126.62924 129.873238 
L 130.455959 128.216763 
L 134.282673 126.565282 
L 138.109391 124.952091 
L 141.93611 123.426025 
L 145.762824 122.057005 
L 149.589542 120.93826 
L 153.416261 120.181331 
L 157.509957 119.888882 
L 157.730059 119.888882 
L 159.945862 119.873344 
L 162.161671 119.825619 
L 164.377474 119.746819 
L 166.593283 119.635832 
L 168.809087 119.493769 
L 171.024895 119.31952 
L 173.240699 119.114195 
L 175.456507 118.877239 
L 177.672311 118.609206 
L 179.888119 118.309542 
L 182.103923 117.978247 
L 184.319732 117.616431 
L 186.535535 117.222983 
L 188.751344 116.798459 
L 190.967147 116.342859 
L 193.182956 115.856738 
L 195.39876 115.33954 
L 197.614568 114.792376 
L 199.830372 114.214136 
L 202.04618 113.605929 
L 204.261984 112.967201 
L 206.477792 112.298506 
L 208.693596 111.600401 
L 210.909405 110.872328 
L 213.125208 110.1154 
L 215.341017 109.329614 
L 217.55682 108.514972 
L 219.772629 107.675359 
L 221.973642 106.810218 
L 222.193744 106.810218 
L 226.625302 108.6587 
L 231.056858 110.637037 
L 235.488416 112.716371 
L 239.919972 114.867292 
L 244.351531 117.062052 
L 248.783087 119.276236 
L 253.214645 121.487644 
L 257.646197 123.67741 
L 262.077755 125.828886 
L 266.509311 127.927643 
L 270.940869 129.963138 
L 275.372425 131.924271 
L 279.803984 133.80272 
L 284.23554 135.591824 
L 288.667098 137.28548 
L 293.09865 138.878693 
L 297.530208 137.265503 
L 301.961764 135.363192 
L 306.393323 133.534687 
L 310.824879 131.798301 
L 315.256437 130.173457 
L 319.687993 128.680687 
L 324.119551 127.339414 
L 328.551107 126.16795 
L 332.982661 125.184608 
L 337.414217 124.403263 
L 341.845776 123.837231 
L 346.277332 123.495392 
L 350.631818 123.383296 
" style="fill:none;stroke:#ffffff;stroke-dasharray:3.7,1.6;stroke-dashoffset:0;"/>
   </g>
   <g id="line2d_47">
    <path clip-path="url(#p3986a68a75)" d="M 46.268182 87.673349 
L 50.0949 87.620631 
L 53.921614 87.463584 
L 57.748333 87.201656 
L 61.575052 86.83429 
L 65.401766 86.362597 
L 69.228484 85.786022 
L 73.055203 85.104009 
L 76.881917 84.317669 
L 80.708635 83.426446 
L 84.535354 82.430896 
L 88.362068 81.331019 
L 92.188787 80.127369 
L 96.015505 78.819946 
L 99.842219 77.409306 
L 103.668938 75.896004 
L 107.495656 74.281703 
L 111.32237 73.389371 
L 115.149089 75.999221 
L 118.975808 78.639593 
L 122.802521 81.264427 
L 126.62924 83.845975 
L 130.455959 86.357048 
L 134.282673 88.765458 
L 138.109391 91.030695 
L 141.93611 93.098375 
L 145.762824 94.895804 
L 149.589542 96.325311 
L 153.416261 97.272027 
L 157.509957 97.634399 
L 157.730059 97.634399 
L 159.945862 97.637728 
L 162.161671 97.647717 
L 164.377474 97.66492 
L 166.593283 97.689892 
L 168.809087 97.724298 
L 171.024895 97.768693 
L 173.240699 97.824186 
L 175.456507 97.893552 
L 177.672311 97.977902 
L 179.888119 98.08001 
L 182.103923 98.20265 
L 184.319732 98.348043 
L 186.535535 98.519517 
L 188.751344 98.719293 
L 190.967147 98.951255 
L 193.182956 99.218733 
L 195.39876 99.523946 
L 197.614568 99.870224 
L 199.830372 100.260342 
L 202.04618 100.695965 
L 204.261984 101.179866 
L 206.477792 101.712602 
L 208.693596 102.295837 
L 210.909405 102.929016 
L 213.125208 103.612138 
L 215.341017 104.34354 
L 217.55682 105.121556 
L 219.772629 105.941193 
L 221.973642 106.800229 
L 222.193744 106.800229 
L 226.625302 104.970615 
L 231.056858 103.031123 
L 235.488416 100.98453 
L 239.919972 98.834164 
L 244.351531 96.584465 
L 248.783087 94.239318 
L 253.214645 91.804826 
L 257.646197 89.28543 
L 262.077755 86.688898 
L 266.509311 84.022444 
L 270.940869 81.295503 
L 275.372425 78.518063 
L 279.803984 75.702332 
L 284.23554 72.862184 
L 288.667098 73.93487 
L 293.09865 75.825527 
L 297.530208 77.577451 
L 301.961764 79.190641 
L 306.393323 80.664544 
L 310.824879 81.998048 
L 315.256437 83.191154 
L 319.687993 84.243862 
L 324.119551 85.156173 
L 328.551107 85.92753 
L 332.982661 86.557934 
L 337.414217 87.04794 
L 341.845776 87.396992 
L 346.277332 87.605647 
L 350.631818 87.673349 
" style="fill:none;stroke:#ffffff;stroke-dasharray:3.7,1.6;stroke-dashoffset:0;"/>
   </g>
   <g id="line2d_48">
    <path clip-path="url(#p3986a68a75)" d="M 46.268182 83.579053 
L 50.0949 83.525224 
L 53.921614 83.363184 
L 57.748333 83.094041 
L 61.575052 82.716687 
L 65.401766 82.231675 
L 69.228484 81.638451 
L 73.055203 80.937571 
L 76.881917 80.129033 
L 80.708635 79.212839 
L 84.535354 78.188432 
L 88.362068 77.056369 
L 92.188787 75.816648 
L 96.015505 74.46927 
L 99.842219 73.013681 
L 103.668938 71.450989 
L 107.495656 71.068085 
L 111.32237 72.567515 
L 115.149089 70.757878 
L 118.975808 68.863336 
L 122.802521 66.931614 
L 126.62924 65.42719 
L 130.455959 65.289567 
L 134.282673 65.463261 
L 138.109391 65.650828 
L 141.93611 65.817308 
L 145.762824 65.952157 
L 149.589542 66.050935 
L 153.416261 66.111978 
L 157.509957 66.134175 
L 157.730059 66.134175 
L 159.945862 66.054265 
L 162.161671 65.816198 
L 164.377474 65.421641 
L 166.593283 64.876142 
L 168.809087 64.184695 
L 171.024895 63.35396 
L 173.240699 62.392816 
L 175.456507 61.309586 
L 177.672311 60.112596 
L 179.888119 58.812387 
L 182.103923 57.41895 
L 184.319732 55.941718 
L 186.535535 54.39068 
L 188.751344 52.77749 
L 190.967147 51.113245 
L 193.182956 49.409046 
L 195.39876 47.678764 
L 197.614568 45.937939 
L 199.830372 45.171576 
L 202.04618 45.76702 
L 204.261984 46.321953 
L 206.477792 46.825832 
L 208.693596 47.271443 
L 210.909405 47.652127 
L 213.125208 47.964555 
L 215.341017 48.205396 
L 217.55682 48.375205 
L 219.772629 48.474538 
L 221.973642 48.506724 
L 222.193744 48.506724 
L 226.625302 48.387414 
L 231.056858 48.076096 
L 235.488416 47.680429 
L 239.919972 47.395748 
L 244.351531 47.900737 
L 248.783087 51.003923 
L 253.214645 54.027199 
L 257.646197 56.950032 
L 262.077755 59.760213 
L 266.509311 62.448864 
L 270.940869 65.01099 
L 275.372425 67.443262 
L 279.803984 69.74235 
L 284.23554 71.906589 
L 288.667098 70.013158 
L 293.09865 71.392721 
L 297.530208 73.197919 
L 301.961764 74.858279 
L 306.393323 76.374356 
L 310.824879 77.745596 
L 315.256437 78.971998 
L 319.687993 80.054117 
L 324.119551 80.991399 
L 328.551107 81.784399 
L 332.982661 82.432561 
L 337.414217 82.935885 
L 341.845776 83.294927 
L 346.277332 83.509131 
L 350.631818 83.579053 
" style="fill:none;stroke:#ffffff;stroke-dasharray:3.7,1.6;stroke-dashoffset:0;"/>
   </g>
   <g id="line2d_49">
    <path clip-path="url(#p3986a68a75)" d="M 46.268182 83.107914 
L 50.0949 83.054641 
L 53.921614 82.89482 
L 57.748333 82.627897 
L 61.575052 82.254982 
L 65.401766 81.77552 
L 69.228484 81.189511 
L 73.055203 80.497509 
L 76.881917 79.699515 
L 80.708635 78.796084 
L 84.535354 77.787216 
L 88.362068 76.67402 
L 92.188787 75.458716 
L 96.015505 74.14408 
L 99.842219 72.742319 
L 103.668938 71.321135 
L 107.495656 69.781195 
L 111.32237 68.004855 
L 115.149089 66.126406 
L 118.975808 64.303451 
L 122.802521 64.342296 
L 126.62924 64.018215 
L 130.455959 62.206913 
L 134.282673 59.956105 
L 138.109391 57.561568 
L 141.93611 55.05993 
L 145.762824 52.460623 
L 149.589542 49.772527 
L 153.416261 47.00674 
L 157.509957 44.318089 
L 157.730059 44.318089 
L 159.945862 44.303661 
L 162.161671 44.258711 
L 164.377474 44.184905 
L 166.593283 44.081133 
L 168.809087 43.947949 
L 171.024895 43.785908 
L 173.240699 43.595011 
L 175.456507 43.375813 
L 177.672311 43.128867 
L 179.888119 42.854176 
L 182.103923 42.553402 
L 184.319732 42.226546 
L 186.535535 41.875274 
L 188.751344 42.057847 
L 190.967147 42.645521 
L 193.182956 43.267601 
L 195.39876 43.906884 
L 197.614568 44.546722 
L 199.830372 44.204883 
L 202.04618 42.504013 
L 204.261984 40.868625 
L 206.477792 39.347553 
L 208.693596 38.013494 
L 210.909405 37.004071 
L 213.125208 36.501856 
L 215.341017 36.071783 
L 217.55682 35.68 
L 219.772629 35.332057 
L 221.973642 35.029064 
L 222.193744 35.029064 
L 226.625302 36.30097 
L 231.056858 38.70827 
L 235.488416 41.641092 
L 239.919972 44.755931 
L 244.351531 47.556124 
L 248.783087 48.549454 
L 253.214645 50.404596 
L 257.646197 52.756402 
L 262.077755 55.286897 
L 266.509311 57.834595 
L 270.940869 60.32569 
L 275.372425 62.726886 
L 279.803984 65.109768 
L 284.23554 67.348369 
L 288.667098 69.442686 
L 293.09865 71.114145 
L 297.530208 72.881052 
L 301.961764 74.510336 
L 306.393323 75.999776 
L 310.824879 77.349373 
L 315.256437 78.558573 
L 319.687993 79.625709 
L 324.119551 80.550783 
L 328.551107 81.333793 
L 332.982661 81.974186 
L 337.414217 82.471961 
L 341.845776 82.827118 
L 346.277332 83.039103 
L 350.631818 83.107914 
" style="fill:none;stroke:#ffffff;stroke-dasharray:3.7,1.6;stroke-dashoffset:0;"/>
   </g>
   <g id="line2d_50">
    <path clip-path="url(#p3986a68a75)" d="M 46.268182 77.475898 
L 50.0949 77.422625 
L 53.921614 77.262804 
L 57.748333 76.995881 
L 61.575052 76.622411 
L 65.401766 76.142394 
L 69.228484 75.555275 
L 73.055203 74.862718 
L 76.881917 74.063059 
L 80.708635 73.158518 
L 84.535354 72.147985 
L 88.362068 71.03368 
L 92.188787 69.818376 
L 96.015505 68.512063 
L 99.842219 67.202976 
L 103.668938 67.861127 
L 107.495656 69.006509 
L 111.32237 67.577001 
L 115.149089 65.778463 
L 118.975808 63.901124 
L 122.802521 61.994374 
L 126.62924 59.792954 
L 130.455959 57.477773 
L 134.282673 55.053825 
L 138.109391 52.579379 
L 141.93611 50.03501 
L 145.762824 47.404072 
L 149.589542 44.695999 
L 153.416261 41.939646 
L 157.509957 43.530639 
L 157.730059 43.530639 
L 159.945862 43.514546 
L 162.161671 43.466267 
L 164.377474 43.385802 
L 166.593283 43.273705 
L 168.809087 43.129422 
L 171.024895 42.953509 
L 173.240699 42.746519 
L 175.456507 42.507897 
L 177.672311 42.238755 
L 179.888119 41.939091 
L 182.103923 41.610016 
L 184.319732 41.250974 
L 186.535535 41.520116 
L 188.751344 41.499584 
L 190.967147 41.102252 
L 193.182956 40.683832 
L 195.39876 40.2471 
L 197.614568 39.794274 
L 199.830372 39.328131 
L 202.04618 38.851443 
L 204.261984 38.368651 
L 206.477792 37.883085 
L 208.693596 37.398073 
L 210.909405 36.850909 
L 213.125208 36.082327 
L 215.341017 35.492433 
L 217.55682 35.096765 
L 219.772629 34.918632 
L 221.973642 35.026289 
L 222.193744 35.026289 
L 226.625302 34.609534 
L 231.056858 34.448604 
L 235.488416 34.842606 
L 239.919972 38.489627 
L 244.351531 42.015117 
L 248.783087 45.402428 
L 253.214645 48.648787 
L 257.646197 51.751973 
L 262.077755 54.711432 
L 266.509311 57.527162 
L 270.940869 60.199165 
L 275.372425 62.724111 
L 279.803984 65.011545 
L 284.23554 67.175784 
L 288.667098 69.211834 
L 293.09865 67.17412 
L 297.530208 67.229613 
L 301.961764 68.863336 
L 306.393323 70.356661 
L 310.824879 71.709033 
L 315.256437 72.919897 
L 319.687993 73.988698 
L 324.119551 74.915437 
L 328.551107 75.699557 
L 332.982661 76.34106 
L 337.414217 76.83939 
L 341.845776 77.194547 
L 346.277332 77.407086 
L 350.631818 77.475898 
" style="fill:none;stroke:#ffffff;stroke-dasharray:3.7,1.6;stroke-dashoffset:0;"/>
   </g>
   <g id="line2d_51">
    <path clip-path="url(#p3986a68a75)" d="M 46.268182 74.402124 
L 50.0949 74.34885 
L 53.921614 74.189029 
L 57.748333 73.922661 
L 61.575052 73.549746 
L 65.401766 73.070839 
L 69.228484 72.48483 
L 73.055203 71.792828 
L 76.881917 70.994279 
L 80.708635 70.089738 
L 84.535354 69.07976 
L 88.362068 67.965454 
L 92.188787 66.749596 
L 96.015505 65.439399 
L 99.842219 65.032633 
L 103.668938 65.301775 
L 107.495656 63.751847 
L 111.32237 63.427766 
L 115.149089 63.757396 
L 118.975808 63.843411 
L 122.802521 61.795708 
L 126.62924 59.642012 
L 130.455959 57.386209 
L 134.282673 55.031073 
L 138.109391 52.521111 
L 141.93611 49.881294 
L 145.762824 47.133265 
L 149.589542 44.278689 
L 153.416261 41.324225 
L 157.509957 39.50238 
L 157.730059 39.50238 
L 159.945862 39.503489 
L 162.161671 39.507929 
L 164.377474 39.517918 
L 166.593283 39.53845 
L 168.809087 39.574521 
L 171.024895 39.634454 
L 173.240699 39.727127 
L 175.456507 39.864196 
L 177.672311 40.056203 
L 179.888119 40.312582 
L 182.103923 40.642212 
L 184.319732 41.045094 
L 186.535535 40.86363 
L 188.751344 40.447986 
L 190.967147 40.005149 
L 193.182956 39.535676 
L 195.39876 39.04012 
L 197.614568 38.518483 
L 199.830372 37.970209 
L 202.04618 37.392524 
L 204.261984 36.777658 
L 206.477792 36.109518 
L 208.693596 35.361469 
L 210.909405 34.517415 
L 213.125208 33.631742 
L 215.341017 32.830974 
L 217.55682 32.23886 
L 219.772629 31.915334 
L 221.973642 31.829319 
L 222.193744 31.829319 
L 226.625302 31.999129 
L 231.056858 32.434196 
L 235.488416 34.533508 
L 239.919972 36.368117 
L 244.351531 39.199386 
L 248.783087 41.718228 
L 253.214645 44.202663 
L 257.646197 46.80308 
L 262.077755 49.450666 
L 266.509311 52.062736 
L 270.940869 54.593786 
L 275.372425 57.018844 
L 279.803984 59.324036 
L 284.23554 61.501593 
L 288.667098 63.547077 
L 293.09865 65.457157 
L 297.530208 64.365048 
L 301.961764 65.780128 
L 306.393323 67.279557 
L 310.824879 68.635259 
L 315.256437 69.848342 
L 319.687993 70.918253 
L 324.119551 71.844992 
L 328.551107 72.628557 
L 332.982661 73.26895 
L 337.414217 73.766725 
L 341.845776 74.121327 
L 346.277332 74.333312 
L 350.631818 74.402124 
" style="fill:none;stroke:#ffffff;stroke-dasharray:3.7,1.6;stroke-dashoffset:0;"/>
   </g>
   <g id="line2d_52">
    <path clip-path="url(#p3986a68a75)" d="M 46.268182 65.419976 
L 50.0949 65.367257 
L 53.921614 65.208547 
L 57.748333 64.944398 
L 61.575052 64.574813 
L 65.401766 64.09979 
L 69.228484 63.51933 
L 73.055203 62.834543 
L 76.881917 62.045983 
L 80.708635 61.155315 
L 84.535354 60.972742 
L 88.362068 61.213583 
L 92.188787 61.497709 
L 96.015505 62.673612 
L 99.842219 64.070934 
L 103.668938 63.032654 
L 107.495656 63.110344 
L 111.32237 62.020456 
L 115.149089 60.171419 
L 118.975808 58.213615 
L 122.802521 56.149818 
L 126.62924 53.981695 
L 130.455959 51.710908 
L 134.282673 49.339124 
L 138.109391 46.868007 
L 141.93611 44.300331 
L 145.762824 41.642202 
L 149.589542 38.911931 
L 153.416261 40.754864 
L 157.509957 38.164991 
L 157.730059 38.164991 
L 159.945862 38.146678 
L 162.161671 38.092849 
L 164.377474 38.003505 
L 166.593283 37.87809 
L 168.809087 37.716605 
L 171.024895 37.519604 
L 173.240699 37.287087 
L 175.456507 37.018499 
L 177.672311 36.71495 
L 179.888119 36.375331 
L 182.103923 36.000197 
L 184.319732 35.588991 
L 186.535535 35.142825 
L 188.751344 34.660588 
L 190.967147 34.14339 
L 193.182956 33.590122 
L 195.39876 33.002448 
L 197.614568 32.383697 
L 199.830372 31.729431 
L 202.04618 31.040204 
L 204.261984 30.315462 
L 206.477792 29.555758 
L 208.693596 28.761094 
L 210.909405 27.932579 
L 213.125208 27.070213 
L 215.341017 26.175661 
L 217.55682 25.249477 
L 219.772629 24.294992 
L 221.973642 23.179577 
L 222.193744 23.180687 
L 226.625302 27.064663 
L 231.056858 30.956409 
L 235.488416 33.19168 
L 239.919972 34.832062 
L 244.351531 35.795426 
L 248.783087 37.674985 
L 253.214645 40.211584 
L 257.646197 43.095572 
L 262.077755 45.950147 
L 266.509311 48.697066 
L 270.940869 51.316906 
L 275.372425 53.803006 
L 279.803984 56.151483 
L 284.23554 58.360117 
L 288.667098 60.427798 
L 293.09865 62.354525 
L 297.530208 64.138635 
L 301.961764 61.60925 
L 306.393323 58.933363 
L 310.824879 59.720813 
L 315.256437 60.915029 
L 319.687993 61.970512 
L 324.119551 62.886706 
L 328.551107 63.661948 
L 332.982661 64.296236 
L 337.414217 64.789572 
L 341.845776 65.1414 
L 346.277332 65.351719 
L 350.631818 65.419976 
" style="fill:none;stroke:#ffffff;stroke-dasharray:3.7,1.6;stroke-dashoffset:0;"/>
   </g>
   <g id="line2d_53">
    <path clip-path="url(#p3986a68a75)" d="M 46.268182 61.8229 
L 50.0949 61.777395 
L 53.921614 61.642546 
L 57.748333 61.426677 
L 61.575052 61.15476 
L 65.401766 60.888947 
L 69.228484 60.711369 
L 73.055203 60.646996 
L 76.881917 60.677518 
L 80.708635 60.789614 
L 84.535354 60.170864 
L 88.362068 59.176424 
L 92.188787 60.306822 
L 96.015505 61.807916 
L 99.842219 62.094817 
L 103.668938 61.959413 
L 107.495656 60.606486 
L 111.32237 58.899512 
L 115.149089 57.053804 
L 118.975808 55.092671 
L 122.802521 53.022215 
L 126.62924 50.844658 
L 130.455959 48.560553 
L 134.282673 46.172121 
L 138.109391 43.679916 
L 141.93611 41.085049 
L 145.762824 38.392513 
L 149.589542 37.796515 
L 153.416261 36.444143 
L 157.509957 38.087855 
L 157.730059 38.087855 
L 159.945862 38.070652 
L 162.161671 38.018488 
L 164.377474 37.931919 
L 166.593283 37.809834 
L 168.809087 37.653342 
L 171.024895 37.461336 
L 173.240699 37.233813 
L 175.456507 36.97133 
L 177.672311 36.672776 
L 179.888119 36.338706 
L 182.103923 35.96912 
L 184.319732 35.564019 
L 186.535535 35.122847 
L 188.751344 34.64616 
L 190.967147 34.133957 
L 193.182956 33.586238 
L 195.39876 33.001893 
L 197.614568 32.378148 
L 199.830372 31.718333 
L 202.04618 31.023556 
L 204.261984 30.293819 
L 206.477792 29.528012 
L 208.693596 28.727243 
L 210.909405 27.891514 
L 213.125208 27.020824 
L 215.341017 26.115173 
L 217.55682 25.175671 
L 219.772629 24.203983 
L 221.973642 23.169588 
L 222.193744 23.169588 
L 226.625302 26.253351 
L 231.056858 29.773292 
L 235.488416 33.113989 
L 239.919972 34.291003 
L 244.351531 35.295986 
L 248.783087 36.289872 
L 253.214645 38.675529 
L 257.646197 40.647762 
L 262.077755 42.528985 
L 266.509311 44.361929 
L 270.940869 46.136605 
L 275.372425 47.84025 
L 279.803984 49.462874 
L 284.23554 50.99338 
L 288.667098 52.425107 
L 293.09865 53.750842 
L 297.530208 55.317974 
L 301.961764 56.920065 
L 306.393323 58.388418 
L 310.824879 57.940587 
L 315.256437 58.710835 
L 319.687993 59.380639 
L 324.119551 59.962764 
L 328.551107 60.472192 
L 332.982661 60.920023 
L 337.414217 61.298488 
L 341.845776 61.585943 
L 346.277332 61.763522 
L 350.631818 61.8229 
" style="fill:none;stroke:#ffffff;stroke-dasharray:3.7,1.6;stroke-dashoffset:0;"/>
   </g>
   <g id="line2d_54">
    <path clip-path="url(#p3986a68a75)" d="M 46.268182 60.830679 
L 50.0949 60.799603 
L 53.921614 60.711923 
L 57.748333 60.57097 
L 61.575052 60.375634 
L 65.401766 60.084849 
L 69.228484 59.637573 
L 73.055203 59.026592 
L 76.881917 58.276877 
L 80.708635 57.405632 
L 84.535354 56.419516 
L 88.362068 57.727493 
L 92.188787 57.726383 
L 96.015505 56.460026 
L 99.842219 55.053825 
L 103.668938 53.538858 
L 107.495656 51.919008 
L 111.32237 50.197606 
L 115.149089 48.376315 
L 118.975808 46.456246 
L 122.802521 44.440729 
L 126.62924 42.333093 
L 130.455959 40.137778 
L 134.282673 37.864772 
L 138.109391 35.530168 
L 141.93611 33.19168 
L 145.762824 34.761586 
L 149.589542 35.575118 
L 153.416261 35.169462 
L 157.509957 37.96355 
L 157.730059 37.96355 
L 159.945862 37.944682 
L 162.161671 37.889189 
L 164.377474 37.79596 
L 166.593283 37.665551 
L 168.809087 37.498516 
L 171.024895 37.294856 
L 173.240699 37.055124 
L 175.456507 36.778213 
L 177.672311 36.465786 
L 179.888119 36.116733 
L 182.103923 35.731609 
L 184.319732 35.310415 
L 186.535535 34.85315 
L 188.751344 34.359814 
L 190.967147 33.830963 
L 193.182956 33.266041 
L 195.39876 32.665603 
L 197.614568 32.02965 
L 199.830372 31.358181 
L 202.04618 30.650641 
L 204.261984 29.908141 
L 206.477792 29.13068 
L 208.693596 28.318257 
L 210.909405 27.471429 
L 213.125208 26.591306 
L 215.341017 25.678995 
L 217.55682 24.736164 
L 219.772629 23.768361 
L 221.973642 23.166813 
L 222.193744 23.167923 
L 226.625302 21.256733 
L 231.056858 24.558031 
L 235.488416 27.952556 
L 239.919972 31.119005 
L 244.351531 33.833183 
L 248.783087 35.881996 
L 253.214645 36.903073 
L 257.646197 37.825372 
L 262.077755 39.235457 
L 266.509311 41.152196 
L 270.940869 43.303671 
L 275.372425 45.505646 
L 279.803984 47.66933 
L 284.23554 49.750884 
L 288.667098 51.727001 
L 293.09865 53.585472 
L 297.530208 54.967256 
L 301.961764 56.071018 
L 306.393323 57.062128 
L 310.824879 56.366242 
L 315.256437 56.997201 
L 319.687993 58.014394 
L 324.119551 58.871765 
L 328.551107 59.558772 
L 332.982661 60.073195 
L 337.414217 60.430572 
L 341.845776 60.661425 
L 346.277332 60.790169 
L 350.631818 60.830679 
" style="fill:none;stroke:#ffffff;stroke-dasharray:3.7,1.6;stroke-dashoffset:0;"/>
   </g>
   <g id="line2d_55">
    <path clip-path="url(#p3986a68a75)" d="M 46.268182 60.830124 
L 50.0949 60.65976 
L 53.921614 60.151441 
L 57.748333 59.313492 
L 61.575052 58.163671 
L 65.401766 56.721399 
L 69.228484 55.008876 
L 73.055203 53.048297 
L 76.881917 51.566071 
L 80.708635 53.516106 
L 84.535354 55.604874 
L 88.362068 55.322413 
L 92.188787 54.117098 
L 96.015505 52.803572 
L 99.842219 51.383498 
L 103.668938 49.857432 
L 107.495656 48.225928 
L 111.32237 46.489542 
L 115.149089 44.648829 
L 118.975808 42.704344 
L 122.802521 40.657195 
L 126.62924 38.507384 
L 130.455959 36.257686 
L 134.282673 33.909209 
L 138.109391 31.469723 
L 141.93611 31.753848 
L 145.762824 31.308792 
L 149.589542 32.752728 
L 153.416261 34.615638 
L 157.509957 33.249393 
L 157.730059 33.249393 
L 159.945862 33.241069 
L 162.161671 33.214987 
L 164.377474 33.172257 
L 166.593283 33.112325 
L 168.809087 33.035744 
L 171.024895 32.94196 
L 173.240699 32.830419 
L 175.456507 32.699454 
L 177.672311 32.545738 
L 179.888119 32.365385 
L 182.103923 32.15562 
L 184.319732 31.90812 
L 186.535535 31.619555 
L 188.751344 31.286595 
L 190.967147 30.90702 
L 193.182956 30.479722 
L 195.39876 30.004699 
L 197.614568 29.483062 
L 199.830372 28.916475 
L 202.04618 28.306049 
L 204.261984 27.653448 
L 206.477792 26.962556 
L 208.693596 26.235593 
L 210.909405 25.478665 
L 213.125208 24.699539 
L 215.341017 23.919303 
L 217.55682 23.19012 
L 219.772629 22.718982 
L 221.973642 23.132407 
L 222.193744 23.132962 
L 226.625302 21.107456 
L 231.056858 23.316645 
L 235.488416 26.574658 
L 239.919972 29.953645 
L 244.351531 33.253833 
L 248.783087 35.782108 
L 253.214645 36.55513 
L 257.646197 37.288751 
L 262.077755 38.064548 
L 266.509311 38.871976 
L 270.940869 39.701046 
L 275.372425 41.272616 
L 279.803984 43.584468 
L 284.23554 45.758141 
L 288.667098 47.792525 
L 293.09865 49.685402 
L 297.530208 51.436216 
L 301.961764 53.044413 
L 306.393323 54.508326 
L 310.824879 55.826847 
L 315.256437 53.938965 
L 319.687993 52.48726 
L 324.119551 54.22864 
L 328.551107 55.943383 
L 332.982661 57.534376 
L 337.414217 58.901177 
L 341.845776 59.951665 
L 346.277332 60.610926 
L 350.631818 60.830124 
" style="fill:none;stroke:#ffffff;stroke-dasharray:3.7,1.6;stroke-dashoffset:0;"/>
   </g>
   <g id="line2d_56">
    <path clip-path="url(#p3986a68a75)" d="M 46.268182 48.807498 
L 50.0949 48.755334 
L 53.921614 48.599953 
L 57.748333 48.341354 
L 61.575052 47.978983 
L 65.401766 47.518388 
L 69.228484 48.188748 
L 73.055203 49.782516 
L 76.881917 50.864635 
L 80.708635 48.479533 
L 84.535354 45.915187 
L 88.362068 42.56783 
L 92.188787 41.392482 
L 96.015505 40.12002 
L 99.842219 38.751555 
L 103.668938 37.290971 
L 107.495656 35.740488 
L 111.32237 34.1051 
L 115.149089 32.392021 
L 118.975808 30.612351 
L 122.802521 28.785511 
L 126.62924 26.948682 
L 130.455959 25.201198 
L 134.282673 25.924831 
L 138.109391 28.75721 
L 141.93611 28.902047 
L 145.762824 28.733902 
L 149.589542 31.318226 
L 153.416261 32.690021 
L 157.509957 32.323765 
L 157.730059 32.323765 
L 159.945862 32.306007 
L 162.161671 32.251623 
L 164.377474 32.161724 
L 166.593283 32.035199 
L 168.809087 31.873159 
L 171.024895 31.675048 
L 173.240699 31.440866 
L 175.456507 31.171169 
L 177.672311 30.8654 
L 179.888119 30.524117 
L 182.103923 30.147317 
L 184.319732 29.733892 
L 186.535535 29.284951 
L 188.751344 28.800494 
L 190.967147 28.280522 
L 193.182956 27.724479 
L 195.39876 27.132365 
L 197.614568 26.505291 
L 199.830372 25.842146 
L 202.04618 25.143485 
L 204.261984 24.409309 
L 206.477792 23.639616 
L 208.693596 22.834408 
L 210.909405 21.99424 
L 213.125208 21.12022 
L 215.341017 20.216234 
L 217.55682 19.509249 
L 219.772629 19.919345 
L 221.973642 22.86493 
L 222.193744 20.715674 
L 226.625302 21.035315 
L 231.056858 19.065857 
L 235.488416 17.083636 
L 239.919972 19.904361 
L 244.351531 22.886017 
L 248.783087 25.631271 
L 253.214645 27.887074 
L 257.646197 30.694481 
L 262.077755 33.529634 
L 266.509311 36.241593 
L 270.940869 38.823696 
L 275.372425 40.551203 
L 279.803984 41.424668 
L 284.23554 42.326989 
L 288.667098 43.268711 
L 293.09865 44.265371 
L 297.530208 45.338056 
L 301.961764 46.50841 
L 306.393323 47.800295 
L 310.824879 49.232022 
L 315.256437 50.803593 
L 319.687993 51.683717 
L 324.119551 49.638788 
L 328.551107 47.085541 
L 332.982661 47.706511 
L 337.414217 48.189303 
L 341.845776 48.533916 
L 346.277332 48.740351 
L 350.631818 48.807498 
" style="fill:none;stroke:#ffffff;stroke-dasharray:3.7,1.6;stroke-dashoffset:0;"/>
   </g>
   <g id="patch_3">
    <path d="M 31.05 224.64 
L 31.05 7.2 
" style="fill:none;stroke:#ffffff;stroke-linecap:square;stroke-linejoin:miter;"/>
   </g>
   <g id="patch_4">
    <path d="M 365.85 224.64 
L 365.85 7.2 
" style="fill:none;stroke:#ffffff;stroke-linecap:square;stroke-linejoin:miter;"/>
   </g>
   <g id="patch_5">
    <path d="M 31.05 224.64 
L 365.85 224.64 
" style="fill:none;stroke:#ffffff;stroke-linecap:square;stroke-linejoin:miter;"/>
   </g>
   <g id="patch_6">
    <path d="M 31.05 7.2 
L 365.85 7.2 
" style="fill:none;stroke:#ffffff;stroke-linecap:square;stroke-linejoin:miter;"/>
   </g>
   <g id="text_15">
    <g id="patch_7">
     <path d="M 91.314063 37.444 
L 138.185938 37.444 
L 138.185938 20.444 
L 91.314063 20.444 
z
" style="fill:#ffffff;opacity:0.4;stroke:#ffffff;stroke-linejoin:miter;stroke-width:0.5;"/>
    </g>
    <!-- Graphene -->
    <g style="fill:#ff0000;" transform="translate(95.314063 31.273687)scale(0.1 -0.1)">
     <defs>
      <path d="M 70.90625 35.40625 
L 70.90625 33.59375 
Q 66.5 33.203125 65.203125 31.796875 
Q 63.90625 30.40625 63.90625 25.59375 
L 63.90625 5.59375 
Q 55.296875 -1.40625 38.5 -1.40625 
Q 30.703125 -1.40625 23.546875 1.390625 
Q 16.40625 4.203125 11.5 9.296875 
Q 3.203125 18 3.203125 32.703125 
Q 3.203125 49.296875 13.90625 59 
Q 23.296875 67.59375 37.796875 67.59375 
Q 44.203125 67.59375 51.09375 65.296875 
Q 53.796875 64.296875 55.5 64.296875 
Q 57.09375 64.296875 58.296875 65.25 
Q 59.5 66.203125 60 67.59375 
L 62.203125 67.59375 
L 63 46.5 
L 60.703125 46.5 
Q 57.5 54.296875 53.59375 58.09375 
Q 47.796875 63.59375 39 63.59375 
Q 29 63.59375 22.296875 56.703125 
Q 14.59375 49 14.59375 32.40625 
Q 14.59375 18.59375 21.796875 10.59375 
Q 29 2.59375 40.90625 2.59375 
Q 46.59375 2.59375 50.390625 4.390625 
Q 54.203125 6.203125 54.203125 8.703125 
L 54.203125 24.40625 
Q 54.203125 30.203125 52.75 31.640625 
Q 51.296875 33.09375 45.296875 33.59375 
L 45.296875 35.40625 
z
" id="STIXGeneral-Regular-71"/>
      <path d="M 16 45.796875 
L 16 36.59375 
Q 19.796875 42 22.34375 44 
Q 24.90625 46 28 46 
Q 30.59375 46 32.046875 44.59375 
Q 33.5 43.203125 33.5 40.703125 
Q 33.5 38.59375 32.453125 37.390625 
Q 31.40625 36.203125 29.59375 36.203125 
Q 27.703125 36.203125 25.59375 38.203125 
Q 24 39.703125 23 39.703125 
Q 20.90625 39.703125 18.453125 36.796875 
Q 16 33.90625 16 31.5 
L 16 9 
Q 16 4.703125 17.703125 3.203125 
Q 19.40625 1.703125 24.5 1.5 
L 24.5 0 
L 0.5 0 
L 0.5 1.5 
Q 5.296875 2.40625 6.4375 3.5 
Q 7.59375 4.59375 7.59375 8.40625 
L 7.59375 33.40625 
Q 7.59375 36.703125 6.84375 38.046875 
Q 6.09375 39.40625 4.203125 39.40625 
Q 2.59375 39.40625 0.703125 39 
L 0.703125 40.59375 
Q 7 42.59375 15.5 46 
z
" id="STIXGeneral-Regular-114"/>
      <path d="M 44.203125 6.59375 
L 44.203125 3.796875 
Q 40.40625 -1 35.203125 -1 
Q 29.5 -1 28.796875 6.296875 
L 28.703125 6.296875 
Q 22.296875 -1 14.203125 -1 
Q 9.5 -1 6.59375 1.75 
Q 3.703125 4.5 3.703125 9.40625 
Q 3.703125 16.40625 10.703125 21.09375 
Q 15.5 24.296875 28.703125 29.203125 
L 28.703125 34.59375 
Q 28.703125 39.09375 26.546875 41.34375 
Q 24.40625 43.59375 20.90625 43.59375 
Q 17.90625 43.59375 15.90625 42.140625 
Q 13.90625 40.703125 13.90625 38.703125 
Q 13.90625 37.796875 14.203125 36.6875 
Q 14.5 35.59375 14.5 34.5 
Q 14.5 33 13.140625 31.703125 
Q 11.796875 30.40625 9.90625 30.40625 
Q 8.203125 30.40625 6.890625 31.703125 
Q 5.59375 33 5.59375 35 
Q 5.59375 39.796875 10.703125 43 
Q 15.40625 46 22.203125 46 
Q 30.296875 46 34 41.5 
Q 35.796875 39.40625 36.296875 37.25 
Q 36.796875 35.09375 36.796875 30.40625 
L 36.796875 11.296875 
Q 36.796875 4.703125 39.90625 4.703125 
Q 41.90625 4.703125 44.203125 6.59375 
z
M 28.703125 12.703125 
L 28.703125 26.796875 
Q 19.5 23.59375 15.90625 20.203125 
Q 12.5 17.09375 12.5 12.5 
Q 12.5 8.703125 14.390625 6.75 
Q 16.296875 4.796875 19.40625 4.796875 
Q 22.703125 4.796875 25.203125 6.40625 
Q 27.296875 7.90625 28 9.203125 
Q 28.703125 10.5 28.703125 12.703125 
z
" id="STIXGeneral-Regular-97"/>
      <path d="M 15.90625 45.796875 
L 15.90625 38.09375 
Q 22.203125 46 30.296875 46 
Q 37.59375 46 42.296875 40 
Q 47 34 47 24.703125 
Q 47 13.796875 40.953125 6.390625 
Q 34.90625 -1 26 -1 
Q 22.90625 -1 20.75 -0.09375 
Q 18.59375 0.796875 15.90625 3.296875 
L 15.90625 -12.40625 
Q 15.90625 -17.09375 17.5 -18.4375 
Q 19.09375 -19.796875 24.703125 -19.90625 
L 24.703125 -21.703125 
L 0.5 -21.703125 
L 0.5 -20 
Q 4.90625 -19.59375 6.203125 -18.296875 
Q 7.5 -17 7.5 -13.09375 
L 7.5 33.703125 
Q 7.5 37.203125 6.703125 38.296875 
Q 5.90625 39.40625 3.40625 39.40625 
Q 1.796875 39.40625 0.90625 39.296875 
L 0.90625 40.90625 
Q 7.90625 43 15.296875 46 
z
M 15.90625 33.40625 
L 15.90625 8.796875 
Q 15.90625 6.59375 19.34375 4.390625 
Q 22.796875 2.203125 26.296875 2.203125 
Q 31.703125 2.203125 35.046875 7.296875 
Q 38.40625 12.40625 38.40625 20.703125 
Q 38.40625 29.5 35.046875 34.75 
Q 31.703125 40 26.09375 40 
Q 22.59375 40 19.25 37.796875 
Q 15.90625 35.59375 15.90625 33.40625 
z
" id="STIXGeneral-Regular-112"/>
      <path d="M 48.703125 0 
L 27.5 0 
L 27.5 1.5 
Q 31.90625 2 33.09375 3.5 
Q 34.296875 5 34.296875 10.203125 
L 34.296875 30 
Q 34.296875 40.59375 26.90625 40.59375 
Q 23.90625 40.59375 21.40625 39.1875 
Q 18.90625 37.796875 15.703125 34.296875 
L 15.703125 10.203125 
Q 15.703125 5 16.890625 3.5 
Q 18.09375 2 22.5 1.5 
L 22.5 0 
L 0.90625 0 
L 0.90625 1.5 
Q 5.203125 2.09375 6.25 3.5 
Q 7.296875 4.90625 7.296875 10.203125 
L 7.296875 57.296875 
Q 7.296875 60.5 6.34375 61.453125 
Q 5.40625 62.40625 2.203125 62.40625 
Q 1.296875 62.40625 1 62.296875 
L 1 63.90625 
L 3.703125 64.703125 
Q 11.40625 67 15.203125 68.296875 
L 15.703125 68 
L 15.703125 37.59375 
Q 19.203125 42.09375 22.59375 44.046875 
Q 26 46 30.40625 46 
Q 42.703125 46 42.703125 30.09375 
L 42.703125 10.203125 
Q 42.703125 5 43.640625 3.640625 
Q 44.59375 2.296875 48.703125 1.5 
z
" id="STIXGeneral-Regular-104"/>
      <path d="M 40.796875 16.40625 
L 42.40625 15.703125 
Q 36.40625 -1 21.5 -1 
Q 12.703125 -1 7.59375 5.140625 
Q 2.5 11.296875 2.5 21.703125 
Q 2.5 32.40625 8.203125 39.203125 
Q 13.90625 46 23.203125 46 
Q 32.203125 46 37.09375 39.09375 
Q 40 35.09375 40.5 27.703125 
L 9.703125 27.703125 
Q 10.09375 21.40625 10.9375 18.09375 
Q 11.796875 14.796875 14.296875 11.40625 
Q 18.5 5.90625 25.40625 5.90625 
Q 30.296875 5.90625 33.640625 8.296875 
Q 37 10.703125 40.796875 16.40625 
z
M 9.90625 30.90625 
L 30.296875 30.90625 
Q 29.40625 37.203125 27.34375 39.796875 
Q 25.296875 42.40625 20.5 42.40625 
Q 16.296875 42.40625 13.5 39.453125 
Q 10.703125 36.5 9.90625 30.90625 
z
" id="STIXGeneral-Regular-101"/>
      <path d="M 48.5 0 
L 27.703125 0 
L 27.796875 1.5 
Q 31.5 1.796875 32.75 3.640625 
Q 34 5.5 34 10.5 
L 34 30.40625 
Q 34 40.5 26.703125 40.5 
Q 24.203125 40.5 22 39.296875 
Q 19.796875 38.09375 16.40625 34.796875 
L 16.40625 7.203125 
Q 16.40625 4.203125 17.75 3 
Q 19.09375 1.796875 22.90625 1.5 
L 22.90625 0 
L 1.796875 0 
L 1.796875 1.5 
Q 5.59375 1.796875 6.796875 3.34375 
Q 8 4.90625 8 9.40625 
L 8 33.703125 
Q 8 37.40625 7.296875 38.796875 
Q 6.59375 40.203125 4.5 40.203125 
Q 2.5 40.203125 1.59375 39.796875 
L 1.59375 41.5 
Q 8.59375 43.5 15.296875 46 
L 16.09375 45.703125 
L 16.09375 37.90625 
L 16.203125 37.90625 
Q 23.296875 46 30.59375 46 
Q 36.296875 46 39.34375 42 
Q 42.40625 38 42.40625 30.59375 
L 42.40625 8.5 
Q 42.40625 4.5 43.59375 3.203125 
Q 44.796875 1.90625 48.5 1.5 
z
" id="STIXGeneral-Regular-110"/>
     </defs>
     <use xlink:href="#STIXGeneral-Regular-71"/>
     <use x="72.199982" xlink:href="#STIXGeneral-Regular-114"/>
     <use x="105.499969" xlink:href="#STIXGeneral-Regular-97"/>
     <use x="149.899963" xlink:href="#STIXGeneral-Regular-112"/>
     <use x="199.899948" xlink:href="#STIXGeneral-Regular-104"/>
     <use x="249.899933" xlink:href="#STIXGeneral-Regular-101"/>
     <use x="294.299927" xlink:href="#STIXGeneral-Regular-110"/>
     <use x="344.299911" xlink:href="#STIXGeneral-Regular-101"/>
    </g>
   </g>
  </g>
 </g>
 <defs>
  <clipPath id="p3986a68a75">
   <rect height="217.44" width="334.8" x="31.05" y="7.2"/>
  </clipPath>
 </defs>
</svg>
