<?xml version="1.0" encoding="utf-8" standalone="no"?>
<!DOCTYPE svg PUBLIC "-//W3C//DTD SVG 1.1//EN"
  "http://www.w3.org/Graphics/SVG/1.1/DTD/svg11.dtd">
<!-- Created with matplotlib (https://matplotlib.org/) -->
<svg height="202.98pt" version="1.1" viewBox="0 0 382.55 202.98" width="382.55pt" xmlns="http://www.w3.org/2000/svg" xmlns:xlink="http://www.w3.org/1999/xlink">
 <metadata>
  <rdf:RDF xmlns:cc="http://creativecommons.org/ns#" xmlns:dc="http://purl.org/dc/elements/1.1/" xmlns:rdf="http://www.w3.org/1999/02/22-rdf-syntax-ns#">
   <cc:Work>
    <dc:type rdf:resource="http://purl.org/dc/dcmitype/StillImage"/>
    <dc:date>2022-07-26T22:45:08.685455</dc:date>
    <dc:format>image/svg+xml</dc:format>
    <dc:creator>
     <cc:Agent>
      <dc:title>Matplotlib v3.3.3, https://matplotlib.org/</dc:title>
     </cc:Agent>
    </dc:creator>
   </cc:Work>
  </rdf:RDF>
 </metadata>
 <defs>
  <style type="text/css">*{stroke-linecap:butt;stroke-linejoin:round;}</style>
 </defs>
 <g id="figure_1">
  <g id="patch_1">
   <path d="M 0 202.98 
L 382.55 202.98 
L 382.55 0 
L 0 0 
z
" style="fill:none;"/>
  </g>
  <g id="axes_1">
   <g id="patch_2">
    <path d="M 40.55 170.28 
L 192.731818 170.28 
L 192.731818 7.2 
L 40.55 7.2 
z
" style="fill:#ffffff;"/>
   </g>
   <g id="matplotlib.axis_1">
    <g id="xtick_1">
     <g id="line2d_1">
      <defs>
       <path d="M 0 0 
L 0 -4 
" id="mcf10b15a1b" style="stroke:#000000;stroke-width:0.3;"/>
      </defs>
      <g>
       <use style="stroke:#000000;stroke-width:0.3;" x="47.467355" xlink:href="#mcf10b15a1b" y="170.28"/>
      </g>
     </g>
     <g id="line2d_2">
      <defs>
       <path d="M 0 0 
L 0 4 
" id="mefe5d84016" style="stroke:#000000;stroke-width:0.3;"/>
      </defs>
      <g>
       <use style="stroke:#000000;stroke-width:0.3;" x="47.467355" xlink:href="#mefe5d84016" y="7.2"/>
      </g>
     </g>
     <g id="text_1">
      <!-- 0 -->
      <g transform="translate(44.967355 180.609688)scale(0.1 -0.1)">
       <defs>
        <path d="M 47.59375 33 
Q 47.59375 26.296875 46.296875 20.34375 
Q 45 14.40625 42.453125 9.40625 
Q 39.90625 4.40625 35.40625 1.5 
Q 30.90625 -1.40625 25 -1.40625 
Q 18.90625 -1.40625 14.296875 1.6875 
Q 9.703125 4.796875 7.203125 10 
Q 4.703125 15.203125 3.546875 21.09375 
Q 2.40625 27 2.40625 33.59375 
Q 2.40625 42.90625 4.703125 50.34375 
Q 7 57.796875 12.34375 62.6875 
Q 17.703125 67.59375 25.40625 67.59375 
Q 35.203125 67.59375 41.390625 58 
Q 47.59375 48.40625 47.59375 33 
z
M 38 32.5 
Q 38 48.296875 34.640625 56.640625 
Q 31.296875 65 24.796875 65 
Q 18.59375 65 15.296875 56.59375 
Q 12 48.203125 12 32.90625 
Q 12 17.5 15.296875 9.34375 
Q 18.59375 1.203125 25 1.203125 
Q 31.296875 1.203125 34.640625 9.34375 
Q 38 17.5 38 32.5 
z
" id="STIXGeneral-Regular-48"/>
       </defs>
       <use xlink:href="#STIXGeneral-Regular-48"/>
      </g>
     </g>
    </g>
    <g id="xtick_2">
     <g id="line2d_3">
      <g>
       <use style="stroke:#000000;stroke-width:0.3;" x="82.054132" xlink:href="#mcf10b15a1b" y="170.28"/>
      </g>
     </g>
     <g id="line2d_4">
      <g>
       <use style="stroke:#000000;stroke-width:0.3;" x="82.054132" xlink:href="#mefe5d84016" y="7.2"/>
      </g>
     </g>
     <g id="text_2">
      <!-- 5 -->
      <g transform="translate(79.554132 180.609688)scale(0.1 -0.1)">
       <defs>
        <path d="M 43.796875 68.09375 
L 40.203125 59.59375 
Q 39.59375 58.296875 37.5 58.296875 
L 18.09375 58.296875 
L 14.09375 49.796875 
Q 25.09375 47.703125 30 45.25 
Q 34.90625 42.796875 39.09375 37 
Q 42.59375 32.203125 42.59375 24.296875 
Q 42.59375 17.09375 40.25 12.1875 
Q 37.90625 7.296875 32.796875 3.5 
Q 26 -1.40625 15.796875 -1.40625 
Q 10.09375 -1.40625 6.59375 0.296875 
Q 3.09375 2 3.09375 4.796875 
Q 3.09375 8.59375 7.59375 8.59375 
Q 11.203125 8.59375 15 5.5 
Q 18.90625 2.296875 22.09375 2.296875 
Q 27.296875 2.296875 31.4375 7.5 
Q 35.59375 12.703125 35.59375 19.203125 
Q 35.59375 28.796875 28.90625 34.203125 
Q 20.203125 41.203125 7.59375 41.203125 
Q 6.40625 41.203125 6.40625 42 
L 6.5 42.5 
L 17.40625 66.203125 
L 38.09375 66.203125 
Q 39.796875 66.203125 40.75 66.703125 
Q 41.703125 67.203125 42.90625 68.796875 
z
" id="STIXGeneral-Regular-53"/>
       </defs>
       <use xlink:href="#STIXGeneral-Regular-53"/>
      </g>
     </g>
    </g>
    <g id="xtick_3">
     <g id="line2d_5">
      <g>
       <use style="stroke:#000000;stroke-width:0.3;" x="116.640909" xlink:href="#mcf10b15a1b" y="170.28"/>
      </g>
     </g>
     <g id="line2d_6">
      <g>
       <use style="stroke:#000000;stroke-width:0.3;" x="116.640909" xlink:href="#mefe5d84016" y="7.2"/>
      </g>
     </g>
     <g id="text_3">
      <!-- 10 -->
      <g transform="translate(111.640909 180.609688)scale(0.1 -0.1)">
       <defs>
        <path d="M 39.40625 0 
L 11.796875 0 
L 11.796875 1.5 
Q 17.296875 1.796875 19.296875 3.546875 
Q 21.296875 5.296875 21.296875 9.5 
L 21.296875 54.40625 
Q 21.296875 59.296875 18.296875 59.296875 
Q 16.90625 59.296875 13.796875 58.09375 
L 11.09375 57.09375 
L 11.09375 58.5 
L 29 67.59375 
L 29.90625 67.296875 
L 29.90625 7.59375 
Q 29.90625 4.296875 31.90625 2.890625 
Q 33.90625 1.5 39.40625 1.5 
z
" id="STIXGeneral-Regular-49"/>
       </defs>
       <use xlink:href="#STIXGeneral-Regular-49"/>
       <use x="49.999985" xlink:href="#STIXGeneral-Regular-48"/>
      </g>
     </g>
    </g>
    <g id="xtick_4">
     <g id="line2d_7">
      <g>
       <use style="stroke:#000000;stroke-width:0.3;" x="151.227686" xlink:href="#mcf10b15a1b" y="170.28"/>
      </g>
     </g>
     <g id="line2d_8">
      <g>
       <use style="stroke:#000000;stroke-width:0.3;" x="151.227686" xlink:href="#mefe5d84016" y="7.2"/>
      </g>
     </g>
     <g id="text_4">
      <!-- 15 -->
      <g transform="translate(146.227686 180.609688)scale(0.1 -0.1)">
       <use xlink:href="#STIXGeneral-Regular-49"/>
       <use x="49.999985" xlink:href="#STIXGeneral-Regular-53"/>
      </g>
     </g>
    </g>
    <g id="xtick_5">
     <g id="line2d_9">
      <g>
       <use style="stroke:#000000;stroke-width:0.3;" x="185.814463" xlink:href="#mcf10b15a1b" y="170.28"/>
      </g>
     </g>
     <g id="line2d_10">
      <g>
       <use style="stroke:#000000;stroke-width:0.3;" x="185.814463" xlink:href="#mefe5d84016" y="7.2"/>
      </g>
     </g>
     <g id="text_5">
      <!-- 20 -->
      <g transform="translate(180.814463 180.609688)scale(0.1 -0.1)">
       <defs>
        <path d="M 47.40625 13.703125 
L 42 0 
L 2.90625 0 
L 2.90625 1.203125 
L 20.703125 20.09375 
Q 27.703125 27.40625 30.703125 33.5 
Q 33.703125 39.59375 33.703125 46.09375 
Q 33.703125 52.796875 30 56.5 
Q 26.296875 60.203125 19.796875 60.203125 
Q 14.40625 60.203125 11.25 57.390625 
Q 8.09375 54.59375 5.09375 47.203125 
L 3 47.703125 
Q 4.703125 57 9.84375 62.296875 
Q 15 67.59375 23.796875 67.59375 
Q 32.09375 67.59375 37.1875 62.59375 
Q 42.296875 57.59375 42.296875 50 
Q 42.296875 38.703125 29.5 25.203125 
L 13 7.59375 
L 36.40625 7.59375 
Q 39.703125 7.59375 41.640625 8.890625 
Q 43.59375 10.203125 46 14.296875 
z
" id="STIXGeneral-Regular-50"/>
       </defs>
       <use xlink:href="#STIXGeneral-Regular-50"/>
       <use x="49.999985" xlink:href="#STIXGeneral-Regular-48"/>
      </g>
     </g>
    </g>
    <g id="text_6">
     <!-- Iteration Number -->
     <g transform="translate(82.065909 193.609688)scale(0.1 -0.1)">
      <defs>
       <path d="M 31.5 0 
L 1.796875 0 
L 1.796875 1.90625 
Q 8.09375 2.09375 9.796875 3.75 
Q 11.5 5.40625 11.5 11.203125 
L 11.5 55.09375 
Q 11.5 60.90625 9.890625 62.40625 
Q 8.296875 63.90625 1.796875 64.296875 
L 1.796875 66.203125 
L 31.5 66.203125 
L 31.5 64.296875 
Q 25.203125 64 23.453125 62.390625 
Q 21.703125 60.796875 21.703125 55.09375 
L 21.703125 11.203125 
Q 21.703125 5.59375 23.5 3.84375 
Q 25.296875 2.09375 31.5 1.90625 
z
" id="STIXGeneral-Regular-73"/>
       <path d="M 26.59375 7.703125 
L 27.90625 6.59375 
Q 23.09375 -1 15.796875 -1 
Q 7 -1 7 11.703125 
L 7 41.796875 
L 1.703125 41.796875 
Q 1.296875 42.09375 1.296875 42.5 
Q 1.296875 43.296875 3 44.40625 
Q 6.796875 46.59375 12.703125 55.09375 
Q 12.90625 55.40625 13.65625 56.34375 
Q 14.40625 57.296875 14.703125 57.90625 
Q 15.40625 57.90625 15.40625 56.59375 
L 15.40625 45 
L 25.5 45 
L 25.5 41.796875 
L 15.40625 41.796875 
L 15.40625 13.203125 
Q 15.40625 8.40625 16.59375 6.296875 
Q 17.796875 4.203125 20.59375 4.203125 
Q 23.59375 4.203125 26.59375 7.703125 
z
" id="STIXGeneral-Regular-116"/>
       <path d="M 40.796875 16.40625 
L 42.40625 15.703125 
Q 36.40625 -1 21.5 -1 
Q 12.703125 -1 7.59375 5.140625 
Q 2.5 11.296875 2.5 21.703125 
Q 2.5 32.40625 8.203125 39.203125 
Q 13.90625 46 23.203125 46 
Q 32.203125 46 37.09375 39.09375 
Q 40 35.09375 40.5 27.703125 
L 9.703125 27.703125 
Q 10.09375 21.40625 10.9375 18.09375 
Q 11.796875 14.796875 14.296875 11.40625 
Q 18.5 5.90625 25.40625 5.90625 
Q 30.296875 5.90625 33.640625 8.296875 
Q 37 10.703125 40.796875 16.40625 
z
M 9.90625 30.90625 
L 30.296875 30.90625 
Q 29.40625 37.203125 27.34375 39.796875 
Q 25.296875 42.40625 20.5 42.40625 
Q 16.296875 42.40625 13.5 39.453125 
Q 10.703125 36.5 9.90625 30.90625 
z
" id="STIXGeneral-Regular-101"/>
       <path d="M 16 45.796875 
L 16 36.59375 
Q 19.796875 42 22.34375 44 
Q 24.90625 46 28 46 
Q 30.59375 46 32.046875 44.59375 
Q 33.5 43.203125 33.5 40.703125 
Q 33.5 38.59375 32.453125 37.390625 
Q 31.40625 36.203125 29.59375 36.203125 
Q 27.703125 36.203125 25.59375 38.203125 
Q 24 39.703125 23 39.703125 
Q 20.90625 39.703125 18.453125 36.796875 
Q 16 33.90625 16 31.5 
L 16 9 
Q 16 4.703125 17.703125 3.203125 
Q 19.40625 1.703125 24.5 1.5 
L 24.5 0 
L 0.5 0 
L 0.5 1.5 
Q 5.296875 2.40625 6.4375 3.5 
Q 7.59375 4.59375 7.59375 8.40625 
L 7.59375 33.40625 
Q 7.59375 36.703125 6.84375 38.046875 
Q 6.09375 39.40625 4.203125 39.40625 
Q 2.59375 39.40625 0.703125 39 
L 0.703125 40.59375 
Q 7 42.59375 15.5 46 
z
" id="STIXGeneral-Regular-114"/>
       <path d="M 44.203125 6.59375 
L 44.203125 3.796875 
Q 40.40625 -1 35.203125 -1 
Q 29.5 -1 28.796875 6.296875 
L 28.703125 6.296875 
Q 22.296875 -1 14.203125 -1 
Q 9.5 -1 6.59375 1.75 
Q 3.703125 4.5 3.703125 9.40625 
Q 3.703125 16.40625 10.703125 21.09375 
Q 15.5 24.296875 28.703125 29.203125 
L 28.703125 34.59375 
Q 28.703125 39.09375 26.546875 41.34375 
Q 24.40625 43.59375 20.90625 43.59375 
Q 17.90625 43.59375 15.90625 42.140625 
Q 13.90625 40.703125 13.90625 38.703125 
Q 13.90625 37.796875 14.203125 36.6875 
Q 14.5 35.59375 14.5 34.5 
Q 14.5 33 13.140625 31.703125 
Q 11.796875 30.40625 9.90625 30.40625 
Q 8.203125 30.40625 6.890625 31.703125 
Q 5.59375 33 5.59375 35 
Q 5.59375 39.796875 10.703125 43 
Q 15.40625 46 22.203125 46 
Q 30.296875 46 34 41.5 
Q 35.796875 39.40625 36.296875 37.25 
Q 36.796875 35.09375 36.796875 30.40625 
L 36.796875 11.296875 
Q 36.796875 4.703125 39.90625 4.703125 
Q 41.90625 4.703125 44.203125 6.59375 
z
M 28.703125 12.703125 
L 28.703125 26.796875 
Q 19.5 23.59375 15.90625 20.203125 
Q 12.5 17.09375 12.5 12.5 
Q 12.5 8.703125 14.390625 6.75 
Q 16.296875 4.796875 19.40625 4.796875 
Q 22.703125 4.796875 25.203125 6.40625 
Q 27.296875 7.90625 28 9.203125 
Q 28.703125 10.5 28.703125 12.703125 
z
" id="STIXGeneral-Regular-97"/>
       <path d="M 18 63.203125 
Q 18 61 16.5 59.546875 
Q 15 58.09375 12.796875 58.09375 
Q 10.703125 58.09375 9.25 59.546875 
Q 7.796875 61 7.796875 63.203125 
Q 7.796875 65.296875 9.296875 66.796875 
Q 10.796875 68.296875 12.90625 68.296875 
Q 15.09375 68.296875 16.546875 66.796875 
Q 18 65.296875 18 63.203125 
z
M 25.296875 0 
L 1.59375 0 
L 1.59375 1.5 
Q 6.796875 1.796875 8.140625 3.296875 
Q 9.5 4.796875 9.5 10.40625 
L 9.5 33.09375 
Q 9.5 36.59375 8.796875 38 
Q 8.09375 39.40625 6.203125 39.40625 
Q 3.796875 39.40625 2 38.90625 
L 2 40.5 
L 17.5 46 
L 17.90625 45.59375 
L 17.90625 10.5 
Q 17.90625 4.90625 19.15625 3.40625 
Q 20.40625 1.90625 25.296875 1.5 
z
" id="STIXGeneral-Regular-105"/>
       <path d="M 47 23.09375 
Q 47 12.59375 40.75 5.796875 
Q 34.5 -1 24.5 -1 
Q 15.296875 -1 9.09375 5.75 
Q 2.90625 12.5 2.90625 22.796875 
Q 2.90625 33.203125 9.09375 39.59375 
Q 15.296875 46 25.40625 46 
Q 34.703125 46 40.84375 39.640625 
Q 47 33.296875 47 23.09375 
z
M 38 20.40625 
Q 38 31.796875 33 38.203125 
Q 29 43.203125 23.5 43.203125 
Q 18.296875 43.203125 15.09375 38.953125 
Q 11.90625 34.703125 11.90625 27.296875 
Q 11.90625 14.5 17.203125 6.796875 
Q 20.59375 1.796875 26.203125 1.796875 
Q 31.703125 1.796875 34.84375 6.75 
Q 38 11.703125 38 20.40625 
z
" id="STIXGeneral-Regular-111"/>
       <path d="M 48.5 0 
L 27.703125 0 
L 27.796875 1.5 
Q 31.5 1.796875 32.75 3.640625 
Q 34 5.5 34 10.5 
L 34 30.40625 
Q 34 40.5 26.703125 40.5 
Q 24.203125 40.5 22 39.296875 
Q 19.796875 38.09375 16.40625 34.796875 
L 16.40625 7.203125 
Q 16.40625 4.203125 17.75 3 
Q 19.09375 1.796875 22.90625 1.5 
L 22.90625 0 
L 1.796875 0 
L 1.796875 1.5 
Q 5.59375 1.796875 6.796875 3.34375 
Q 8 4.90625 8 9.40625 
L 8 33.703125 
Q 8 37.40625 7.296875 38.796875 
Q 6.59375 40.203125 4.5 40.203125 
Q 2.5 40.203125 1.59375 39.796875 
L 1.59375 41.5 
Q 8.59375 43.5 15.296875 46 
L 16.09375 45.703125 
L 16.09375 37.90625 
L 16.203125 37.90625 
Q 23.296875 46 30.59375 46 
Q 36.296875 46 39.34375 42 
Q 42.40625 38 42.40625 30.59375 
L 42.40625 8.5 
Q 42.40625 4.5 43.59375 3.203125 
Q 44.796875 1.90625 48.5 1.5 
z
" id="STIXGeneral-Regular-110"/>
       <path id="STIXGeneral-Regular-32"/>
       <path d="M 70.703125 66.203125 
L 70.703125 64.296875 
Q 65.59375 63.796875 64.09375 62.5 
Q 62.5 61.09375 61.84375 58.6875 
Q 61.203125 56.296875 61.203125 50.703125 
L 61.203125 -1.09375 
L 59.40625 -1.09375 
L 15.296875 53.796875 
L 15.296875 15 
Q 15.296875 7.40625 17 5.046875 
Q 18.703125 2.703125 24.59375 1.90625 
L 24.59375 0 
L 1.203125 0 
L 1.203125 1.90625 
Q 7.40625 2.59375 9.15625 4.84375 
Q 10.90625 7.09375 10.90625 15 
L 10.90625 59 
Q 8.296875 62.203125 6.5 63.25 
Q 4.703125 64.296875 1.203125 64.296875 
L 1.203125 66.203125 
L 18.203125 66.203125 
L 56.796875 17.90625 
L 56.796875 51.90625 
Q 56.796875 59.5 54.90625 61.703125 
Q 53.703125 63 52.25 63.453125 
Q 50.796875 63.90625 47 64.296875 
L 47 66.203125 
z
" id="STIXGeneral-Regular-78"/>
       <path d="M 48 5 
L 48 3.59375 
Q 40.203125 1.5 34.296875 -0.90625 
L 33.796875 -0.59375 
L 33.796875 7.59375 
L 33.59375 7.59375 
Q 27.296875 -1 19.296875 -1 
Q 13.59375 -1 10.34375 2.5 
Q 7.09375 6 7.09375 11.796875 
L 7.09375 36.90625 
Q 7.09375 40.59375 5.796875 42 
Q 4.5 43.40625 0.90625 43.59375 
L 0.90625 45 
L 15.5 45 
L 15.5 12.703125 
Q 15.5 9.296875 17.546875 7.046875 
Q 19.59375 4.796875 22.59375 4.796875 
Q 27.5 4.796875 31 7.90625 
Q 32.296875 9.09375 32.796875 10.140625 
Q 33.296875 11.203125 33.296875 13.703125 
L 33.296875 36.796875 
Q 33.296875 40.703125 31.890625 41.84375 
Q 30.5 43 25.90625 43.296875 
L 25.90625 45 
L 41.703125 45 
L 41.703125 10.703125 
Q 41.703125 7.203125 42.84375 6.09375 
Q 44 5 47.40625 5 
z
" id="STIXGeneral-Regular-117"/>
       <path d="M 77.5 0 
L 55.703125 0 
L 55.703125 1.5 
Q 59.90625 1.90625 61.046875 3.25 
Q 62.203125 4.59375 62.203125 9 
L 62.203125 29.59375 
Q 62.203125 35.59375 60.453125 38.1875 
Q 58.703125 40.796875 54.5 40.796875 
Q 51 40.796875 48.546875 39.390625 
Q 46.09375 38 43.796875 34.703125 
L 43.796875 9.5 
Q 43.796875 4.703125 45.25 3.140625 
Q 46.703125 1.59375 51 1.5 
L 51 0 
L 28.59375 0 
L 28.59375 1.5 
Q 33 1.796875 34.203125 2.9375 
Q 35.40625 4.09375 35.40625 8.59375 
L 35.40625 29.703125 
Q 35.40625 40.796875 28.90625 40.796875 
Q 26.09375 40.796875 22.9375 39.546875 
Q 19.796875 38.296875 18.296875 36.5 
Q 17 35 17 34.796875 
L 17 7 
Q 17 3.796875 18.390625 2.75 
Q 19.796875 1.703125 23.796875 1.5 
L 23.796875 0 
L 1.59375 0 
L 1.59375 1.5 
Q 5.796875 1.59375 7.1875 3.046875 
Q 8.59375 4.5 8.59375 8.796875 
L 8.59375 33.59375 
Q 8.59375 37.296875 7.796875 38.75 
Q 7 40.203125 5.09375 40.203125 
Q 3.59375 40.203125 1.90625 39.796875 
L 1.90625 41.5 
Q 8.703125 43.40625 15.796875 46 
L 16.59375 45.703125 
L 16.59375 38.296875 
L 16.796875 38.296875 
Q 21.296875 43 24.75 44.5 
Q 28.203125 46 32.09375 46 
Q 40 46 42.703125 37.59375 
Q 50.5 46 59 46 
Q 70.59375 46 70.59375 28 
L 70.59375 7.703125 
Q 70.59375 4.40625 71.59375 3.15625 
Q 72.59375 1.90625 74.90625 1.703125 
L 77.5 1.5 
z
" id="STIXGeneral-Regular-109"/>
       <path d="M 15.296875 68.09375 
L 15.296875 37.59375 
Q 16.90625 41.40625 20.546875 43.703125 
Q 24.203125 46 28.796875 46 
Q 36.703125 46 41.75 39.703125 
Q 46.796875 33.40625 46.796875 24 
Q 46.796875 13 40.09375 6 
Q 33.40625 -1 23.40625 -1 
Q 17.296875 -1 12.09375 1.046875 
Q 6.90625 3.09375 6.90625 5.59375 
L 6.90625 56.59375 
Q 6.90625 60.296875 6 61.34375 
Q 5.09375 62.40625 2 62.40625 
Q 1.296875 62.40625 0.296875 62.203125 
L 0.296875 63.90625 
L 3.296875 64.796875 
Q 13.5 67.90625 14.796875 68.296875 
z
M 15.296875 31.796875 
L 15.296875 7.40625 
Q 15.296875 5.09375 18.140625 3.640625 
Q 21 2.203125 25 2.203125 
Q 30.90625 2.203125 34.296875 6.5 
Q 38 11.09375 38 19.703125 
Q 38 29.5 34.09375 35 
Q 30.796875 39.703125 25.203125 39.703125 
Q 21.203125 39.703125 18.25 37.34375 
Q 15.296875 35 15.296875 31.796875 
z
" id="STIXGeneral-Regular-98"/>
      </defs>
      <use xlink:href="#STIXGeneral-Regular-73"/>
      <use x="33.299988" xlink:href="#STIXGeneral-Regular-116"/>
      <use x="61.099976" xlink:href="#STIXGeneral-Regular-101"/>
      <use x="105.499969" xlink:href="#STIXGeneral-Regular-114"/>
      <use x="138.799957" xlink:href="#STIXGeneral-Regular-97"/>
      <use x="183.199951" xlink:href="#STIXGeneral-Regular-116"/>
      <use x="210.999939" xlink:href="#STIXGeneral-Regular-105"/>
      <use x="238.799927" xlink:href="#STIXGeneral-Regular-111"/>
      <use x="288.799911" xlink:href="#STIXGeneral-Regular-110"/>
      <use x="338.799896" xlink:href="#STIXGeneral-Regular-32"/>
      <use x="363.799881" xlink:href="#STIXGeneral-Regular-78"/>
      <use x="435.999863" xlink:href="#STIXGeneral-Regular-117"/>
      <use x="485.999847" xlink:href="#STIXGeneral-Regular-109"/>
      <use x="563.799835" xlink:href="#STIXGeneral-Regular-98"/>
      <use x="613.79982" xlink:href="#STIXGeneral-Regular-101"/>
      <use x="658.199814" xlink:href="#STIXGeneral-Regular-114"/>
     </g>
    </g>
   </g>
   <g id="matplotlib.axis_2">
    <g id="ytick_1">
     <g id="line2d_11">
      <defs>
       <path d="M 0 0 
L 4 0 
" id="me4b2c3637d" style="stroke:#000000;stroke-width:0.3;"/>
      </defs>
      <g>
       <use style="stroke:#000000;stroke-width:0.3;" x="40.55" xlink:href="#me4b2c3637d" y="164.461905"/>
      </g>
     </g>
     <g id="line2d_12">
      <defs>
       <path d="M 0 0 
L -4 0 
" id="ma0a04b0d6a" style="stroke:#000000;stroke-width:0.3;"/>
      </defs>
      <g>
       <use style="stroke:#000000;stroke-width:0.3;" x="192.731818" xlink:href="#ma0a04b0d6a" y="164.461905"/>
      </g>
     </g>
     <g id="text_7">
      <!-- −20 -->
      <g transform="translate(20.2 167.876749)scale(0.1 -0.1)">
       <defs>
        <path d="M 62.09375 22 
L 6.40625 22 
L 6.40625 28.59375 
L 62.09375 28.59375 
z
" id="STIXGeneral-Regular-8722"/>
       </defs>
       <use xlink:href="#STIXGeneral-Regular-8722"/>
       <use x="68.499985" xlink:href="#STIXGeneral-Regular-50"/>
       <use x="118.499969" xlink:href="#STIXGeneral-Regular-48"/>
      </g>
     </g>
    </g>
    <g id="ytick_2">
     <g id="line2d_13">
      <g>
       <use style="stroke:#000000;stroke-width:0.3;" x="40.55" xlink:href="#me4b2c3637d" y="143.13811"/>
      </g>
     </g>
     <g id="line2d_14">
      <g>
       <use style="stroke:#000000;stroke-width:0.3;" x="192.731818" xlink:href="#ma0a04b0d6a" y="143.13811"/>
      </g>
     </g>
     <g id="text_8">
      <!-- −10 -->
      <g transform="translate(20.2 146.552953)scale(0.1 -0.1)">
       <use xlink:href="#STIXGeneral-Regular-8722"/>
       <use x="68.499985" xlink:href="#STIXGeneral-Regular-49"/>
       <use x="118.499969" xlink:href="#STIXGeneral-Regular-48"/>
      </g>
     </g>
    </g>
    <g id="ytick_3">
     <g id="line2d_15">
      <g>
       <use style="stroke:#000000;stroke-width:0.3;" x="40.55" xlink:href="#me4b2c3637d" y="121.814314"/>
      </g>
     </g>
     <g id="line2d_16">
      <g>
       <use style="stroke:#000000;stroke-width:0.3;" x="192.731818" xlink:href="#ma0a04b0d6a" y="121.814314"/>
      </g>
     </g>
     <g id="text_9">
      <!-- 0 -->
      <g transform="translate(32.05 125.229158)scale(0.1 -0.1)">
       <use xlink:href="#STIXGeneral-Regular-48"/>
      </g>
     </g>
    </g>
    <g id="ytick_4">
     <g id="line2d_17">
      <g>
       <use style="stroke:#000000;stroke-width:0.3;" x="40.55" xlink:href="#me4b2c3637d" y="100.490519"/>
      </g>
     </g>
     <g id="line2d_18">
      <g>
       <use style="stroke:#000000;stroke-width:0.3;" x="192.731818" xlink:href="#ma0a04b0d6a" y="100.490519"/>
      </g>
     </g>
     <g id="text_10">
      <!-- 10 -->
      <g transform="translate(27.05 103.905363)scale(0.1 -0.1)">
       <use xlink:href="#STIXGeneral-Regular-49"/>
       <use x="49.999985" xlink:href="#STIXGeneral-Regular-48"/>
      </g>
     </g>
    </g>
    <g id="ytick_5">
     <g id="line2d_19">
      <g>
       <use style="stroke:#000000;stroke-width:0.3;" x="40.55" xlink:href="#me4b2c3637d" y="79.166723"/>
      </g>
     </g>
     <g id="line2d_20">
      <g>
       <use style="stroke:#000000;stroke-width:0.3;" x="192.731818" xlink:href="#ma0a04b0d6a" y="79.166723"/>
      </g>
     </g>
     <g id="text_11">
      <!-- 20 -->
      <g transform="translate(27.05 82.581567)scale(0.1 -0.1)">
       <use xlink:href="#STIXGeneral-Regular-50"/>
       <use x="49.999985" xlink:href="#STIXGeneral-Regular-48"/>
      </g>
     </g>
    </g>
    <g id="ytick_6">
     <g id="line2d_21">
      <g>
       <use style="stroke:#000000;stroke-width:0.3;" x="40.55" xlink:href="#me4b2c3637d" y="57.842928"/>
      </g>
     </g>
     <g id="line2d_22">
      <g>
       <use style="stroke:#000000;stroke-width:0.3;" x="192.731818" xlink:href="#ma0a04b0d6a" y="57.842928"/>
      </g>
     </g>
     <g id="text_12">
      <!-- 30 -->
      <g transform="translate(27.05 61.257772)scale(0.1 -0.1)">
       <defs>
        <path d="M 6.09375 51 
L 4.5 51.40625 
Q 6.796875 58.90625 11.6875 63.25 
Q 16.59375 67.59375 24.09375 67.59375 
Q 31.09375 67.59375 35.390625 63.796875 
Q 39.703125 60 39.703125 53.90625 
Q 39.703125 45.703125 30.40625 40.09375 
Q 35.90625 37.703125 38.703125 34.796875 
Q 43.09375 29.90625 43.09375 21.90625 
Q 43.09375 13.90625 38.5 7.90625 
Q 35.09375 3.296875 28.75 0.9375 
Q 22.40625 -1.40625 15.296875 -1.40625 
Q 4.09375 -1.40625 4.09375 4.296875 
Q 4.09375 5.90625 5.296875 6.90625 
Q 6.5 7.90625 8.203125 7.90625 
Q 10.703125 7.90625 14.296875 5.296875 
Q 18.703125 2.203125 22.90625 2.203125 
Q 28.40625 2.203125 32.15625 6.640625 
Q 35.90625 11.09375 35.90625 17.5 
Q 35.90625 29 25.5 32 
Q 22.40625 33 15.296875 33 
L 15.296875 34.40625 
Q 20.90625 36.296875 23.703125 38 
Q 31.796875 42.59375 31.796875 51.40625 
Q 31.796875 56.40625 28.9375 59 
Q 26.09375 61.59375 21 61.59375 
Q 12 61.59375 6.09375 51 
z
" id="STIXGeneral-Regular-51"/>
       </defs>
       <use xlink:href="#STIXGeneral-Regular-51"/>
       <use x="49.999985" xlink:href="#STIXGeneral-Regular-48"/>
      </g>
     </g>
    </g>
    <g id="ytick_7">
     <g id="line2d_23">
      <g>
       <use style="stroke:#000000;stroke-width:0.3;" x="40.55" xlink:href="#me4b2c3637d" y="36.519133"/>
      </g>
     </g>
     <g id="line2d_24">
      <g>
       <use style="stroke:#000000;stroke-width:0.3;" x="192.731818" xlink:href="#ma0a04b0d6a" y="36.519133"/>
      </g>
     </g>
     <g id="text_13">
      <!-- 40 -->
      <g transform="translate(27.05 39.933976)scale(0.1 -0.1)">
       <defs>
        <path d="M 47.296875 16.703125 
L 37 16.703125 
L 37 0 
L 29.203125 0 
L 29.203125 16.703125 
L 1.203125 16.703125 
L 1.203125 23.09375 
L 32.59375 67.59375 
L 37 67.59375 
L 37 23.09375 
L 47.296875 23.09375 
z
M 29.203125 23.09375 
L 29.203125 57.40625 
L 5.203125 23.09375 
z
" id="STIXGeneral-Regular-52"/>
       </defs>
       <use xlink:href="#STIXGeneral-Regular-52"/>
       <use x="49.999985" xlink:href="#STIXGeneral-Regular-48"/>
      </g>
     </g>
    </g>
    <g id="ytick_8">
     <g id="line2d_25">
      <g>
       <use style="stroke:#000000;stroke-width:0.3;" x="40.55" xlink:href="#me4b2c3637d" y="15.195337"/>
      </g>
     </g>
     <g id="line2d_26">
      <g>
       <use style="stroke:#000000;stroke-width:0.3;" x="192.731818" xlink:href="#ma0a04b0d6a" y="15.195337"/>
      </g>
     </g>
     <g id="text_14">
      <!-- 50 -->
      <g transform="translate(27.05 18.610181)scale(0.1 -0.1)">
       <use xlink:href="#STIXGeneral-Regular-53"/>
       <use x="49.999985" xlink:href="#STIXGeneral-Regular-48"/>
      </g>
     </g>
    </g>
    <g id="text_15">
     <!-- Energy (eV) -->
     <g transform="translate(14.020313 113.59)rotate(-90)scale(0.1 -0.1)">
      <defs>
       <path d="M 59.703125 16.90625 
L 55.09375 0 
L 1.203125 0 
L 1.203125 1.90625 
Q 6.90625 2.296875 8.40625 3.9375 
Q 9.90625 5.59375 9.90625 11.40625 
L 9.90625 55 
Q 9.90625 60.59375 8.34375 62.296875 
Q 6.796875 64 1.203125 64.296875 
L 1.203125 66.203125 
L 54.203125 66.203125 
L 54.59375 51.90625 
L 52.09375 51.90625 
Q 51 58.59375 48.203125 60.5 
Q 45.40625 62.40625 36.703125 62.40625 
L 23.59375 62.40625 
Q 21.40625 62.40625 20.75 61.75 
Q 20.09375 61.09375 20.09375 58.796875 
L 20.09375 36.796875 
L 35.203125 36.796875 
Q 41.5 36.796875 43.546875 38.59375 
Q 45.59375 40.40625 46.5 46.40625 
L 48.796875 46.40625 
L 48.796875 23 
L 46.5 23 
Q 45.59375 29.296875 43.59375 31 
Q 41.59375 32.703125 35.203125 32.703125 
L 20.09375 32.703125 
L 20.09375 8.40625 
Q 20.09375 5.40625 22.1875 4.546875 
Q 24.296875 3.703125 30.203125 3.703125 
L 33.796875 3.703125 
Q 44.5 3.703125 49 6.296875 
Q 53.5 8.90625 56.90625 16.90625 
z
" id="STIXGeneral-Regular-69"/>
       <path d="M 47 38.796875 
L 38.703125 38.796875 
Q 40.59375 34.5 40.59375 30.40625 
Q 40.59375 22.703125 35.390625 18.796875 
Q 30.203125 14.90625 25 14.90625 
Q 23.90625 14.90625 21.203125 15.203125 
L 19.296875 15.40625 
Q 17.296875 14.796875 15.296875 12.6875 
Q 13.296875 10.59375 13.296875 9.09375 
Q 13.296875 6.796875 21.09375 6.40625 
L 34 5.796875 
Q 39.5 5.59375 42.796875 2.6875 
Q 46.09375 -0.203125 46.09375 -4.90625 
Q 46.09375 -10.703125 40.09375 -15.40625 
Q 31.796875 -21.796875 20.09375 -21.796875 
Q 12.90625 -21.796875 7.84375 -18.9375 
Q 2.796875 -16.09375 2.796875 -12.09375 
Q 2.796875 -9.296875 5 -6.546875 
Q 7.203125 -3.796875 12.59375 0.09375 
Q 9.40625 1.59375 8.34375 2.6875 
Q 7.296875 3.796875 7.296875 5.40625 
Q 7.296875 8.296875 11.90625 12.296875 
Q 14.203125 14.296875 16.203125 16.296875 
Q 11.203125 18.796875 9.046875 21.890625 
Q 6.90625 25 6.90625 29.703125 
Q 6.90625 36.5 11.75 41.25 
Q 16.59375 46 23.59375 46 
Q 27.59375 46 31.59375 44.5 
L 33.796875 43.703125 
Q 36.703125 42.703125 39.296875 42.703125 
L 47 42.703125 
z
M 15.203125 33.796875 
L 15.203125 33.5 
Q 15.203125 26.296875 18.046875 21.84375 
Q 20.90625 17.40625 25.5 17.40625 
Q 28.90625 17.40625 30.90625 19.84375 
Q 32.90625 22.296875 32.90625 26.40625 
Q 32.90625 33 29.90625 38.5 
Q 27.40625 43.203125 22.59375 43.203125 
Q 19.09375 43.203125 17.140625 40.703125 
Q 15.203125 38.203125 15.203125 33.796875 
z
M 43.296875 -6.40625 
Q 43.296875 -3.59375 40.546875 -2.546875 
Q 37.796875 -1.5 30.90625 -1.5 
Q 21 -1.5 14.703125 -0.203125 
Q 11.703125 -3.796875 10.75 -5.4375 
Q 9.796875 -7.09375 9.796875 -8.796875 
Q 9.796875 -12.09375 13.75 -14.09375 
Q 17.703125 -16.09375 24.296875 -16.09375 
Q 32.796875 -16.09375 38.046875 -13.4375 
Q 43.296875 -10.796875 43.296875 -6.40625 
z
" id="STIXGeneral-Regular-103"/>
       <path d="M 47.5 45 
L 47.5 43.5 
Q 45.703125 43.296875 44.59375 42.1875 
Q 43.5 41.09375 42.5 38.40625 
L 27.5 -2.5 
Q 23.59375 -13.09375 19.640625 -17.4375 
Q 15.703125 -21.796875 10 -21.796875 
Q 6.796875 -21.796875 4.890625 -20.140625 
Q 3 -18.5 3 -16 
Q 3 -14.09375 4.25 -12.75 
Q 5.5 -11.40625 7.296875 -11.40625 
Q 10.203125 -11.40625 12.5 -12.703125 
Q 13.796875 -13.40625 15.09375 -13.40625 
Q 17.203125 -13.40625 20.09375 -9 
Q 21.5 -7 22.796875 -3.296875 
Q 24.09375 0.40625 24.09375 1.796875 
Q 24.09375 3.09375 19.90625 11.90625 
L 6.703125 40.09375 
Q 5.40625 43 1.40625 43.59375 
L 1.40625 45 
L 21.90625 45 
L 21.90625 43.5 
Q 18.703125 43.40625 17.453125 42.796875 
Q 16.203125 42.203125 16.203125 40.796875 
Q 16.203125 39.703125 17.5 36.703125 
L 28.703125 11.703125 
L 38.40625 39.296875 
Q 38.796875 40.203125 38.796875 41.09375 
Q 38.796875 43.5 34.203125 43.5 
L 34.203125 45 
z
" id="STIXGeneral-Regular-121"/>
       <path d="M 30.40625 -16.09375 
L 29.203125 -17.703125 
Q 17.59375 -11.09375 11.1875 0.5 
Q 4.796875 12.09375 4.796875 25.203125 
Q 4.796875 52.90625 29.5 67.59375 
L 30.40625 66 
Q 20.203125 57.296875 16.796875 48.84375 
Q 13.40625 40.40625 13.40625 25.5 
Q 13.40625 10.703125 16.90625 1.5 
Q 20.40625 -7.703125 30.40625 -16.09375 
z
" id="STIXGeneral-Regular-40"/>
       <path d="M 69.703125 66.203125 
L 69.703125 64.296875 
Q 66.59375 64.203125 64.59375 62.34375 
Q 62.59375 60.5 60.5 55.203125 
L 38.296875 -1.09375 
L 36.796875 -1.09375 
L 12.40625 53.296875 
Q 9.203125 60.40625 7.296875 62.296875 
Q 5.40625 64.203125 1.59375 64.296875 
L 1.59375 66.203125 
L 28.09375 66.203125 
L 28.09375 64.296875 
L 25.296875 64.09375 
Q 20.796875 63.796875 20.796875 61 
Q 20.796875 59 24.703125 50.296875 
L 39.90625 16.09375 
L 54.59375 53 
Q 56.5 57.796875 56.5 60.203125 
Q 56.5 60.90625 56.34375 61.453125 
Q 56.203125 62 56 62.390625 
Q 55.796875 62.796875 55.25 63.09375 
Q 54.703125 63.40625 54.390625 63.546875 
Q 54.09375 63.703125 53.296875 63.84375 
Q 52.5 64 52.140625 64.046875 
Q 51.796875 64.09375 50.75 64.1875 
Q 49.703125 64.296875 49.296875 64.296875 
L 49.296875 66.203125 
z
" id="STIXGeneral-Regular-86"/>
       <path d="M 2.90625 66 
L 4.09375 67.59375 
Q 15.5 60.796875 22 49.1875 
Q 28.5 37.59375 28.5 24.703125 
Q 28.5 -2.59375 3.796875 -17.703125 
L 2.90625 -16.09375 
Q 13.203125 -7.59375 16.546875 0.84375 
Q 19.90625 9.296875 19.90625 24.40625 
Q 19.90625 39.59375 16.546875 48.75 
Q 13.203125 57.90625 2.90625 66 
z
" id="STIXGeneral-Regular-41"/>
      </defs>
      <use xlink:href="#STIXGeneral-Regular-69"/>
      <use x="61.099991" xlink:href="#STIXGeneral-Regular-110"/>
      <use x="111.099976" xlink:href="#STIXGeneral-Regular-101"/>
      <use x="155.499969" xlink:href="#STIXGeneral-Regular-114"/>
      <use x="188.799957" xlink:href="#STIXGeneral-Regular-103"/>
      <use x="238.799942" xlink:href="#STIXGeneral-Regular-121"/>
      <use x="288.799927" xlink:href="#STIXGeneral-Regular-32"/>
      <use x="313.799911" xlink:href="#STIXGeneral-Regular-40"/>
      <use x="347.099899" xlink:href="#STIXGeneral-Regular-101"/>
      <use x="391.499893" xlink:href="#STIXGeneral-Regular-86"/>
      <use x="463.699875" xlink:href="#STIXGeneral-Regular-41"/>
     </g>
    </g>
   </g>
   <g id="line2d_27">
    <path clip-path="url(#p502f2f1a7c)" d="M 47.467355 14.617168 
L 54.384711 150.923113 
L 61.302066 160.039679 
L 68.219421 160.157117 
L 75.136777 160.157748 
L 82.054132 142.088068 
L 88.971488 148.752028 
L 95.888843 151.330604 
L 102.806198 154.699853 
L 109.723554 158.702587 
L 116.640909 161.312876 
L 123.558264 162.135002 
L 130.47562 162.694443 
L 137.392975 162.85057 
L 144.310331 162.852993 
L 151.227686 162.862789 
L 158.145041 162.865775 
L 165.062397 162.866467 
L 171.979752 162.867011 
L 178.897107 162.867229 
L 185.814463 162.867273 
" style="fill:none;stroke:#000000;stroke-linecap:square;stroke-width:3;"/>
   </g>
   <g id="line2d_28">
    <path clip-path="url(#p502f2f1a7c)" d="M 47.467355 14.612727 
L 54.384711 150.923071 
L 61.302066 160.03608 
L 68.219421 160.153527 
L 75.136777 160.154158 
L 82.054132 142.087996 
L 88.971488 148.749036 
L 95.888843 151.327959 
L 102.806198 154.699853 
L 109.723554 158.702587 
L 116.640909 161.312876 
L 123.558264 162.135002 
L 130.47562 162.694443 
L 137.392975 162.85057 
L 144.310331 162.852993 
L 151.227686 162.862789 
L 158.145041 162.865775 
L 165.062397 162.866467 
L 171.979752 162.867011 
L 178.897107 162.867229 
L 185.814463 162.867273 
" style="fill:none;stroke:#87ceeb;stroke-dasharray:2.59,1.12;stroke-dashoffset:0;stroke-width:0.7;"/>
   </g>
   <g id="patch_3">
    <path d="M 40.55 170.28 
L 40.55 7.2 
" style="fill:none;stroke:#000000;stroke-linecap:square;stroke-linejoin:miter;stroke-width:0.4;"/>
   </g>
   <g id="patch_4">
    <path d="M 192.731818 170.28 
L 192.731818 7.2 
" style="fill:none;stroke:#000000;stroke-linecap:square;stroke-linejoin:miter;stroke-width:0.4;"/>
   </g>
   <g id="patch_5">
    <path d="M 40.55 170.28 
L 192.731818 170.28 
" style="fill:none;stroke:#000000;stroke-linecap:square;stroke-linejoin:miter;stroke-width:0.4;"/>
   </g>
   <g id="patch_6">
    <path d="M 40.55 7.2 
L 192.731818 7.2 
" style="fill:none;stroke:#000000;stroke-linecap:square;stroke-linejoin:miter;stroke-width:0.4;"/>
   </g>
   <g id="legend_1">
    <g id="patch_7">
     <path d="M 105.420881 43.559375 
L 185.731818 43.559375 
Q 187.731818 43.559375 187.731818 41.559375 
L 187.731818 14.2 
Q 187.731818 12.2 185.731818 12.2 
L 105.420881 12.2 
Q 103.420881 12.2 103.420881 14.2 
L 103.420881 41.559375 
Q 103.420881 43.559375 105.420881 43.559375 
z
" style="fill:#ffffff;opacity:0.8;stroke:#cccccc;stroke-linejoin:miter;"/>
    </g>
    <g id="line2d_29">
     <path d="M 107.420881 19.7 
L 127.420881 19.7 
" style="fill:none;stroke:#000000;stroke-linecap:square;stroke-width:3;"/>
    </g>
    <g id="line2d_30"/>
    <g id="text_16">
     <!-- e_fr_energy -->
     <g transform="translate(135.420881 23.2)scale(0.1 -0.1)">
      <defs>
       <path d="M 50 -12.5 
L 0 -12.5 
L 0 -7.5 
L 50 -7.5 
z
" id="STIXGeneral-Regular-95"/>
       <path d="M 2.09375 45 
L 10.296875 45 
Q 10.40625 51 11.09375 54.34375 
Q 11.796875 57.703125 13.796875 61.09375 
Q 18 68.296875 27.90625 68.296875 
Q 32.40625 68.296875 35.34375 66.546875 
Q 38.296875 64.796875 38.296875 62.09375 
Q 38.296875 60.40625 37.09375 59.203125 
Q 35.90625 58 34.09375 58 
Q 31.703125 58 29.59375 61.59375 
Q 27.203125 65.5 24.296875 65.5 
Q 18.703125 65.5 18.703125 56.59375 
L 18.703125 45 
L 30.90625 45 
L 30.90625 41.796875 
L 18.703125 41.796875 
L 18.703125 10.40625 
Q 18.703125 4.796875 20.296875 3.25 
Q 21.90625 1.703125 28 1.5 
L 28 0 
L 2 0 
L 2 1.5 
Q 7.40625 1.796875 8.84375 3.34375 
Q 10.296875 4.90625 10.296875 10.40625 
L 10.296875 41.796875 
L 2.09375 41.796875 
z
" id="STIXGeneral-Regular-102"/>
      </defs>
      <use xlink:href="#STIXGeneral-Regular-101"/>
      <use x="44.399994" xlink:href="#STIXGeneral-Regular-95"/>
      <use x="94.399979" xlink:href="#STIXGeneral-Regular-102"/>
      <use x="127.699966" xlink:href="#STIXGeneral-Regular-114"/>
      <use x="160.999954" xlink:href="#STIXGeneral-Regular-95"/>
      <use x="210.999939" xlink:href="#STIXGeneral-Regular-101"/>
      <use x="255.399933" xlink:href="#STIXGeneral-Regular-110"/>
      <use x="305.399918" xlink:href="#STIXGeneral-Regular-101"/>
      <use x="349.799911" xlink:href="#STIXGeneral-Regular-114"/>
      <use x="383.099899" xlink:href="#STIXGeneral-Regular-103"/>
      <use x="433.099884" xlink:href="#STIXGeneral-Regular-121"/>
     </g>
    </g>
    <g id="line2d_31">
     <path d="M 107.420881 33.879688 
L 127.420881 33.879688 
" style="fill:none;stroke:#87ceeb;stroke-dasharray:2.59,1.12;stroke-dashoffset:0;stroke-width:0.7;"/>
    </g>
    <g id="line2d_32"/>
    <g id="text_17">
     <!-- e_0_energy -->
     <g transform="translate(135.420881 37.379688)scale(0.1 -0.1)">
      <use xlink:href="#STIXGeneral-Regular-101"/>
      <use x="44.399994" xlink:href="#STIXGeneral-Regular-95"/>
      <use x="94.399979" xlink:href="#STIXGeneral-Regular-48"/>
      <use x="144.399963" xlink:href="#STIXGeneral-Regular-95"/>
      <use x="194.399948" xlink:href="#STIXGeneral-Regular-101"/>
      <use x="238.799942" xlink:href="#STIXGeneral-Regular-110"/>
      <use x="288.799927" xlink:href="#STIXGeneral-Regular-101"/>
      <use x="333.199921" xlink:href="#STIXGeneral-Regular-114"/>
      <use x="366.499908" xlink:href="#STIXGeneral-Regular-103"/>
      <use x="416.499893" xlink:href="#STIXGeneral-Regular-121"/>
     </g>
    </g>
   </g>
  </g>
  <g id="axes_2">
   <g id="PathCollection_1">
    <defs>
     <path d="M 0 0.01118 
C 0.002965 0.01118 0.005809 0.010002 0.007906 0.007906 
C 0.010002 0.005809 0.01118 0.002965 0.01118 0 
C 0.01118 -0.002965 0.010002 -0.005809 0.007906 -0.007906 
C 0.005809 -0.010002 0.002965 -0.01118 0 -0.01118 
C -0.002965 -0.01118 -0.005809 -0.010002 -0.007906 -0.007906 
C -0.010002 -0.005809 -0.01118 -0.002965 -0.01118 0 
C -0.01118 0.002965 -0.010002 0.005809 -0.007906 0.007906 
C -0.005809 0.010002 -0.002965 0.01118 0 0.01118 
z
" id="m4823963acf" style="stroke:#ffffff;"/>
    </defs>
    <g clip-path="url(#p36e3e6b7d4)">
     <use style="fill:#ffffff;stroke:#ffffff;" x="368.432645" xlink:href="#m4823963acf" y="128.677365"/>
    </g>
   </g>
   <g id="PathCollection_2">
    <g clip-path="url(#p36e3e6b7d4)">
     <use style="fill:#ffffff;stroke:#ffffff;" x="230.085537" xlink:href="#m4823963acf" y="48.802635"/>
    </g>
   </g>
   <g id="Quiver_1">
    <path clip-path="url(#p36e3e6b7d4)" d="M 276.201228 128.106683 
L 363.296508 128.106683 
L 362.725826 126.96532 
L 368.432645 128.677365 
L 362.725826 130.389411 
L 363.296508 129.248047 
L 276.201228 129.248047 
L 276.201228 128.106683 
"/>
    <path clip-path="url(#p36e3e6b7d4)" d="M 275.707003 128.962706 
L 232.15938 53.536 
L 231.456271 54.600907 
L 230.085537 48.802635 
L 234.421621 52.888862 
L 233.14783 52.965319 
L 276.695453 128.392024 
L 275.707003 128.962706 
"/>
   </g>
   <g id="Quiver_2">
    <path clip-path="url(#p36e3e6b7d4)" d="M 276.056977 74.87536 
L 314.064289 64.948303 
L 313.223696 63.988203 
L 319.177934 64.202506 
L 314.089 67.301155 
L 314.352724 66.05262 
L 276.345411 75.979677 
L 276.056977 74.87536 
" style="fill:#ff0000;"/>
    <path clip-path="url(#p36e3e6b7d4)" d="M 322.461206 102.60464 
L 284.453894 112.531697 
L 285.294487 113.491797 
L 279.340249 113.277494 
L 284.429183 110.178845 
L 284.165459 111.42738 
L 322.172772 101.500323 
L 322.461206 102.60464 
" style="fill:#ff0000;"/>
   </g>
   <g id="PolyCollection_1">
    <path d="M 308.39 44.238216 
L 345.864773 44.238216 
L 345.294091 43.096853 
L 351.000909 44.808898 
L 345.294091 46.520944 
L 345.864773 45.37958 
L 308.39 45.37958 
L 308.39 44.238216 
z
" style="fill:#ff0000;"/>
   </g>
   <g id="text_18">
    <!-- Force (arb. units) -->
    <g transform="translate(295.120455 35.438586)scale(0.1 -0.1)">
     <defs>
      <path d="M 54.59375 51.90625 
L 52.09375 51.90625 
Q 51 58.703125 48.34375 60.546875 
Q 45.703125 62.40625 36.703125 62.40625 
L 23.5 62.40625 
Q 21.40625 62.40625 20.75 61.65625 
Q 20.09375 60.90625 20.09375 58.5 
L 20.09375 36.796875 
L 34.296875 36.796875 
Q 40.59375 36.796875 42.75 38.59375 
Q 44.90625 40.40625 45.59375 46.296875 
L 47.90625 46.296875 
L 47.90625 23 
L 45.59375 23 
Q 45 29.09375 42.890625 30.890625 
Q 40.796875 32.703125 34.296875 32.703125 
L 20.09375 32.703125 
L 20.09375 11.203125 
Q 20.09375 5.5 21.75 3.84375 
Q 23.40625 2.203125 29.203125 1.90625 
L 29.203125 0 
L 1.09375 0 
L 1.09375 1.90625 
Q 6.796875 2.296875 8.34375 4.046875 
Q 9.90625 5.796875 9.90625 12.296875 
L 9.90625 55.09375 
Q 9.90625 60.59375 8.40625 62.25 
Q 6.90625 63.90625 1.203125 64.296875 
L 1.203125 66.203125 
L 54.09375 66.203125 
z
" id="STIXGeneral-Regular-70"/>
      <path d="M 39.796875 15.59375 
L 41.203125 14.703125 
Q 36.90625 6.296875 33 3.203125 
Q 27.90625 -1 21.5 -1 
Q 13.203125 -1 7.84375 5.25 
Q 2.5 11.5 2.5 21.203125 
Q 2.5 33.90625 10.90625 40.90625 
Q 17.09375 46 24.40625 46 
Q 30.703125 46 35.25 42.953125 
Q 39.796875 39.90625 39.796875 35.703125 
Q 39.796875 34 38.390625 32.75 
Q 37 31.5 35.09375 31.5 
Q 31.59375 31.5 30.296875 36.09375 
L 29.703125 38.296875 
Q 28.90625 41.09375 27.703125 42.09375 
Q 26.5 43.09375 23.796875 43.09375 
Q 17.703125 43.09375 13.953125 38.296875 
Q 10.203125 33.5 10.203125 25.703125 
Q 10.203125 17.09375 14.5 11.640625 
Q 18.796875 6.203125 25.703125 6.203125 
Q 30 6.203125 33.09375 8.25 
Q 36.203125 10.296875 39.796875 15.59375 
z
" id="STIXGeneral-Regular-99"/>
      <path d="M 18.09375 4.296875 
Q 18.09375 2.09375 16.4375 0.5 
Q 14.796875 -1.09375 12.5 -1.09375 
Q 10.203125 -1.09375 8.59375 0.5 
Q 7 2.09375 7 4.390625 
Q 7 6.703125 8.640625 8.34375 
Q 10.296875 10 12.59375 10 
Q 14.796875 10 16.4375 8.296875 
Q 18.09375 6.59375 18.09375 4.296875 
z
" id="STIXGeneral-Regular-46"/>
      <path d="M 15.59375 30.09375 
L 26 23.796875 
Q 31 20.796875 32.890625 18.1875 
Q 34.796875 15.59375 34.796875 11.5 
Q 34.796875 6.5 30.640625 2.75 
Q 26.5 -1 20.796875 -1 
Q 16.09375 -1 13.5 -0.09375 
Q 10.796875 0.796875 8.90625 0.796875 
Q 7.203125 0.796875 6.5 -0.40625 
L 5.203125 -0.40625 
L 5.203125 15.296875 
L 6.796875 15.296875 
Q 8.40625 8 11.40625 4.59375 
Q 14.40625 1.203125 19.5 1.203125 
Q 23.203125 1.203125 25.5 3.296875 
Q 27.796875 5.40625 27.796875 8.59375 
Q 27.796875 13.203125 22.5 16.09375 
L 17.09375 19.09375 
Q 5.09375 25.796875 5.09375 33.59375 
Q 5.09375 39.40625 8.84375 42.65625 
Q 12.59375 45.90625 18.90625 45.90625 
Q 23.296875 45.90625 25.59375 44.796875 
Q 27.40625 44 28.40625 44 
Q 29.09375 44 30 45 
L 31.09375 45 
L 31.59375 31.40625 
L 30.09375 31.40625 
Q 28.40625 38.203125 25.84375 40.953125 
Q 23.296875 43.703125 18.796875 43.703125 
Q 15.40625 43.703125 13.34375 42 
Q 11.296875 40.296875 11.296875 36.90625 
Q 11.296875 35.203125 12.4375 33.25 
Q 13.59375 31.296875 15.59375 30.09375 
z
" id="STIXGeneral-Regular-115"/>
     </defs>
     <use xlink:href="#STIXGeneral-Regular-70"/>
     <use x="55.599991" xlink:href="#STIXGeneral-Regular-111"/>
     <use x="105.599976" xlink:href="#STIXGeneral-Regular-114"/>
     <use x="138.899963" xlink:href="#STIXGeneral-Regular-99"/>
     <use x="183.299957" xlink:href="#STIXGeneral-Regular-101"/>
     <use x="227.699951" xlink:href="#STIXGeneral-Regular-32"/>
     <use x="252.699936" xlink:href="#STIXGeneral-Regular-40"/>
     <use x="285.999924" xlink:href="#STIXGeneral-Regular-97"/>
     <use x="330.399918" xlink:href="#STIXGeneral-Regular-114"/>
     <use x="363.699905" xlink:href="#STIXGeneral-Regular-98"/>
     <use x="413.69989" xlink:href="#STIXGeneral-Regular-46"/>
     <use x="438.699875" xlink:href="#STIXGeneral-Regular-32"/>
     <use x="463.69986" xlink:href="#STIXGeneral-Regular-117"/>
     <use x="513.699844" xlink:href="#STIXGeneral-Regular-110"/>
     <use x="563.699829" xlink:href="#STIXGeneral-Regular-105"/>
     <use x="591.499817" xlink:href="#STIXGeneral-Regular-116"/>
     <use x="619.299805" xlink:href="#STIXGeneral-Regular-115"/>
     <use x="658.199799" xlink:href="#STIXGeneral-Regular-41"/>
    </g>
   </g>
   <g id="line2d_33">
    <path clip-path="url(#p36e3e6b7d4)" d="M 368.432645 128.677365 
L 322.316954 48.802635 
L 230.085537 48.802635 
L 276.201228 128.677365 
L 368.432645 128.677365 
" style="fill:none;stroke:#ff8000;stroke-linecap:square;stroke-opacity:0.4;stroke-width:0.7;"/>
   </g>
   <g id="line2d_34">
    <path clip-path="url(#p36e3e6b7d4)" d="M 230.085537 48.802635 
L 230.085537 48.802635 
L 276.201228 128.677365 
L 276.201228 128.677365 
L 230.085537 48.802635 
" style="fill:none;stroke:#ff8000;stroke-linecap:square;stroke-opacity:0.4;stroke-width:0.7;"/>
   </g>
   <g id="line2d_35">
    <path clip-path="url(#p36e3e6b7d4)" d="M 276.201228 128.677365 
L 368.432645 128.677365 
L 368.432645 128.677365 
L 276.201228 128.677365 
L 276.201228 128.677365 
" style="fill:none;stroke:#ff8000;stroke-linecap:square;stroke-opacity:0.4;stroke-width:0.7;"/>
   </g>
   <g id="line2d_36">
    <path clip-path="url(#p36e3e6b7d4)" d="M 322.316954 48.802635 
L 322.316954 48.802635 
L 368.432645 128.677365 
L 368.432645 128.677365 
L 322.316954 48.802635 
" style="fill:none;stroke:#ff8000;stroke-linecap:square;stroke-opacity:0.4;stroke-width:0.7;"/>
   </g>
   <g id="line2d_37">
    <path clip-path="url(#p36e3e6b7d4)" d="M 230.085537 48.802635 
L 322.316954 48.802635 
L 322.316954 48.802635 
L 230.085537 48.802635 
L 230.085537 48.802635 
" style="fill:none;stroke:#ff8000;stroke-linecap:square;stroke-opacity:0.4;stroke-width:0.7;"/>
   </g>
   <g id="line2d_38">
    <path clip-path="url(#p36e3e6b7d4)" d="M 368.432645 128.677365 
L 322.316954 48.802635 
L 230.085537 48.802635 
L 276.201228 128.677365 
L 368.432645 128.677365 
" style="fill:none;stroke:#ff8000;stroke-linecap:square;stroke-opacity:0.4;stroke-width:0.7;"/>
   </g>
   <g id="line2d_39">
    <path clip-path="url(#p36e3e6b7d4)" d="M 276.201194 75.427518 
L 299.259091 88.74 
" style="fill:none;stroke:#666666;stroke-linecap:square;"/>
   </g>
   <g id="line2d_40">
    <path clip-path="url(#p36e3e6b7d4)" d="M 299.259091 88.74 
L 322.316989 102.052482 
" style="fill:none;stroke:#666666;stroke-linecap:square;"/>
   </g>
   <g id="line2d_41">
    <path clip-path="url(#p36e3e6b7d4)" d="M 276.201194 75.427518 
L 299.259091 88.74 
" style="fill:none;stroke:#666666;stroke-linecap:square;"/>
   </g>
   <g id="line2d_42">
    <path clip-path="url(#p36e3e6b7d4)" d="M 299.259091 88.74 
L 322.316989 102.052482 
" style="fill:none;stroke:#666666;stroke-linecap:square;"/>
   </g>
   <g id="PathCollection_3">
    <defs>
     <path d="M 0 3.535534 
C 0.937635 3.535534 1.836992 3.163008 2.5 2.5 
C 3.163008 1.836992 3.535534 0.937635 3.535534 0 
C 3.535534 -0.937635 3.163008 -1.836992 2.5 -2.5 
C 1.836992 -3.163008 0.937635 -3.535534 0 -3.535534 
C -0.937635 -3.535534 -1.836992 -3.163008 -2.5 -2.5 
C -3.163008 -1.836992 -3.535534 -0.937635 -3.535534 0 
C -3.535534 0.937635 -3.163008 1.836992 -2.5 2.5 
C -1.836992 3.163008 -0.937635 3.535534 0 3.535534 
z
" id="m45eca9d917" style="stroke:#666666;"/>
    </defs>
    <g clip-path="url(#p36e3e6b7d4)">
     <use style="fill:#666666;stroke:#666666;" x="276.201194" xlink:href="#m45eca9d917" y="75.427518"/>
     <use style="fill:#666666;stroke:#666666;" x="276.201194" xlink:href="#m45eca9d917" y="75.427518"/>
     <use style="fill:#666666;stroke:#666666;" x="322.316989" xlink:href="#m45eca9d917" y="102.052482"/>
     <use style="fill:#666666;stroke:#666666;" x="322.316989" xlink:href="#m45eca9d917" y="102.052482"/>
    </g>
   </g>
   <g id="text_19">
    <!--  -->
    <g transform="translate(349.986361 125.704084)scale(0.1 -0.1)"/>
    <!--  $\veca_1$ -->
    <g transform="translate(349.986361 136.310021)scale(0.1 -0.1)">
     <defs>
      <path d="M -1.703125 65.40625 
L -14.90625 54.796875 
L -16.703125 55.59375 
Q -11.796875 59.703125 -11.796875 61.203125 
Q -11.796875 62.703125 -16.703125 62.703125 
L -45.296875 62.703125 
L -45.296875 68.09375 
L -16.703125 68.09375 
Q -11.796875 68.09375 -11.796875 69.59375 
Q -11.796875 69.90625 -12 70.25 
Q -12.203125 70.59375 -12.75 71.140625 
Q -13.296875 71.703125 -13.75 72.203125 
Q -14.203125 72.703125 -15.203125 73.640625 
Q -16.203125 74.59375 -16.796875 75.203125 
L -15 76 
z
" id="STIXGeneral-Regular-8407"/>
      <path d="M 46.296875 11.09375 
L 47.59375 10 
Q 42 3.203125 39.34375 1.09375 
Q 36.703125 -1 33.703125 -1 
Q 29.703125 -1 29.703125 3.09375 
Q 29.703125 5.59375 32 14.59375 
Q 26.40625 6.203125 21.703125 2.546875 
Q 17 -1.09375 11.703125 -1.09375 
Q 7.296875 -1.09375 4.5 1.953125 
Q 1.703125 5 1.703125 10.5 
Q 1.703125 18.09375 6.046875 26 
Q 10.40625 33.90625 17.09375 39 
Q 23.796875 44.09375 30.296875 44.09375 
Q 37 44.09375 38.296875 38.296875 
L 39.40625 43.09375 
L 39.703125 43.40625 
L 45.796875 44.09375 
L 46.5 43.796875 
Q 46.40625 43.40625 45.90625 41.703125 
Q 37 9.296875 37 5.40625 
Q 37 4.09375 38.40625 4.09375 
Q 39.90625 4.09375 43.59375 8.203125 
z
M 36.5 36.09375 
Q 36.5 38.703125 35 40.296875 
Q 33.5 41.90625 30.90625 41.90625 
Q 24.09375 41.90625 17.796875 32.703125 
Q 14.5 27.796875 12.296875 21.796875 
Q 10.09375 15.796875 10.09375 11.203125 
Q 10.09375 3.796875 16.09375 3.796875 
Q 22 3.796875 28.796875 13.59375 
Q 36.5 24.703125 36.5 36.09375 
z
" id="STIXGeneral-Italic-97"/>
     </defs>
     <use transform="translate(0 0.203125)" xlink:href="#STIXGeneral-Regular-32"/>
     <use transform="translate(76.769516 2)" xlink:href="#STIXGeneral-Regular-8407"/>
     <use transform="translate(24.999985 0.203125)" xlink:href="#STIXGeneral-Italic-97"/>
     <use transform="translate(76.643257 -13.025)scale(0.7)" xlink:href="#STIXGeneral-Regular-49"/>
    </g>
   </g>
   <g id="text_20">
    <!--  -->
    <g transform="translate(239.308675 61.8043)scale(0.1 -0.1)"/>
    <!--  $\veca_2$ -->
    <g transform="translate(239.308675 72.410237)scale(0.1 -0.1)">
     <use transform="translate(0 0.203125)" xlink:href="#STIXGeneral-Regular-32"/>
     <use transform="translate(76.769516 2)" xlink:href="#STIXGeneral-Regular-8407"/>
     <use transform="translate(24.999985 0.203125)" xlink:href="#STIXGeneral-Italic-97"/>
     <use transform="translate(76.643257 -13.025)scale(0.7)" xlink:href="#STIXGeneral-Regular-50"/>
    </g>
   </g>
   <g id="legend_2">
    <g id="PathCollection_4">
     <g>
      <use style="fill:#666666;stroke:#666666;" x="238.995182" xlink:href="#m45eca9d917" y="33.317403"/>
     </g>
    </g>
    <g id="text_21">
     <!-- C -->
     <g transform="translate(253.989182 35.504028)scale(0.0833 -0.0833)">
      <defs>
       <path d="M 61.40625 13.09375 
L 63.296875 11.296875 
Q 54.40625 -1.40625 36 -1.40625 
Q 21.5 -1.40625 12.40625 7.5 
Q 2.796875 16.90625 2.796875 32.5 
Q 2.796875 47.09375 11.796875 57.203125 
Q 21.203125 67.59375 36.09375 67.59375 
Q 42.5 67.59375 48 66.09375 
Q 54.296875 64.296875 54.90625 64.296875 
Q 58.203125 64.296875 59.09375 67.59375 
L 61.09375 67.59375 
L 62 44.90625 
L 59.703125 44.90625 
Q 58.09375 52.09375 54.5 56 
Q 47.40625 63.59375 38.40625 63.59375 
Q 27.296875 63.59375 20.84375 55.4375 
Q 14.40625 47.296875 14.40625 34.09375 
Q 14.40625 18 21.59375 10.203125 
Q 28.296875 3 39.40625 3 
Q 46 3 50.796875 5.296875 
Q 55.59375 7.59375 61.40625 13.09375 
z
" id="STIXGeneral-Regular-67"/>
      </defs>
      <use xlink:href="#STIXGeneral-Regular-67"/>
     </g>
    </g>
   </g>
  </g>
 </g>
 <defs>
  <clipPath id="p502f2f1a7c">
   <rect height="163.08" width="152.181818" x="40.55" y="7.2"/>
  </clipPath>
  <clipPath id="p36e3e6b7d4">
   <rect height="87.862203" width="152.181818" x="223.168182" y="44.808898"/>
  </clipPath>
 </defs>
</svg>
